<?xml version="1.0" encoding="UTF-8"?>
<svg xmlns="http://www.w3.org/2000/svg" version="1.1" viewBox="0 0 851.159 296.755">
  <!-- Generator: Adobe Illustrator 28.7.0, SVG Export Plug-In . SVG Version: 1.2.0 Build 136)  -->
  <g>
    <g id="Ebene_1">
      <g>
        <path d="M438.189,166.305c-10.269-5.23-22.165-7.847-35.683-7.847h-40.137c-1.504,0-2.723,1.219-2.723,2.723v122.558c0,1.504,1.219,2.723,2.723,2.723h38.797c9.819,0,18.942-1.465,27.36-4.401,8.418-2.933,15.752-7.206,22.003-12.819,6.249-5.613,11.162-12.439,14.733-20.474,3.571-8.035,5.358-17.028,5.358-26.978,0-12.755-2.84-23.885-8.514-33.388-5.677-9.5-13.651-16.868-23.917-22.098ZM450.912,243.125c-2.808,6.315-6.666,11.641-11.574,15.978-4.914,4.337-10.62,7.652-17.126,9.95-6.504,2.295-13.521,3.443-21.045,3.443h-23.683c-1.504,0-2.723-1.219-2.723-2.723v-94.432c0-1.504,1.219-2.723,2.723-2.723h25.023c10.33,0,19.418,2.042,27.265,6.124,7.844,4.084,14.029,9.79,18.559,17.124,4.526,7.336,6.791,15.978,6.791,25.927,0,7.91-1.404,15.02-4.209,21.333Z" fill="#05171d"/>
        <path d="M551.842,229.827c-1.34-2.422-2.01-4.847-2.01-7.27s.67-4.911,2.01-7.464c1.34-2.55,3.22-5.291,5.645-8.227l38.342-43.895c1.538-1.761.288-4.514-2.051-4.514h-10.565c-.787,0-1.535.34-2.052.933l-37.068,42.501c-3.191,3.574-5.488,7.113-6.889,10.62-.449,1.121-.705,2.234-1.009,3.348h-17.316c-1.504,0-2.723-1.219-2.723-2.723v-51.956c0-1.504-1.219-2.723-2.723-2.723h-9.668c-1.504,0-2.723,1.219-2.723,2.723v122.558c0,1.504,1.219,2.723,2.723,2.723h9.668c1.504,0,2.723-1.219,2.723-2.723v-51.381c0-1.504,1.219-2.723,2.723-2.723h17.249c.315,1.174.598,2.343,1.077,3.539,1.401,3.51,3.699,6.985,6.889,10.428l37.261,41.945c.517.582,1.258.914,2.036.914h11.616c2.356,0,3.6-2.788,2.026-4.541l-39.546-44.059c-2.425-2.933-4.305-5.61-5.645-8.035Z" fill="#05171d"/>
        <path d="M693.332,224.565c-4.084-2.614-8.58-4.653-13.489-6.124-4.911-1.462-9.79-2.646-14.637-3.539-5.358-1.274-10.426-2.611-15.209-4.018-4.783-1.401-8.612-3.507-11.481-6.315-3.671-3.586-4.995-9.161-3.968-16.726.04-.298.124-.618.239-.895,2.478-5.983,6.693-10.311,12.626-12.992,3.951-1.784,8.291-2.678,13.01-2.678,7.272,0,13.585,1.595,18.942,4.783,4.586,2.729,8.191,6.442,10.815,11.134.738,1.319,2.331,1.881,3.67,1.18l7.708-4.033c1.287-.673,1.866-2.276,1.238-3.586-3.596-7.497-8.919-13.241-15.967-17.229-7.783-4.401-16.392-6.599-25.832-6.599-7.652,0-14.669,1.563-21.045,4.688-6.381,3.127-11.452,7.397-15.212,12.819-3.765,5.422-5.645,11.641-5.645,18.655,0,6.504,1.244,11.862,3.73,16.071,2.489,4.212,5.804,7.626,9.95,10.237,4.145,2.616,8.705,4.658,13.68,6.124,4.975,1.468,9.883,2.648,14.733,3.539,5.358,1.149,10.362,2.393,15.02,3.73,4.656,1.34,8.386,3.414,11.194,6.219,2.803,2.808,4.209,6.889,4.209,12.244,0,4.722-1.276,8.804-3.829,12.247-2.553,3.443-6.025,6.028-10.426,7.748-4.401,1.723-9.346,2.584-14.829,2.584-7.91,0-14.733-1.627-20.474-4.879-4.939-2.8-8.745-6.565-11.417-11.3-.728-1.29-2.273-1.857-3.602-1.203l-7.996,3.937c-1.345.662-1.955,2.324-1.275,3.661,3.74,7.357,9.351,13.104,16.829,17.245,8.291,4.592,17.602,6.889,27.935,6.889,8.291,0,15.783-1.563,22.481-4.688,6.698-3.124,12.021-7.464,15.978-13.013,3.951-5.547,5.929-12.021,5.929-19.418,0-6.506-1.242-11.893-3.73-16.169-2.486-4.273-5.773-7.716-9.854-10.333Z" fill="#05171d"/>
        <path d="M822.482,263.886c-3.574-7.272-7.049-13.553-10.428-18.847-3.382-5.291-7.365-9.375-11.957-12.247-.977-.61-2.051-1.122-3.156-1.603,4.043-.726,6.222-1.851,9.552-3.465,6.057-2.933,10.811-7.11,14.255-12.534,3.443-5.419,5.166-11.766,5.166-19.038,0-8.543-2.106-15.624-6.315-21.237s-9.825-9.758-16.836-12.439c-7.017-2.678-13.381-4.018-22.182-4.018h-39.371c-1.504,0-2.723,1.219-2.723,2.723v122.558c0,1.504,1.219,2.723,2.723,2.723h9.484c1.502,0,2.72-1.216,2.723-2.718l.073-43.927c.003-1.502,1.221-2.718,2.723-2.718h15.759c6.629,0,11.986,1.212,16.071,3.635,4.081,2.425,7.559,5.773,10.428,10.045,2.869,4.273,5.706,9.216,8.514,14.826l9.583,19.343c.459.927,1.405,1.514,2.44,1.514h10.359c2.024,0,3.34-2.13,2.435-3.94l-9.317-18.637ZM753.521,220.594l.075-45.258c.002-1.502,1.221-2.718,2.723-2.718h24.453c5.738,0,10.968.861,15.688,2.584,4.72,1.72,8.482,4.401,11.29,8.035,2.805,3.635,4.209,8.389,4.209,14.255,0,5.741-1.372,10.492-4.113,14.255-2.744,3.762-6.475,6.634-11.194,8.61-4.72,1.978-10.141,2.965-16.262,2.965h-24.145c-1.505,0-2.725-1.222-2.723-2.727Z" fill="#05171d"/>
      </g>
      <path d="M288.802,9.964c0-1.314-1.356-2.191-2.554-1.65l-89.588,40.389c-25.523,13.06-41.376,38.986-41.371,67.401l-1.299,37.057-37.121,1.776c-28.671,0-54.595,15.854-67.813,41.698l-40.246,89.253c-.54,1.198.336,2.555,1.65,2.555h212.477c38.152,0,67.79-31.176,65.86-69.279h0c0-.024.004-.046.004-.07V9.964ZM62.104,202.91c10.573-20.657,31.559-33.491,55.112-33.5l36.265-1.734-3.094,88.18-.005.255c0,6.599,2.001,12.736,5.422,17.848H30.075l32.029-71.048ZM219.591,273.819h-37.016c-9.726,0-17.646-7.882-17.71-17.591l3.128-89.245,51.766-2.476c30.078.09,54.518,24.568,54.557,54.656-.039,30.143-24.571,54.656-54.725,54.656ZM219.591,150.022l-51.09,2.443,1.266-36.108c0-23.207,12.834-44.191,33.167-54.608l71.384-32.174v147.449c-12.669-16.387-32.458-27.003-54.728-27.003Z" fill="#05171d"/>
    </g>
  </g>
</svg>