<svg width="86" height="30" viewBox="0 0 86 30" fill="none" xmlns="http://www.w3.org/2000/svg">
<path d="M7.78445 29.1136V10.3636H10.3768V12.5742H10.5987C10.7526 12.2901 10.9746 11.9616 11.2646 11.5888C11.5546 11.2159 11.957 10.8904 12.4719 10.6122C12.9869 10.3281 13.6675 10.1861 14.5138 10.1861C15.6147 10.1861 16.5972 10.4643 17.4613 11.0206C18.3254 11.5769 19.0031 12.3789 19.4943 13.4265C19.9915 14.4741 20.2401 15.7347 20.2401 17.2085C20.2401 18.6822 19.9944 19.9458 19.5032 20.9993C19.012 22.0469 18.3372 22.8548 17.479 23.4229C16.6209 23.9852 15.6413 24.2663 14.5405 24.2663C13.7119 24.2663 13.0342 24.1272 12.5075 23.8491C11.9866 23.5709 11.5782 23.2454 11.2823 22.8725C10.9864 22.4996 10.7585 22.1682 10.5987 21.8782H10.4389V29.1136H7.78445ZM10.3857 17.1818C10.3857 18.1406 10.5247 18.9811 10.8029 19.7031C11.0811 20.4252 11.4835 20.9904 12.0103 21.3988C12.5371 21.8013 13.1822 22.0025 13.9457 22.0025C14.7388 22.0025 15.4016 21.7924 15.9343 21.3722C16.467 20.946 16.8694 20.369 17.1417 19.641C17.4199 18.913 17.5589 18.0933 17.5589 17.1818C17.5589 16.2822 17.4228 15.4743 17.1506 14.7582C16.8842 14.042 16.4818 13.4768 15.9432 13.0625C15.4105 12.6482 14.7447 12.4411 13.9457 12.4411C13.1763 12.4411 12.5252 12.6393 11.9925 13.0359C11.4658 13.4324 11.0663 13.9858 10.794 14.696C10.5218 15.4062 10.3857 16.2348 10.3857 17.1818ZM23.2141 24V10.3636H25.8686V24H23.2141ZM24.5547 8.25959C24.093 8.25959 23.6965 8.1057 23.3651 7.79794C23.0395 7.48426 22.8768 7.11139 22.8768 6.67933C22.8768 6.24136 23.0395 5.86849 23.3651 5.56072C23.6965 5.24704 24.093 5.0902 24.5547 5.0902C25.0163 5.0902 25.4099 5.24704 25.7354 5.56072C26.0669 5.86849 26.2326 6.24136 26.2326 6.67933C26.2326 7.11139 26.0669 7.48426 25.7354 7.79794C25.4099 8.1057 25.0163 8.25959 24.5547 8.25959ZM41.1052 10.3636L36.1602 24H33.3193L28.3655 10.3636H31.2153L34.6688 20.8572H34.8108L38.2554 10.3636H41.1052ZM49.0131 24.2752C47.6696 24.2752 46.5125 23.9882 45.5419 23.4141C44.5772 22.834 43.8314 22.0202 43.3047 20.9727C42.7839 19.9192 42.5234 18.6851 42.5234 17.2706C42.5234 15.8738 42.7839 14.6428 43.3047 13.5774C43.8314 12.5121 44.5653 11.6805 45.5064 11.0827C46.4534 10.485 47.5601 10.1861 48.8267 10.1861C49.5961 10.1861 50.3419 10.3133 51.0639 10.5678C51.786 10.8223 52.4341 11.2218 53.0082 11.7663C53.5823 12.3108 54.035 13.0181 54.3665 13.8881C54.6979 14.7522 54.8636 15.8028 54.8636 17.0398V17.9808H44.0238V15.9922H52.2624C52.2624 15.2938 52.1204 14.6753 51.8363 14.1367C51.5522 13.5922 51.1527 13.1631 50.6378 12.8494C50.1288 12.5357 49.531 12.3789 48.8445 12.3789C48.0987 12.3789 47.4477 12.5624 46.8913 12.9293C46.3409 13.2904 45.9148 13.7638 45.6129 14.3498C45.317 14.9298 45.169 15.5601 45.169 16.2408V17.7944C45.169 18.7058 45.3288 19.4812 45.6484 20.1204C45.974 20.7596 46.4267 21.2479 47.0067 21.5852C47.5868 21.9167 48.2644 22.0824 49.0398 22.0824C49.5429 22.0824 50.0015 22.0114 50.4158 21.8693C50.8301 21.7214 51.1882 21.5024 51.4901 21.2124C51.7919 20.9223 52.0227 20.5643 52.1825 20.1381L54.695 20.5909C54.4937 21.3307 54.1327 21.9788 53.6119 22.5352C53.0969 23.0856 52.4489 23.5147 51.6676 23.8224C50.8923 24.1243 50.0075 24.2752 49.0131 24.2752ZM61.7773 24.3018C60.9131 24.3018 60.1319 24.142 59.4335 23.8224C58.7351 23.4969 58.1817 23.0264 57.7733 22.4109C57.3709 21.7953 57.1697 21.0407 57.1697 20.147C57.1697 19.3776 57.3176 18.7443 57.6135 18.2472C57.9095 17.75 58.309 17.3564 58.8121 17.0664C59.3151 16.7764 59.8774 16.5574 60.4988 16.4094C61.1203 16.2615 61.7536 16.149 62.3987 16.0721C63.2155 15.9774 63.8783 15.9004 64.3873 15.8413C64.8963 15.7762 65.2662 15.6726 65.4971 15.5305C65.7279 15.3885 65.8433 15.1577 65.8433 14.8381V14.7759C65.8433 14.0006 65.6243 13.3999 65.1863 12.9737C64.7543 12.5476 64.1092 12.3345 63.251 12.3345C62.3573 12.3345 61.653 12.5328 61.1381 12.9293C60.6291 13.32 60.2769 13.755 60.0816 14.2344L57.5869 13.6662C57.8828 12.8376 58.3149 12.1688 58.8831 11.6598C59.4572 11.1449 60.1171 10.772 60.8628 10.5412C61.6086 10.3045 62.3928 10.1861 63.2155 10.1861C63.76 10.1861 64.337 10.2512 64.9466 10.3814C65.5622 10.5057 66.1363 10.7365 66.6689 11.0739C67.2075 11.4112 67.6485 11.8936 67.9917 12.521C68.335 13.1424 68.5067 13.9503 68.5067 14.9446V24H65.9143V22.1357H65.8078C65.6362 22.4789 65.3787 22.8163 65.0354 23.1477C64.6921 23.4792 64.2512 23.7544 63.7126 23.9734C63.174 24.1924 62.5289 24.3018 61.7773 24.3018ZM62.3543 22.1712C63.0882 22.1712 63.7156 22.0262 64.2364 21.7362C64.7632 21.4461 65.1627 21.0674 65.4349 20.5998C65.7131 20.1263 65.8522 19.6203 65.8522 19.0817V17.3239C65.7575 17.4186 65.574 17.5073 65.3018 17.5902C65.0354 17.6671 64.7306 17.7352 64.3873 17.7944C64.0441 17.8477 63.7097 17.898 63.3841 17.9453C63.0586 17.9867 62.7864 18.0223 62.5674 18.0518C62.0525 18.117 61.5819 18.2264 61.1558 18.3803C60.7356 18.5342 60.3982 18.7562 60.1437 19.0462C59.8952 19.3303 59.7709 19.709 59.7709 20.1825C59.7709 20.8395 60.0135 21.3366 60.4988 21.674C60.9842 22.0054 61.6027 22.1712 62.3543 22.1712ZM80.6804 18.3448V10.3636H83.3438V24H80.7337V21.6385H80.5916C80.2779 22.3665 79.7749 22.9731 79.0824 23.4585C78.3958 23.9379 77.5406 24.1776 76.5167 24.1776C75.6407 24.1776 74.8654 23.9852 74.1907 23.6005C73.5219 23.2099 72.9951 22.6328 72.6104 21.8693C72.2317 21.1058 72.0423 20.1618 72.0423 19.0373V10.3636H74.6967V18.7177C74.6967 19.6469 74.9542 20.3867 75.4691 20.9371C75.984 21.4876 76.6528 21.7628 77.4755 21.7628C77.9727 21.7628 78.4669 21.6385 78.9581 21.3899C79.4553 21.1413 79.8666 20.7655 80.1921 20.2624C80.5236 19.7594 80.6863 19.1201 80.6804 18.3448Z" fill="#363636"/>
<rect x="20" width="10" height="9" fill="white"/>
<circle cx="24.5" cy="2.5" r="2.5" fill="#7B61FF"/>
<circle cx="2.5" cy="10.5" r="2.5" fill="#7B61FF"/>
<line x1="24.0718" y1="3.23946" x2="4.07184" y2="9.23946" stroke="#7B61FF" stroke-width="0.5"/>
</svg>
