<svg width="28" height="24" viewBox="0 0 28 24" fill="none" xmlns="http://www.w3.org/2000/svg">
<path d="M26.5357 0.428589H1.46429C0.931506 0.428589 0.5 0.860095 0.5 1.39287V9.10716C0.5 9.63994 0.931506 10.0714 1.46429 10.0714H4.35714V12H1.46429C0.931506 12 0.5 12.4315 0.5 12.9643V16.8214C0.5 17.3542 0.931506 17.7857 1.46429 17.7857H2.42857V22.6072C2.42857 23.1399 2.86008 23.5714 3.39286 23.5714H7.25C7.78278 23.5714 8.21429 23.1399 8.21429 22.6072V17.7857H19.7857V22.6072C19.7857 23.1399 20.2172 23.5714 20.75 23.5714H24.6071C25.1399 23.5714 25.5714 23.1399 25.5714 22.6072V17.7857H26.5357C27.0685 17.7857 27.5 17.3542 27.5 16.8214V12.9643C27.5 12.4315 27.0685 12 26.5357 12H23.6429V10.0714H26.5357C27.0685 10.0714 27.5 9.63994 27.5 9.10716V1.39287C27.5 0.860095 27.0685 0.428589 26.5357 0.428589ZM25.5714 2.35716V4.28573H2.42857V2.35716H25.5714ZM6.28571 21.6429H4.35714V17.7857H6.28571V21.6429ZM23.6429 21.6429H21.7143V17.7857H23.6429V21.6429ZM25.5714 15.8572H2.42857V13.9286H25.5714V15.8572ZM21.7143 12H6.28571V10.0714H21.7143V12ZM2.42857 8.14288V6.2143H25.5714V8.14288H2.42857Z" fill="#667F93"/>
</svg>
