<svg width="135" height="119" viewBox="0 0 135 119" fill="none" xmlns="http://www.w3.org/2000/svg">
<g id="Group 2081">
<path id="Vector" d="M66.7177 3.92776C52.6131 5.71882 40.6353 7.17406 40.1876 7.17406C39.6278 7.286 39.292 10.8681 39.292 15.1219C39.292 24.4131 40.0756 23.8534 23.0605 26.8758C16.9037 27.9952 11.5305 29.4505 11.0827 30.1221C10.6349 30.7938 10.1872 48.3686 10.1872 69.0778V106.914H5.03786H0.000488281L0.336313 112.847L0.672138 118.668H62.7998H124.927V113.071V107.474L111.494 106.914L98.0614 106.354V89.0034C98.0614 71.7644 98.0614 71.6525 100.636 71.3166C102.315 71.0928 103.994 71.8764 105.45 73.7794C106.681 75.4585 108.248 76.466 108.696 76.1301C110.151 75.2346 112.39 79.8242 111.606 81.9511C110.823 83.8541 120.562 102.436 122.353 102.436C123.92 102.436 134.442 96.5035 134.442 95.608C134.442 93.2572 123.696 76.354 122.017 75.9062C119.778 75.2346 118.211 71.7644 119.33 69.9733C119.666 69.4136 119.442 67.8465 118.659 66.5032C117.651 64.4882 117.875 63.1449 120.002 59.0031C123.696 51.6149 124.032 44.6745 121.121 37.958C119.778 35.0475 117.875 31.5773 116.756 30.346C114.181 27.4355 104.33 22.9578 100.636 22.9578H97.5017V11.7637C97.5017 0.905327 97.3897 0.569504 95.039 0.681442C93.5837 0.793388 80.9343 2.24863 66.7177 3.92776ZM94.1434 14.4503C94.1434 23.7414 94.1434 23.8534 91.121 24.4131C86.5314 25.4206 79.591 31.5773 77.2402 36.8386C74.6656 42.6596 74.5536 51.2791 77.1283 57.1C79.1433 61.4658 79.1433 61.5777 76.9044 62.6971C75.0014 63.7046 74.5536 64.936 74.5536 69.4136V75.0107L81.0463 75.3465L87.4269 75.6824V72.2122C87.4269 68.4062 87.315 68.4062 91.233 69.9733L94.1434 71.0928V89.0034V106.914L73.2104 106.69L52.1653 106.354L51.8295 64.0404L51.6056 21.6145L47.1279 22.3981L42.6503 23.1817V16.913C42.6503 13.4428 42.7622 10.6443 42.9861 10.5323C44.3294 10.0845 85.7478 5.27106 89.4419 5.15911L94.1434 5.04717V14.4503ZM48.2474 66.6151V106.914H31.4561H14.6648V69.4136V32.0251L18.9186 31.2415C21.1575 30.7938 27.6501 29.5624 33.1352 28.443C38.7323 27.4355 44.3294 26.428 45.7846 26.428L48.2474 26.3161V66.6151ZM107.017 28.443C122.241 35.3834 123.92 54.8612 110.039 64.3763C101.42 70.3092 88.0986 67.5106 82.1657 58.6672C70.7476 41.4282 88.4344 19.9354 107.017 28.443ZM84.0687 69.4136C84.0687 71.6525 83.509 72.2122 81.2701 72.2122C79.0313 72.2122 78.4716 71.6525 78.4716 69.4136C78.4716 67.1748 79.0313 66.6151 81.2701 66.6151C83.509 66.6151 84.0687 67.1748 84.0687 69.4136ZM115.412 67.5106C115.412 68.63 110.375 71.0928 108.36 71.0928C106.569 70.9808 112.166 66.727 114.069 66.6151C114.741 66.6151 115.412 67.0629 115.412 67.5106ZM116.532 75.6824C117.315 76.9137 117.539 78.369 117.091 78.7048C116.308 79.4884 113.174 75.9062 113.174 74.2271C113.174 72.4361 115.3 73.3316 116.532 75.6824ZM126.495 88.1079L130.077 94.3766L127.502 96.1677C126.159 97.1752 124.48 97.9588 123.808 97.9588C122.801 97.9588 115.412 85.7571 115.412 84.078C115.412 82.9586 121.569 80.16 122.241 80.9436C122.689 81.3914 124.592 84.5258 126.495 88.1079ZM121.009 113.071V115.869H62.2401H3.47068V113.071V110.272H62.2401H121.009V113.071Z" fill="#316D8F"/>
<path id="Vector_2" d="M58.3228 52.0628V58.7793H64.4795H70.6363V52.0628V45.3463H64.4795H58.3228V52.0628ZM67.2781 52.0628C67.2781 54.8613 66.8303 55.421 64.4795 55.421C62.1288 55.421 61.681 54.8613 61.681 52.0628C61.681 49.2643 62.1288 48.7045 64.4795 48.7045C66.8303 48.7045 67.2781 49.2643 67.2781 52.0628Z" fill="#316D8F"/>
<path id="Vector_3" d="M59.1063 62.809C58.6586 63.2567 58.3228 66.2792 58.3228 69.6374V75.5703H64.4795H70.7483L70.4125 69.0777L70.0766 62.697L65.0393 62.3612C62.2407 62.1373 59.5541 62.3612 59.1063 62.809ZM67.2781 69.4135C67.2781 71.6524 66.7184 72.2121 64.4795 72.2121C62.2407 72.2121 61.681 71.6524 61.681 69.4135C61.681 67.1747 62.2407 66.615 64.4795 66.615C66.7184 66.615 67.2781 67.1747 67.2781 69.4135Z" fill="#316D8F"/>
<path id="Vector_4" d="M58.3228 86.2045V92.3613H64.4795H70.6363V86.2045V80.0477H64.4795H58.3228V86.2045ZM67.2781 86.2045C67.2781 88.4434 66.7184 89.0031 64.4795 89.0031C62.2407 89.0031 61.681 88.4434 61.681 86.2045C61.681 83.9657 62.2407 83.406 64.4795 83.406C66.7184 83.406 67.2781 83.9657 67.2781 86.2045Z" fill="#316D8F"/>
<path id="Vector_5" d="M74.4424 81.6143C74.1066 82.5098 73.9946 85.0845 74.2185 87.4353L74.5544 91.801L81.047 92.1368L87.4276 92.4727V86.2039V80.0471H81.2709C77.0171 80.0471 74.8902 80.4949 74.4424 81.6143ZM84.0694 86.2039C84.0694 88.4428 83.5097 89.0025 81.2709 89.0025C79.032 89.0025 78.4723 88.4428 78.4723 86.2039C78.4723 83.9651 79.032 83.4054 81.2709 83.4054C83.5097 83.4054 84.0694 83.9651 84.0694 86.2039Z" fill="#316D8F"/>
<path id="Vector_6" d="M21.6045 38.853C20.0373 40.4202 19.8134 47.3606 21.2686 49.5994C21.8283 50.6069 24.7388 50.9427 31.5673 50.7189L40.9704 50.383L41.3062 46.577C41.5301 44.4501 41.4181 41.6516 41.0823 40.1963C40.4107 37.6217 39.851 37.5097 31.6792 37.5097C26.418 37.5097 22.3881 38.0695 21.6045 38.853ZM29.2165 44.786C29.2165 46.8009 28.6568 47.5845 26.9777 47.5845C25.2985 47.5845 24.7388 46.8009 24.7388 44.786C24.7388 42.771 25.2985 41.9874 26.9777 41.9874C28.6568 41.9874 29.2165 42.771 29.2165 44.786ZM37.0524 44.786C37.0524 46.8009 36.4927 47.5845 34.8136 47.5845C33.1345 47.5845 32.5747 46.8009 32.5747 44.786C32.5747 42.771 33.1345 41.9874 34.8136 41.9874C36.4927 41.9874 37.0524 42.771 37.0524 44.786Z" fill="#316D8F"/>
<path id="Vector_7" d="M20.9339 55.9805C20.0383 58.3313 20.0383 63.7045 20.9339 65.9433C21.4936 67.3985 23.5085 67.7344 31.0086 67.7344C39.9639 67.7344 40.4117 67.6224 41.0834 65.0478C41.4192 63.5925 41.5311 60.794 41.3072 58.6671L40.9714 54.8611L31.3444 54.5253C23.2846 54.3014 21.4936 54.5253 20.9339 55.9805ZM28.9937 60.682C28.7698 62.5851 27.8742 63.9284 26.7548 64.1522C25.1876 64.4881 24.7399 63.8164 24.7399 61.1298C24.7399 58.3313 25.1876 57.6596 27.0906 57.6596C28.8817 57.6596 29.3295 58.2193 28.9937 60.682ZM37.0535 61.1298C37.0535 63.8164 36.6057 64.4881 35.1505 64.1522C33.9191 63.9284 33.0236 62.5851 32.7997 60.682C32.4639 58.2193 32.9116 57.6596 34.7027 57.6596C36.6057 57.6596 37.0535 58.3313 37.0535 61.1298Z" fill="#316D8F"/>
<path id="Vector_8" d="M20.9339 72.8842C20.0383 75.123 20.0383 80.4962 20.9339 82.735C21.9413 85.3097 39.852 85.3097 40.8595 82.735C41.755 80.4962 41.755 75.123 40.8595 72.8842C39.852 70.3095 21.9413 70.3095 20.9339 72.8842ZM29.2175 77.8096C29.2175 80.3842 28.7698 81.1678 26.9787 81.1678C25.1876 81.1678 24.7399 80.3842 24.7399 77.8096C24.7399 75.2349 25.1876 74.4513 26.9787 74.4513C28.7698 74.4513 29.2175 75.2349 29.2175 77.8096ZM37.0535 77.8096C37.0535 80.3842 36.6057 81.1678 34.8146 81.1678C33.0236 81.1678 32.5758 80.3842 32.5758 77.8096C32.5758 75.2349 33.0236 74.4513 34.8146 74.4513C36.6057 74.4513 37.0535 75.2349 37.0535 77.8096Z" fill="#316D8F"/>
<path id="Vector_9" d="M90.0007 31.9124C80.0379 37.9573 78.4707 51.1664 86.7544 59.4501C92.7993 65.4949 101.978 66.3904 109.367 61.5769C119.665 54.8604 118.658 37.0617 107.576 31.3527C102.986 29.0019 94.3665 29.2258 90.0007 31.9124ZM109.255 37.5095C112.165 40.5319 112.613 41.6513 112.613 47.1365C112.613 52.8455 112.277 53.6291 108.471 57.2112C105.561 59.7859 103.21 61.0172 100.859 61.0172H97.5008V46.9126V32.696L101.643 33.3676C104.105 33.8154 107.128 35.4945 109.255 37.5095ZM94.1426 47.0245C94.1426 54.0769 93.8067 59.8978 93.4709 59.8978C89.553 59.8978 85.1872 53.1813 85.1872 47.0245C85.1872 40.8677 89.3291 34.3751 93.359 34.1512C93.8067 34.1512 94.1426 39.9722 94.1426 47.0245Z" fill="#316D8F"/>
</g>
</svg>
