<svg width="94" height="120" viewBox="0 0 94 120" fill="none" xmlns="http://www.w3.org/2000/svg">
<g id="Vector">
<mask id="path-1-outside-1_4663_57639" maskUnits="userSpaceOnUse" x="-0.000488281" y="-0.332031" width="94" height="120" fill="black">
<rect fill="white" x="-0.000488281" y="-0.332031" width="94" height="120"/>
<path d="M40.88 3.01446C39.0319 7.87794 40.6855 16.1459 43.7981 17.2158C44.2845 17.3131 45.0626 19.0639 45.3544 20.9121L46.0353 24.3165L43.409 21.8848C41.1718 19.9394 39.7128 19.453 35.4329 19.5503C28.4295 19.5503 27.3596 20.7175 30.764 24.8028C34.1684 28.7909 38.4483 30.639 41.95 29.6663C43.409 29.18 44.8681 29.0827 45.1599 29.4718C45.4517 29.7636 45.7435 33.2653 45.7435 37.2533C45.7435 44.4513 45.7435 44.4513 43.8954 42.2141C42.5336 40.4632 40.9773 39.9769 36.4056 39.6851C28.7213 39.1987 27.2623 40.1714 30.0831 44.1595C33.1957 48.4393 37.3783 50.3847 42.0473 49.7038L45.7435 49.1202V53.011C45.7435 56.4154 45.4517 56.9018 43.5063 56.9018C42.2418 56.9018 40.1991 57.9718 38.9346 59.3335C37.6701 60.6953 35.6275 61.7653 34.363 61.7653C30.9585 61.7653 26.0951 64.0997 23.4688 67.0178C21.2316 69.4496 20.648 69.5468 11.0183 69.5468H0.999512V74.2158C0.999512 90.5571 11.7964 106.996 27.8459 114.972C35.3357 118.571 35.6275 118.668 46.6189 118.668C56.9295 118.668 58.3886 118.473 63.6411 116.042C72.2008 111.956 78.4261 106.996 83.095 100.284C88.9312 92.0161 91.5575 85.11 92.1411 76.7448L92.7247 69.5468H82.0251C72.2981 69.5468 71.1309 69.3523 69.4773 67.5042C68.5046 66.3369 65.6838 64.4888 63.252 63.4189C60.8203 62.3489 57.9022 60.4035 56.735 59.2363C55.3732 57.7772 53.5251 56.9018 51.5797 56.9018C49.537 56.9018 48.6616 56.5127 48.9534 55.6373C49.1479 55.0537 50.0234 54.6646 50.7043 54.8591C51.4824 55.0537 53.136 55.54 54.4978 55.8318C58.4858 56.9991 63.1548 55.1509 67.7264 50.5793C74.438 43.8677 73.2708 42.1168 62.0848 42.0196C55.5677 42.0196 52.066 43.8677 49.537 48.9257L47.8834 52.0383L47.7862 44.6458C47.6889 40.6578 47.8834 36.9615 48.1753 36.4752C48.4671 36.0861 49.9261 36.1834 51.4824 36.767C53.7196 37.5452 54.7896 37.4479 57.4159 35.8916C59.1667 34.9189 61.5012 32.7789 62.6684 31.3199C64.4193 28.9854 64.5165 28.4991 63.252 27.7209C60.5285 25.9701 53.0387 26.651 50.2179 28.7909L47.6889 30.7363V25.8728C47.6889 23.1493 48.3698 18.9667 49.2452 16.4377C51.0933 10.9906 50.5097 8.36428 46.6189 3.88988C43.02 -0.195442 42.1445 -0.292709 40.88 3.01446ZM46.2299 7.29432C48.7589 12.2551 47.4944 16.7295 44.2845 14.1032C42.6309 12.7414 42.2418 4.37623 43.7981 4.37623C44.2845 4.37623 45.3544 5.64073 46.2299 7.29432ZM41.2691 23.7329C42.2418 24.8028 42.7282 26.1646 42.3391 26.651C41.2691 28.5964 38.0592 27.8182 34.8493 24.8028L31.6394 21.982L35.6275 21.8848C38.351 21.8848 40.1019 22.4684 41.2691 23.7329ZM59.1667 29.569C61.0148 30.639 55.8595 34.7243 53.136 34.3353C50.3152 33.9462 50.607 31.4172 53.5251 29.9581C56.3459 28.4991 57.4159 28.4018 59.1667 29.569ZM41.6582 43.4786C45.6462 47.4666 38.8374 48.6339 34.363 44.7431L31.6394 42.4086L36.1138 42.3114C38.5456 42.3114 40.9773 42.7977 41.6582 43.4786ZM66.9483 44.8404L69.1855 45.5213L66.4619 48.3421C61.5012 53.5946 56.5404 55.2482 53.136 52.7192C50.607 50.8711 51.8715 47.7585 55.7623 45.8131C59.0694 44.2568 63.1548 43.8677 66.9483 44.8404ZM55.4705 61.7653C57.2213 63.4189 59.7503 64.9752 61.3066 65.3642C62.863 65.6561 64.9056 66.726 65.781 67.6987C67.4346 69.5468 66.9483 69.5468 45.7435 69.5468H23.9551L27.2623 67.1151C29.1104 65.7533 32.3203 64.3916 34.363 64.0025C36.5029 63.7107 39.3237 62.4462 40.6855 61.1817C44.479 57.5827 51.4824 57.8745 55.4705 61.7653ZM25.8033 75.6748C30.0831 82.4837 36.5029 84.4291 46.6189 82.0946C50.607 81.2192 51.0933 81.3165 53.6223 83.7482C55.9568 85.9854 56.9295 86.2772 60.3339 85.7909C62.5711 85.499 65.1002 84.6236 66.0729 83.7482C67.0455 82.8728 68.8937 82.1919 70.3527 82.1919C73.7571 82.1919 75.8971 79.7601 75.8971 75.7721V72.4649H83.2896H90.7793L90.0984 75.4803C89.8066 77.1339 89.5148 79.2738 89.5148 80.2465C89.5148 81.3165 88.0558 82.4837 85.1377 83.5537C82.7059 84.5264 79.8851 86.4717 78.8152 87.8335C75.3135 92.5997 74.8271 92.8915 72.0063 92.8915C66.9483 92.8915 66.1701 93.6697 66.1701 98.825C66.1701 103.202 65.781 103.98 62.2793 107.385C60.1394 109.427 58.3886 111.956 58.3886 113.124C58.3886 114.583 57.6104 115.458 55.7623 115.944C51.5797 117.014 39.8101 116.723 35.9193 115.361C32.9039 114.388 32.5149 113.902 32.9039 111.47C33.3903 108.066 30.6667 102.813 25.2196 96.296C22.9824 93.5724 20.0643 89.098 18.7998 86.2772C16.0763 80.441 14.6173 80.052 9.75377 83.6509C7.90565 85.0127 6.34934 86.0827 6.1548 86.0827C5.47391 86.0827 4.20941 81.6083 3.52852 77.0366L2.84763 72.4649H13.3527L23.8579 72.5622L25.8033 75.6748ZM72.979 75.8694C72.979 78.982 72.6872 79.2738 70.1582 79.2738C68.6991 79.2738 66.2674 80.1492 64.8083 81.3165C61.3066 84.1373 56.6377 84.04 54.4978 81.2192C52.8442 78.982 52.5524 78.982 45.1599 79.9547C40.3937 80.5383 36.5029 80.5383 35.0439 80.052C32.4176 79.0793 27.2623 74.6049 27.2623 73.2431C27.2623 72.854 37.5729 72.4649 50.1206 72.4649H72.979V75.8694ZM16.4654 87.639C17.1463 89.4871 19.6753 93.4752 22.0097 96.3932C28.0405 103.688 30.1804 107.482 30.1804 110.692V113.318L26.0951 111.275C20.9398 108.649 12.9637 100.576 9.36469 94.4478L6.54388 89.5844L9.85104 86.8608C14.0336 83.3591 14.9091 83.4564 16.4654 87.639ZM84.9431 92.5997C83.4841 95.6151 79.7879 100.673 76.8698 103.688C70.9363 109.719 61.3066 115.458 61.3066 112.832C61.3066 111.275 63.7384 108.649 66.7537 106.898C68.2128 106.023 68.5046 104.856 68.3101 100.868C68.1155 96.1014 68.3101 95.8096 70.45 95.8096C74.438 95.8096 78.5234 93.8642 79.5933 91.3352C80.8578 88.8062 86.8885 84.6236 87.3749 85.9854C87.5694 86.569 86.4995 89.4871 84.9431 92.5997Z"/>
</mask>
<path d="M40.88 3.01446C39.0319 7.87794 40.6855 16.1459 43.7981 17.2158C44.2845 17.3131 45.0626 19.0639 45.3544 20.9121L46.0353 24.3165L43.409 21.8848C41.1718 19.9394 39.7128 19.453 35.4329 19.5503C28.4295 19.5503 27.3596 20.7175 30.764 24.8028C34.1684 28.7909 38.4483 30.639 41.95 29.6663C43.409 29.18 44.8681 29.0827 45.1599 29.4718C45.4517 29.7636 45.7435 33.2653 45.7435 37.2533C45.7435 44.4513 45.7435 44.4513 43.8954 42.2141C42.5336 40.4632 40.9773 39.9769 36.4056 39.6851C28.7213 39.1987 27.2623 40.1714 30.0831 44.1595C33.1957 48.4393 37.3783 50.3847 42.0473 49.7038L45.7435 49.1202V53.011C45.7435 56.4154 45.4517 56.9018 43.5063 56.9018C42.2418 56.9018 40.1991 57.9718 38.9346 59.3335C37.6701 60.6953 35.6275 61.7653 34.363 61.7653C30.9585 61.7653 26.0951 64.0997 23.4688 67.0178C21.2316 69.4496 20.648 69.5468 11.0183 69.5468H0.999512V74.2158C0.999512 90.5571 11.7964 106.996 27.8459 114.972C35.3357 118.571 35.6275 118.668 46.6189 118.668C56.9295 118.668 58.3886 118.473 63.6411 116.042C72.2008 111.956 78.4261 106.996 83.095 100.284C88.9312 92.0161 91.5575 85.11 92.1411 76.7448L92.7247 69.5468H82.0251C72.2981 69.5468 71.1309 69.3523 69.4773 67.5042C68.5046 66.3369 65.6838 64.4888 63.252 63.4189C60.8203 62.3489 57.9022 60.4035 56.735 59.2363C55.3732 57.7772 53.5251 56.9018 51.5797 56.9018C49.537 56.9018 48.6616 56.5127 48.9534 55.6373C49.1479 55.0537 50.0234 54.6646 50.7043 54.8591C51.4824 55.0537 53.136 55.54 54.4978 55.8318C58.4858 56.9991 63.1548 55.1509 67.7264 50.5793C74.438 43.8677 73.2708 42.1168 62.0848 42.0196C55.5677 42.0196 52.066 43.8677 49.537 48.9257L47.8834 52.0383L47.7862 44.6458C47.6889 40.6578 47.8834 36.9615 48.1753 36.4752C48.4671 36.0861 49.9261 36.1834 51.4824 36.767C53.7196 37.5452 54.7896 37.4479 57.4159 35.8916C59.1667 34.9189 61.5012 32.7789 62.6684 31.3199C64.4193 28.9854 64.5165 28.4991 63.252 27.7209C60.5285 25.9701 53.0387 26.651 50.2179 28.7909L47.6889 30.7363V25.8728C47.6889 23.1493 48.3698 18.9667 49.2452 16.4377C51.0933 10.9906 50.5097 8.36428 46.6189 3.88988C43.02 -0.195442 42.1445 -0.292709 40.88 3.01446ZM46.2299 7.29432C48.7589 12.2551 47.4944 16.7295 44.2845 14.1032C42.6309 12.7414 42.2418 4.37623 43.7981 4.37623C44.2845 4.37623 45.3544 5.64073 46.2299 7.29432ZM41.2691 23.7329C42.2418 24.8028 42.7282 26.1646 42.3391 26.651C41.2691 28.5964 38.0592 27.8182 34.8493 24.8028L31.6394 21.982L35.6275 21.8848C38.351 21.8848 40.1019 22.4684 41.2691 23.7329ZM59.1667 29.569C61.0148 30.639 55.8595 34.7243 53.136 34.3353C50.3152 33.9462 50.607 31.4172 53.5251 29.9581C56.3459 28.4991 57.4159 28.4018 59.1667 29.569ZM41.6582 43.4786C45.6462 47.4666 38.8374 48.6339 34.363 44.7431L31.6394 42.4086L36.1138 42.3114C38.5456 42.3114 40.9773 42.7977 41.6582 43.4786ZM66.9483 44.8404L69.1855 45.5213L66.4619 48.3421C61.5012 53.5946 56.5404 55.2482 53.136 52.7192C50.607 50.8711 51.8715 47.7585 55.7623 45.8131C59.0694 44.2568 63.1548 43.8677 66.9483 44.8404ZM55.4705 61.7653C57.2213 63.4189 59.7503 64.9752 61.3066 65.3642C62.863 65.6561 64.9056 66.726 65.781 67.6987C67.4346 69.5468 66.9483 69.5468 45.7435 69.5468H23.9551L27.2623 67.1151C29.1104 65.7533 32.3203 64.3916 34.363 64.0025C36.5029 63.7107 39.3237 62.4462 40.6855 61.1817C44.479 57.5827 51.4824 57.8745 55.4705 61.7653ZM25.8033 75.6748C30.0831 82.4837 36.5029 84.4291 46.6189 82.0946C50.607 81.2192 51.0933 81.3165 53.6223 83.7482C55.9568 85.9854 56.9295 86.2772 60.3339 85.7909C62.5711 85.499 65.1002 84.6236 66.0729 83.7482C67.0455 82.8728 68.8937 82.1919 70.3527 82.1919C73.7571 82.1919 75.8971 79.7601 75.8971 75.7721V72.4649H83.2896H90.7793L90.0984 75.4803C89.8066 77.1339 89.5148 79.2738 89.5148 80.2465C89.5148 81.3165 88.0558 82.4837 85.1377 83.5537C82.7059 84.5264 79.8851 86.4717 78.8152 87.8335C75.3135 92.5997 74.8271 92.8915 72.0063 92.8915C66.9483 92.8915 66.1701 93.6697 66.1701 98.825C66.1701 103.202 65.781 103.98 62.2793 107.385C60.1394 109.427 58.3886 111.956 58.3886 113.124C58.3886 114.583 57.6104 115.458 55.7623 115.944C51.5797 117.014 39.8101 116.723 35.9193 115.361C32.9039 114.388 32.5149 113.902 32.9039 111.47C33.3903 108.066 30.6667 102.813 25.2196 96.296C22.9824 93.5724 20.0643 89.098 18.7998 86.2772C16.0763 80.441 14.6173 80.052 9.75377 83.6509C7.90565 85.0127 6.34934 86.0827 6.1548 86.0827C5.47391 86.0827 4.20941 81.6083 3.52852 77.0366L2.84763 72.4649H13.3527L23.8579 72.5622L25.8033 75.6748ZM72.979 75.8694C72.979 78.982 72.6872 79.2738 70.1582 79.2738C68.6991 79.2738 66.2674 80.1492 64.8083 81.3165C61.3066 84.1373 56.6377 84.04 54.4978 81.2192C52.8442 78.982 52.5524 78.982 45.1599 79.9547C40.3937 80.5383 36.5029 80.5383 35.0439 80.052C32.4176 79.0793 27.2623 74.6049 27.2623 73.2431C27.2623 72.854 37.5729 72.4649 50.1206 72.4649H72.979V75.8694ZM16.4654 87.639C17.1463 89.4871 19.6753 93.4752 22.0097 96.3932C28.0405 103.688 30.1804 107.482 30.1804 110.692V113.318L26.0951 111.275C20.9398 108.649 12.9637 100.576 9.36469 94.4478L6.54388 89.5844L9.85104 86.8608C14.0336 83.3591 14.9091 83.4564 16.4654 87.639ZM84.9431 92.5997C83.4841 95.6151 79.7879 100.673 76.8698 103.688C70.9363 109.719 61.3066 115.458 61.3066 112.832C61.3066 111.275 63.7384 108.649 66.7537 106.898C68.2128 106.023 68.5046 104.856 68.3101 100.868C68.1155 96.1014 68.3101 95.8096 70.45 95.8096C74.438 95.8096 78.5234 93.8642 79.5933 91.3352C80.8578 88.8062 86.8885 84.6236 87.3749 85.9854C87.5694 86.569 86.4995 89.4871 84.9431 92.5997Z" fill="#316D8F"/>
<path d="M40.88 3.01446C39.0319 7.87794 40.6855 16.1459 43.7981 17.2158C44.2845 17.3131 45.0626 19.0639 45.3544 20.9121L46.0353 24.3165L43.409 21.8848C41.1718 19.9394 39.7128 19.453 35.4329 19.5503C28.4295 19.5503 27.3596 20.7175 30.764 24.8028C34.1684 28.7909 38.4483 30.639 41.95 29.6663C43.409 29.18 44.8681 29.0827 45.1599 29.4718C45.4517 29.7636 45.7435 33.2653 45.7435 37.2533C45.7435 44.4513 45.7435 44.4513 43.8954 42.2141C42.5336 40.4632 40.9773 39.9769 36.4056 39.6851C28.7213 39.1987 27.2623 40.1714 30.0831 44.1595C33.1957 48.4393 37.3783 50.3847 42.0473 49.7038L45.7435 49.1202V53.011C45.7435 56.4154 45.4517 56.9018 43.5063 56.9018C42.2418 56.9018 40.1991 57.9718 38.9346 59.3335C37.6701 60.6953 35.6275 61.7653 34.363 61.7653C30.9585 61.7653 26.0951 64.0997 23.4688 67.0178C21.2316 69.4496 20.648 69.5468 11.0183 69.5468H0.999512V74.2158C0.999512 90.5571 11.7964 106.996 27.8459 114.972C35.3357 118.571 35.6275 118.668 46.6189 118.668C56.9295 118.668 58.3886 118.473 63.6411 116.042C72.2008 111.956 78.4261 106.996 83.095 100.284C88.9312 92.0161 91.5575 85.11 92.1411 76.7448L92.7247 69.5468H82.0251C72.2981 69.5468 71.1309 69.3523 69.4773 67.5042C68.5046 66.3369 65.6838 64.4888 63.252 63.4189C60.8203 62.3489 57.9022 60.4035 56.735 59.2363C55.3732 57.7772 53.5251 56.9018 51.5797 56.9018C49.537 56.9018 48.6616 56.5127 48.9534 55.6373C49.1479 55.0537 50.0234 54.6646 50.7043 54.8591C51.4824 55.0537 53.136 55.54 54.4978 55.8318C58.4858 56.9991 63.1548 55.1509 67.7264 50.5793C74.438 43.8677 73.2708 42.1168 62.0848 42.0196C55.5677 42.0196 52.066 43.8677 49.537 48.9257L47.8834 52.0383L47.7862 44.6458C47.6889 40.6578 47.8834 36.9615 48.1753 36.4752C48.4671 36.0861 49.9261 36.1834 51.4824 36.767C53.7196 37.5452 54.7896 37.4479 57.4159 35.8916C59.1667 34.9189 61.5012 32.7789 62.6684 31.3199C64.4193 28.9854 64.5165 28.4991 63.252 27.7209C60.5285 25.9701 53.0387 26.651 50.2179 28.7909L47.6889 30.7363V25.8728C47.6889 23.1493 48.3698 18.9667 49.2452 16.4377C51.0933 10.9906 50.5097 8.36428 46.6189 3.88988C43.02 -0.195442 42.1445 -0.292709 40.88 3.01446ZM46.2299 7.29432C48.7589 12.2551 47.4944 16.7295 44.2845 14.1032C42.6309 12.7414 42.2418 4.37623 43.7981 4.37623C44.2845 4.37623 45.3544 5.64073 46.2299 7.29432ZM41.2691 23.7329C42.2418 24.8028 42.7282 26.1646 42.3391 26.651C41.2691 28.5964 38.0592 27.8182 34.8493 24.8028L31.6394 21.982L35.6275 21.8848C38.351 21.8848 40.1019 22.4684 41.2691 23.7329ZM59.1667 29.569C61.0148 30.639 55.8595 34.7243 53.136 34.3353C50.3152 33.9462 50.607 31.4172 53.5251 29.9581C56.3459 28.4991 57.4159 28.4018 59.1667 29.569ZM41.6582 43.4786C45.6462 47.4666 38.8374 48.6339 34.363 44.7431L31.6394 42.4086L36.1138 42.3114C38.5456 42.3114 40.9773 42.7977 41.6582 43.4786ZM66.9483 44.8404L69.1855 45.5213L66.4619 48.3421C61.5012 53.5946 56.5404 55.2482 53.136 52.7192C50.607 50.8711 51.8715 47.7585 55.7623 45.8131C59.0694 44.2568 63.1548 43.8677 66.9483 44.8404ZM55.4705 61.7653C57.2213 63.4189 59.7503 64.9752 61.3066 65.3642C62.863 65.6561 64.9056 66.726 65.781 67.6987C67.4346 69.5468 66.9483 69.5468 45.7435 69.5468H23.9551L27.2623 67.1151C29.1104 65.7533 32.3203 64.3916 34.363 64.0025C36.5029 63.7107 39.3237 62.4462 40.6855 61.1817C44.479 57.5827 51.4824 57.8745 55.4705 61.7653ZM25.8033 75.6748C30.0831 82.4837 36.5029 84.4291 46.6189 82.0946C50.607 81.2192 51.0933 81.3165 53.6223 83.7482C55.9568 85.9854 56.9295 86.2772 60.3339 85.7909C62.5711 85.499 65.1002 84.6236 66.0729 83.7482C67.0455 82.8728 68.8937 82.1919 70.3527 82.1919C73.7571 82.1919 75.8971 79.7601 75.8971 75.7721V72.4649H83.2896H90.7793L90.0984 75.4803C89.8066 77.1339 89.5148 79.2738 89.5148 80.2465C89.5148 81.3165 88.0558 82.4837 85.1377 83.5537C82.7059 84.5264 79.8851 86.4717 78.8152 87.8335C75.3135 92.5997 74.8271 92.8915 72.0063 92.8915C66.9483 92.8915 66.1701 93.6697 66.1701 98.825C66.1701 103.202 65.781 103.98 62.2793 107.385C60.1394 109.427 58.3886 111.956 58.3886 113.124C58.3886 114.583 57.6104 115.458 55.7623 115.944C51.5797 117.014 39.8101 116.723 35.9193 115.361C32.9039 114.388 32.5149 113.902 32.9039 111.47C33.3903 108.066 30.6667 102.813 25.2196 96.296C22.9824 93.5724 20.0643 89.098 18.7998 86.2772C16.0763 80.441 14.6173 80.052 9.75377 83.6509C7.90565 85.0127 6.34934 86.0827 6.1548 86.0827C5.47391 86.0827 4.20941 81.6083 3.52852 77.0366L2.84763 72.4649H13.3527L23.8579 72.5622L25.8033 75.6748ZM72.979 75.8694C72.979 78.982 72.6872 79.2738 70.1582 79.2738C68.6991 79.2738 66.2674 80.1492 64.8083 81.3165C61.3066 84.1373 56.6377 84.04 54.4978 81.2192C52.8442 78.982 52.5524 78.982 45.1599 79.9547C40.3937 80.5383 36.5029 80.5383 35.0439 80.052C32.4176 79.0793 27.2623 74.6049 27.2623 73.2431C27.2623 72.854 37.5729 72.4649 50.1206 72.4649H72.979V75.8694ZM16.4654 87.639C17.1463 89.4871 19.6753 93.4752 22.0097 96.3932C28.0405 103.688 30.1804 107.482 30.1804 110.692V113.318L26.0951 111.275C20.9398 108.649 12.9637 100.576 9.36469 94.4478L6.54388 89.5844L9.85104 86.8608C14.0336 83.3591 14.9091 83.4564 16.4654 87.639ZM84.9431 92.5997C83.4841 95.6151 79.7879 100.673 76.8698 103.688C70.9363 109.719 61.3066 115.458 61.3066 112.832C61.3066 111.275 63.7384 108.649 66.7537 106.898C68.2128 106.023 68.5046 104.856 68.3101 100.868C68.1155 96.1014 68.3101 95.8096 70.45 95.8096C74.438 95.8096 78.5234 93.8642 79.5933 91.3352C80.8578 88.8062 86.8885 84.6236 87.3749 85.9854C87.5694 86.569 86.4995 89.4871 84.9431 92.5997Z" stroke="#316D8F" mask="url(#path-1-outside-1_4663_57639)"/>
</g>
</svg>
