<svg width="119" height="120" viewBox="0 0 119 120" fill="none" xmlns="http://www.w3.org/2000/svg">
<g id="Group 2080">
<path id="Vector" d="M41.9236 2.22715C21.0114 7.80372 5.97461 27.3217 5.97461 48.6322C5.97461 53.7108 6.17377 54.4079 7.96624 54.4079C9.65913 54.4079 9.95787 53.7108 9.95787 50.4246V46.4414H14.3395C18.3227 46.4414 19.1194 46.8397 21.9077 50.4246L25.0943 54.4079H32.8616H40.629L42.9194 57.9928L45.1102 61.6774L41.5252 64.5652C38.5378 66.9552 37.8407 68.2497 37.8407 70.9384C37.8407 73.6271 38.239 74.3242 39.8324 74.3242C41.2265 74.3242 41.824 73.6271 41.824 72.0338C41.824 70.6397 43.3177 68.5485 46.0064 66.2581L50.1888 62.6732L46.7035 56.7979L43.2181 50.9225L35.152 50.6238L26.9863 50.3251L23.8993 46.4414C20.9118 42.6573 20.4139 42.4581 15.4349 42.4581H10.157L11.352 37.6782C12.7462 32.7987 17.3269 23.0397 18.7211 22.1435C19.219 21.8447 20.8123 22.5418 22.5052 23.5376C24.7955 25.0313 25.4926 26.4255 25.8909 29.7117L26.3888 33.9937L31.8658 34.2924C36.7453 34.5912 37.8407 34.9895 41.5252 38.674L45.7077 42.7569L52.778 38.1761L59.7487 33.4958V27.3217V21.1477L65.9227 14.874L71.9972 8.69995L75.0842 10.2933C81.3579 13.3803 81.3579 13.5795 75.0842 19.0564L69.3085 24.2347L71.3997 29.2138L73.4909 34.1928L71.0014 37.3795C68.9102 40.0682 67.9144 40.4665 63.8315 40.4665C59.8483 40.4665 58.2549 41.064 54.3713 44.0514C51.3838 46.3418 49.8901 48.1343 50.1888 49.0305C50.4876 49.8271 52.5788 53.1133 54.7696 56.3995C58.4541 61.7769 59.1512 62.3744 62.2382 62.3744H65.7236V68.3493C65.7236 73.7267 65.9227 74.3242 67.7152 74.3242C69.6072 74.3242 69.8064 73.8263 69.5077 66.5569L69.2089 58.8891L65.0265 58.5903C61.2424 58.2916 60.4457 57.7937 57.5579 53.7108L54.4708 49.1301L57.3587 46.7401C59.5495 45.0472 61.5411 44.4497 65.4248 44.4497C70.1052 44.4497 70.7026 44.151 73.3913 40.6656C77.8725 34.9895 77.9721 34.7903 76.08 29.8112L74.2876 25.2305L79.2667 20.8489L84.1462 16.5669L86.9344 19.7535C90.5194 23.8364 95.1001 32.8983 96.0959 37.479C97.2909 43.6531 97.6893 44.4497 99.6809 44.4497C101.971 44.4497 101.971 44.3502 100.079 37.1803C93.4072 11.3887 66.9185 -4.5444 41.9236 2.22715ZM63.3336 5.71251C65.7236 6.31 67.7152 7.10665 67.7152 7.50497C67.7152 7.90331 65.0265 10.7912 61.7403 14.0774C55.865 19.9527 55.7654 20.0523 55.7654 25.7284C55.7654 31.305 55.6658 31.4046 51.3838 34.4916C48.8943 36.0849 46.5043 37.479 46.106 37.479C45.6081 37.479 43.716 35.8857 41.824 33.9937C39.0357 31.1058 37.7411 30.5083 34.1562 30.5083C29.9738 30.5083 29.8742 30.5083 29.8742 27.023C29.8742 24.0355 29.2767 23.2389 25.6918 20.9485L21.5093 18.2598L24.9947 15.3719C35.4508 6.50916 50.8859 2.62548 63.3336 5.71251Z" fill="#316D8F"/>
<path id="Vector_2" d="M105.556 38.3761C105.556 39.6707 106.253 40.4673 107.248 40.4673C108.344 40.4673 101.074 48.4338 89.1246 60.3836L69.2083 80.2999H64.528C60.4451 80.2999 59.748 80.5987 59.748 82.2916C59.748 83.9845 60.4451 84.2832 64.9263 84.2832H70.2041L90.8175 63.6698C103.265 51.2221 111.53 43.6539 111.53 44.7493C111.53 45.7451 112.327 46.4422 113.622 46.4422C115.414 46.4422 115.613 45.9443 115.315 41.6623L115.016 36.9819L110.335 36.6832C106.053 36.3845 105.556 36.5836 105.556 38.3761Z" fill="#316D8F"/>
<path id="Vector_3" d="M3.98326 60.0855L0.497908 61.878L0.199163 88.9642L0 116.05L2.6887 117.843C4.58075 119.137 7.07029 119.635 11.4519 119.436C17.4268 119.337 20.5138 119.237 31.8661 119.237C35.1523 119.237 39.6335 119.237 41.8243 119.237C48.6954 119.237 56.3632 119.137 88.1297 118.341L119 117.644V88.2671V58.8905H109.54H100.079L99.7808 68.5499L99.482 78.2093L91.8142 78.5081L84.1464 78.8068L83.8477 86.4746L83.549 94.1424L75.8812 94.4411L68.2134 94.7399L67.9146 104.499C67.7155 113.362 67.5163 114.158 65.7239 114.158C63.8318 114.158 63.7322 113.461 63.7322 103.204C63.7322 92.4495 63.7322 92.2504 61.0435 90.5575C59.0519 89.2629 56.3632 88.765 51.0854 88.765H43.9155L43.6167 85.2796C43.2184 80.3006 38.6377 78.0102 30.1732 78.6077L23.8996 79.1056V70.7407C23.8996 62.8738 23.8 62.3759 21.3105 60.683C17.4268 58.1934 8.26527 57.8947 3.98326 60.0855ZM16.7297 62.9734C20.0159 63.8696 19.4184 65.1642 15.4351 65.9608C9.26109 67.0562 1.29456 64.4671 6.77155 63.0729C9.36067 62.3759 14.1406 62.3759 16.7297 62.9734ZM115.515 88.2671V114.158H109.54H103.565V88.2671V62.3759H109.54H115.515V88.2671ZM19.7172 72.334C19.1197 77.6119 4.77992 77.6119 4.18243 72.334C3.88368 69.8445 3.98326 69.8445 11.9498 69.8445C19.9163 69.8445 20.0159 69.8445 19.7172 72.334ZM19.7172 82.2922C19.1197 87.57 4.77992 87.57 4.18243 82.2922C3.88368 79.8027 3.98326 79.8027 11.9498 79.8027C19.9163 79.8027 20.0159 79.8027 19.7172 82.2922ZM36.646 82.8897C39.9322 83.7859 39.3347 85.0805 35.3515 85.8771C29.1774 86.9725 21.2109 84.3834 26.6879 82.9893C29.277 82.2922 34.0569 82.2922 36.646 82.8897ZM99.5816 98.2252V114.158H93.6067H87.6318V98.2252V82.2922H93.6067H99.5816V98.2252ZM19.7172 92.2504C19.1197 97.5282 4.77992 97.5282 4.18243 92.2504C3.88368 89.7608 3.98326 89.7608 11.9498 89.7608C19.9163 89.7608 20.0159 89.7608 19.7172 92.2504ZM39.6335 92.2504C39.036 97.5282 24.6962 97.5282 24.0987 92.2504C23.8 89.7608 23.8996 89.7608 31.8661 89.7608C39.8326 89.7608 39.9322 89.7608 39.6335 92.2504ZM56.5623 92.8478C59.8485 93.7441 59.251 95.0386 55.2678 95.8353C49.0937 96.9307 41.1272 94.3416 46.6042 92.9474C49.1933 92.2504 53.9732 92.2504 56.5623 92.8478ZM83.6485 106.192V114.158H77.6736H71.6987V106.192V98.2252H77.6736H83.6485V106.192ZM19.7172 102.209C19.1197 107.486 4.77992 107.486 4.18243 102.209C3.88368 99.719 3.98326 99.719 11.9498 99.719C19.9163 99.719 20.0159 99.719 19.7172 102.209ZM39.6335 102.209C39.036 107.486 24.6962 107.486 24.0987 102.209C23.8 99.719 23.8996 99.719 31.8661 99.719C39.8326 99.719 39.9322 99.719 39.6335 102.209ZM59.5498 102.209C58.9523 107.486 44.6126 107.486 44.0151 102.209C43.7163 99.719 43.8159 99.719 51.7824 99.719C59.749 99.719 59.8485 99.719 59.5498 102.209ZM19.7172 112.167C19.1197 117.444 4.77992 117.444 4.18243 112.167C3.88368 109.677 3.98326 109.677 11.9498 109.677C19.9163 109.677 20.0159 109.677 19.7172 112.167ZM39.6335 112.167C39.036 117.444 24.6962 117.444 24.0987 112.167C23.8 109.677 23.8996 109.677 31.8661 109.677C39.8326 109.677 39.9322 109.677 39.6335 112.167ZM59.5498 112.167C58.9523 117.444 44.6126 117.444 44.0151 112.167C43.7163 109.677 43.8159 109.677 51.7824 109.677C59.749 109.677 59.8485 109.677 59.5498 112.167Z" fill="#316D8F"/>
<path id="Vector_4" d="M51.7832 82.2916C51.7832 83.5861 52.4803 84.2832 53.7748 84.2832C55.0694 84.2832 55.7665 83.5861 55.7665 82.2916C55.7665 80.997 55.0694 80.2999 53.7748 80.2999C52.4803 80.2999 51.7832 80.997 51.7832 82.2916Z" fill="#316D8F"/>
</g>
</svg>
