<svg width="33" height="32" viewBox="0 0 33 32" fill="none" xmlns="http://www.w3.org/2000/svg">
<circle cx="16.6665" cy="16.0002" r="12" stroke="#667F93" stroke-width="2.6547" stroke-linecap="round" stroke-linejoin="round"/>
<path d="M17.9999 4.06445C17.5359 4.45498 17.1179 4.91584 16.7622 5.44385C14.7052 8.49752 15.5131 12.6406 18.5667 14.6976C18.8078 14.86 19.0556 15.0045 19.3087 15.1315C21.9999 16.4819 23.0274 14.6619 24.4845 15.6434C25.4297 16.2801 25.6798 17.5625 25.0431 18.5077C24.3758 19.4982 23.3333 20.0003 23.5137 21.6227C23.6155 22.5384 24.178 23.3275 24.907 24.0003" stroke="#667F93" stroke-width="2.6547" stroke-linecap="round" stroke-linejoin="round"/>
<path d="M5.99976 12.3733C7.44226 12.7243 8.77709 13.557 9.7411 14.8345C10.7687 16.1962 11.1946 17.8244 11.0636 19.4004C10.9941 20.2351 11.5385 21.0776 12.239 21.5368C12.5774 21.7586 12.8841 22.0416 13.1418 22.3831C14.2832 23.8956 14.0554 26.0146 12.6664 27.2542" stroke="#667F93" stroke-width="2.6547" stroke-linecap="round" stroke-linejoin="round"/>
</svg>
