<svg width="64" height="64" viewBox="0 0 64 64" fill="none" xmlns="http://www.w3.org/2000/svg">
    <g filter="url(#filter0_b_6825_43342)">
        <rect width="64" height="64" rx="20" fill="#009E73" fill-opacity="0.25"/>
        <rect x="0.9" y="0.9" width="62.2" height="62.2" rx="19.1" stroke="#D9E1E7" stroke-width="1.8"/>
        <path d="M21.3335 27.9998V39.9998C21.3335 41.4725 22.5274 42.6664 24.0002 42.6664H29.3335M21.3335 27.9998V23.9998C21.3335 22.527 22.5274 21.3331 24.0002 21.3331H40.0002C41.4729 21.3331 42.6668 22.527 42.6668 23.9998V27.9998M21.3335 27.9998H29.3335M42.6668 27.9998V39.9998C42.6668 41.4725 41.4729 42.6664 40.0002 42.6664H29.3335M42.6668 27.9998H29.3335M29.3335 27.9998V42.6664" stroke="#33404A" stroke-width="1.75232" stroke-linecap="round" stroke-linejoin="round"/>
    </g>
    <defs>
        <filter id="filter0_b_6825_43342" x="-20" y="-20" width="104" height="104" filterUnits="userSpaceOnUse" color-interpolation-filters="sRGB">
            <feFlood flood-opacity="0" result="BackgroundImageFix"/>
            <feGaussianBlur in="BackgroundImageFix" stdDeviation="10"/>
            <feComposite in2="SourceAlpha" operator="in" result="effect1_backgroundBlur_6825_43342"/>
            <feBlend mode="normal" in="SourceGraphic" in2="effect1_backgroundBlur_6825_43342" result="shape"/>
        </filter>
    </defs>
</svg>
