<svg width="32" height="32" viewBox="0 0 32 32" fill="none" xmlns="http://www.w3.org/2000/svg">
<g id="parking">
<path id="Vector" d="M16 0C7.17395 0 0 7.17395 0 16C0 24.826 7.17395 32 16 32C24.826 32 32 24.826 32 16C32 7.17395 24.826 0 16 0ZM16 29.7674C8.4093 29.7674 2.23256 23.5907 2.23256 16C2.23256 8.4093 8.4093 2.23256 16 2.23256C23.5907 2.23256 29.7674 8.4093 29.7674 16C29.7674 23.5907 23.5907 29.7674 16 29.7674Z" fill="#667F93"/>
<path id="Vector_2" d="M18.2326 6.69727H12.2791C11.6614 6.69727 11.1628 7.19587 11.1628 7.81354V16.7438V25.674C11.1628 26.2917 11.6614 26.7903 12.2791 26.7903C12.8968 26.7903 13.3954 26.2917 13.3954 25.674V17.8601H18.2326C21.3135 17.8601 23.814 15.3596 23.814 12.2787C23.814 9.19773 21.3135 6.69727 18.2326 6.69727ZM18.2326 15.6275H13.3954V8.92982H18.2326C20.0782 8.92982 21.5814 10.4331 21.5814 12.2787C21.5814 14.1242 20.0782 15.6275 18.2326 15.6275Z" fill="#667F93"/>
</g>
</svg>
