<svg width="32" height="32" viewBox="0 0 32 32" fill="none" xmlns="http://www.w3.org/2000/svg">
<g id="Shield Lock">
<path id="Rectangle 13" d="M13.3333 28.0004L9.58349 25.3219C6.07954 22.8191 4 18.7781 4 14.4721L4 7.67276C4 7.07745 4.39464 6.55427 4.96704 6.39073L12.967 4.10501C13.2064 4.03661 13.4602 4.03661 13.6996 4.10501L21.6996 6.39073C22.272 6.55427 22.6667 7.07745 22.6667 7.67276V10.0004M25.3333 20.0004V17.3337C25.3333 15.8609 24.1394 14.667 22.6667 14.667C21.1939 14.667 20 15.8609 20 17.3337V20.0004M25.3333 20.0004H20M25.3333 20.0004C26.8061 20.0004 28 21.1943 28 22.667V25.3337C28 26.8064 26.8061 28.0004 25.3333 28.0004H20C18.5272 28.0004 17.3333 26.8064 17.3333 25.3337V22.667C17.3333 21.1943 18.5272 20.0004 20 20.0004" stroke="#667F93" stroke-width="2.66667" stroke-linecap="round" stroke-linejoin="round"/>
</g>
</svg>
