<svg width="32" height="32" viewBox="0 0 32 32" fill="none" xmlns="http://www.w3.org/2000/svg">
<path d="M5.33325 26.6663H26.6666M7.99992 21.333H11.9999C12.7363 21.333 13.3333 20.7361 13.3333 19.9997V11.9997C13.3333 11.2633 12.7363 10.6663 11.9999 10.6663H7.99992C7.26354 10.6663 6.66659 11.2633 6.66659 11.9997V19.9997C6.66659 20.7361 7.26354 21.333 7.99992 21.333ZM19.9999 21.333H23.9999C24.7363 21.333 25.3333 20.7361 25.3333 19.9997V6.66634C25.3333 5.92996 24.7363 5.33301 23.9999 5.33301H19.9999C19.2635 5.33301 18.6666 5.92996 18.6666 6.66634V19.9997C18.6666 20.7361 19.2635 21.333 19.9999 21.333Z" stroke="#33404A" stroke-width="2.66667" stroke-linecap="round" stroke-linejoin="round"/>
</svg>
