<svg width="24" height="26" viewBox="0 0 24 26" fill="none" xmlns="http://www.w3.org/2000/svg">
<g id="Traffic">
<path id="Vector" d="M7.51246 1.01485C7.24285 0.948124 6.97019 1.11253 6.90343 1.38213L1.20969 24.3761C1.14293 24.6457 1.30735 24.9184 1.57696 24.9851C1.61756 24.9952 1.65821 25 1.69823 25C1.924 25 2.12929 24.8469 2.18599 24.6179L7.87973 1.62389C7.94649 1.35429 7.78207 1.08161 7.51246 1.01485Z" fill="#667F93" stroke="#667F93" stroke-width="0.5"/>
<path id="Vector_2" d="M22.7904 24.3761L17.0966 1.38213C17.0299 1.11253 16.7572 0.948125 16.4876 1.01485C16.218 1.08161 16.0536 1.35428 16.1203 1.62389L21.8141 24.6179C21.8708 24.8469 22.076 25 22.3018 25C22.3418 25 22.3825 24.9952 22.4231 24.9851C22.6927 24.9184 22.8571 24.6457 22.7904 24.3761Z" fill="#667F93" stroke="#667F93" stroke-width="0.5"/>
<path id="Vector_3" d="M12.0974 1.99316C11.8196 1.99316 11.5945 2.21832 11.5945 2.49607V5.69349C11.5945 5.97123 11.8196 6.19639 12.0974 6.19639C12.3751 6.19639 12.6003 5.97123 12.6003 5.69349V2.49607C12.6003 2.21833 12.3751 1.99316 12.0974 1.99316Z" fill="#667F93" stroke="#667F93" stroke-width="0.5"/>
<path id="Vector_4" d="M12.0974 7.92871C11.8196 7.92871 11.5945 8.15387 11.5945 8.43161V11.629C11.5945 11.9068 11.8196 12.1319 12.0974 12.1319C12.3751 12.1319 12.6003 11.9068 12.6003 11.629V8.43161C12.6003 8.15387 12.3751 7.92871 12.0974 7.92871Z" fill="#667F93" stroke="#667F93" stroke-width="0.5"/>
<path id="Vector_5" d="M12.0974 13.8652C11.8196 13.8652 11.5945 14.0904 11.5945 14.3681V17.5656C11.5945 17.8433 11.8196 18.0685 12.0974 18.0685C12.3751 18.0685 12.6003 17.8433 12.6003 17.5656V14.3681C12.6003 14.0904 12.3751 13.8652 12.0974 13.8652Z" fill="#667F93" stroke="#667F93" stroke-width="0.5"/>
<path id="Vector_6" d="M12.0974 19.8027C11.8196 19.8027 11.5945 20.0279 11.5945 20.3056V23.5031C11.5945 23.7808 11.8196 24.006 12.0974 24.006C12.3751 24.006 12.6003 23.7808 12.6003 23.5031V20.3056C12.6003 20.0279 12.3751 19.8027 12.0974 19.8027Z" fill="#667F93" stroke="#667F93" stroke-width="0.5"/>
</g>
</svg>
