<svg width="24" height="34" viewBox="0 0 24 34" fill="none" xmlns="http://www.w3.org/2000/svg">
<path id="Tree" d="M11.2483 22.959C10.9563 23.107 10.6534 23.2344 10.3417 23.3422C9.5959 23.599 8.79614 23.7381 7.966 23.7381C5.948 23.7381 4.12208 22.9207 2.79994 21.5986C1.4778 20.2764 0.6604 18.4496 0.6604 16.4325C0.6604 15.2025 0.966189 14.0421 1.50622 13.0218C1.99038 12.1064 2.66371 11.3066 3.47228 10.6735C3.45954 10.5735 3.44876 10.4736 3.43994 10.3726C3.41544 10.0953 3.40172 9.83651 3.40172 9.59737C3.40172 7.22358 4.36417 5.07424 5.92055 3.51786C7.47596 1.96245 9.6253 1 12.0001 1C14.3738 1 16.5232 1.96245 18.0796 3.51786C19.635 5.07326 20.5984 7.22358 20.5984 9.59737C20.5984 10.1207 20.5494 10.6421 20.4543 11.1567C20.3995 11.4546 20.3308 11.7447 20.2475 12.028C21.0914 12.5278 21.8088 13.2188 22.3391 14.0421C22.9722 15.0241 23.3397 16.1924 23.3397 17.445C23.3397 19.1307 22.6752 20.6616 21.5952 21.7917C20.5092 22.9266 19.0018 23.6568 17.3259 23.7303C16.9133 23.7479 16.5644 23.4284 16.5467 23.0148C16.5291 22.6022 16.8486 22.2533 17.2612 22.2357C18.5383 22.1798 19.685 21.6241 20.5112 20.7606C21.3345 19.9001 21.8402 18.7318 21.8402 17.445C21.8402 16.4874 21.5609 15.5965 21.0796 14.8507C20.5857 14.0852 19.881 13.4697 19.0459 13.0865C18.6735 12.9316 18.4893 12.5073 18.6343 12.128C18.7882 11.7242 18.9058 11.3096 18.9832 10.8862C19.0587 10.4765 19.0979 10.0462 19.0979 9.59639C19.0979 7.6362 18.303 5.86224 17.0191 4.57832C15.7352 3.29341 13.9602 2.49954 12.0001 2.49954C10.0399 2.49954 8.26493 3.29439 6.98101 4.57832C5.69709 5.86224 4.90224 7.63718 4.90224 9.59639C4.90224 9.83651 4.91106 10.0521 4.92772 10.2423C4.94536 10.4383 4.97182 10.6353 5.00613 10.8313C5.07767 11.1253 4.96594 11.4468 4.70132 11.6271C3.91921 12.1603 3.27431 12.8777 2.83032 13.7177C2.403 14.5253 2.16092 15.4485 2.16092 16.4306C2.16092 18.034 2.81072 19.4855 3.86138 20.5362C4.91204 21.5868 6.36356 22.2366 7.96699 22.2366C8.62953 22.2366 9.26561 22.1259 9.8566 21.923C10.3574 21.7505 10.8259 21.5143 11.2503 21.2232V20.0834L6.44392 15.277C6.15088 14.984 6.15088 14.5096 6.44392 14.2165C6.73697 13.9235 7.21133 13.9235 7.50438 14.2165L11.2503 17.9625V14.3704L9.19994 12.3201C8.90689 12.027 8.90689 11.5526 9.19994 11.2596C9.49299 10.9666 9.96735 10.9666 10.2604 11.2596L11.2493 12.2485V8.30953C11.2493 7.89495 11.5855 7.55975 11.9991 7.55975C12.4137 7.55975 12.7489 7.89593 12.7489 8.30953V31.5005H18.0678C18.4814 31.5005 18.8176 31.8366 18.8176 32.2502C18.8176 32.6648 18.4814 33 18.0678 33H11.9991H5.93035C5.51578 33 5.18058 32.6638 5.18058 32.2502C5.18058 31.8366 5.51676 31.5005 5.93035 31.5005H11.2493V22.958L11.2483 22.959Z" fill="#667F93" stroke="#667F93" stroke-width="0.5"/>
</svg>
