<svg width="49" height="49" viewBox="0 0 49 49" fill="none" xmlns="http://www.w3.org/2000/svg">
<g id="User Group">
<path id="Vector 1" d="M6.50049 38.6682V36.6682C6.50049 32.2499 10.0822 28.6682 14.5005 28.6682H22.5005C26.9188 28.6682 30.5005 32.2499 30.5005 36.6682V38.6682M30.5005 22.6682C33.8142 22.6682 36.5005 19.9819 36.5005 16.6682C36.5005 13.3545 33.8142 10.6682 30.5005 10.6682M42.5005 38.6682V36.6682C42.5005 32.2499 38.9188 28.6682 34.5005 28.6682H33.5005M24.5005 16.6682C24.5005 19.9819 21.8142 22.6682 18.5005 22.6682C15.1868 22.6682 12.5005 19.9819 12.5005 16.6682C12.5005 13.3545 15.1868 10.6682 18.5005 10.6682C21.8142 10.6682 24.5005 13.3545 24.5005 16.6682Z" stroke="black" stroke-width="2.1567" stroke-linecap="round" stroke-linejoin="round"/>
</g>
</svg>
