<svg width="36" height="26" viewBox="0 0 36 26" fill="none" xmlns="http://www.w3.org/2000/svg">
<path d="M24.4172 11.4913L24.3679 11.4042L24.4172 11.4913C25.3387 10.9702 26.4076 10.6722 27.5495 10.6722C29.3103 10.6722 30.9047 11.3861 32.058 12.5394C33.2108 13.6922 33.9247 15.2867 33.9247 17.0474C33.9247 18.8091 33.2113 20.4039 32.0593 21.5572C30.906 22.7092 29.3112 23.4226 27.5495 23.4226H18.0253H12.9289C12.0451 23.4226 11.2443 23.0641 10.6658 22.4856C10.0872 21.907 9.72873 21.1067 9.72873 20.2225C9.72873 19.4113 10.0302 18.6706 10.5258 18.1078C11.0192 17.5476 11.7032 17.1604 12.4706 17.0515C12.7919 17.0316 13.0875 16.8258 13.2054 16.5039C13.5719 15.5121 14.2384 14.6629 15.094 14.067C15.9238 13.4891 16.9344 13.1495 18.0253 13.1495C18.5562 13.1495 19.0618 13.227 19.5306 13.3702L19.5307 13.3702C20.0127 13.5168 20.4694 13.7378 20.8868 14.0186L20.8881 14.0195L20.9304 14.047L20.9304 14.047L20.9333 14.0487C21.3295 14.2874 21.8444 14.1597 22.0831 13.7635C22.6521 12.8193 23.458 12.0335 24.4172 11.4913ZM8.37647 18.4698C8.01608 18.0438 7.70725 17.5745 7.46057 17.0706C7.02152 16.1736 6.77435 15.1591 6.77435 14.0817C6.77435 12.2023 7.53621 10.5002 8.76712 9.26929C9.99803 8.03837 11.7002 7.27651 13.5795 7.27651C15.318 7.27651 16.9041 7.92838 18.1057 8.99937C18.94 9.74304 19.5905 10.6891 19.9793 11.76C19.3541 11.5726 18.6976 11.4721 18.0253 11.4721C16.5813 11.4721 15.2401 11.9231 14.1372 12.6914C13.1352 13.3892 12.3292 14.3509 11.8186 15.4753C10.8117 15.7097 9.92604 16.254 9.26809 17.0005L9.26807 17.0005C8.8898 17.4299 8.58609 17.9265 8.37647 18.4698ZM5.95963 17.8048L6.04946 17.7608L5.95964 17.8048C6.47171 18.8512 7.19037 19.7749 8.06042 20.5215C8.13489 21.7487 8.66379 22.8544 9.4804 23.671C10.3627 24.5532 11.5831 25.1001 12.9289 25.1001H19.8982H27.5495C29.7706 25.1001 31.7838 24.1978 33.2434 22.7387L33.1727 22.6679L33.2434 22.7386C34.6999 21.2817 35.6021 19.2685 35.6021 17.0474C35.6021 14.8246 34.6999 12.8106 33.2434 11.354C31.7864 9.897 29.7723 8.99479 27.5495 8.99479C26.1149 8.99479 24.7628 9.37323 23.5913 10.036C22.8773 10.44 22.2309 10.9503 21.6736 11.5444C21.2094 10.0628 20.3508 8.75528 19.2199 7.74767C17.7214 6.41202 15.7448 5.5991 13.5795 5.5991C11.2381 5.5991 9.11638 6.54927 7.58174 8.08391C6.04711 9.61855 5.09694 11.7403 5.09694 14.0817C5.09694 15.4122 5.40763 16.6765 5.95963 17.8048ZM22.9002 4.76105C22.5729 4.43375 22.0421 4.43375 21.7148 4.76105L20.3547 6.12115C20.0274 6.44845 20.0274 6.97923 20.3547 7.30653C20.682 7.63382 21.2128 7.63382 21.5401 7.30653L22.9002 5.94642C23.2275 5.61913 23.2275 5.08834 22.9002 4.76105ZM6.80436 20.8569C6.47707 20.5296 5.94628 20.5296 5.61899 20.8569L4.25888 22.217C3.93159 22.5443 3.93159 23.0751 4.25888 23.4024C4.58618 23.7296 5.11696 23.7296 5.44426 23.4024L6.80436 22.0422C7.13166 21.715 7.13166 21.1842 6.80436 20.8569ZM6.80436 7.30653C7.13166 6.97923 7.13166 6.44845 6.80436 6.12115L5.44426 4.76105C5.11696 4.43375 4.58618 4.43375 4.25888 4.76105C3.93159 5.08834 3.93159 5.61913 4.25888 5.94642L5.61899 7.30653C5.94628 7.63382 6.47707 7.63382 6.80436 7.30653ZM3.99832 14.0817C3.99832 13.6187 3.62257 13.243 3.15961 13.243H1.23654C0.773583 13.243 0.397833 13.6187 0.397833 14.0817C0.397833 14.5447 0.773583 14.9204 1.23654 14.9204H3.15961C3.62257 14.9204 3.99832 14.5447 3.99832 14.0817ZM13.5795 4.50048C14.0425 4.50048 14.4182 4.12473 14.4182 3.66178V1.7387C14.4182 1.27575 14.0425 0.9 13.5795 0.9C13.1166 0.9 12.7408 1.27575 12.7408 1.7387V3.66178C12.7408 4.12473 13.1166 4.50048 13.5795 4.50048Z" fill="#667F93" stroke="#667F93" stroke-width="0.2"/>
</svg>
