<svg width="86" height="32" viewBox="0 0 86 32" fill="none" xmlns="http://www.w3.org/2000/svg">
<g clip-path="url(#clip0_472_80253)">
<path d="M42.152 29.196C41.5267 29.196 41.046 29.0887 40.71 28.874C40.374 28.6593 40.1267 28.4213 39.968 28.16H39.716V29H37.98V19.2H39.744V22.854H39.996C40.0987 22.686 40.234 22.5273 40.402 22.378C40.5793 22.2287 40.808 22.1073 41.088 22.014C41.3773 21.9113 41.732 21.86 42.152 21.86C42.712 21.86 43.23 22 43.706 22.28C44.182 22.5507 44.5647 22.952 44.854 23.484C45.1433 24.016 45.288 24.66 45.288 25.416V25.64C45.288 26.396 45.1433 27.04 44.854 27.572C44.5647 28.104 44.182 28.51 43.706 28.79C43.23 29.0607 42.712 29.196 42.152 29.196ZM41.62 27.656C42.1613 27.656 42.614 27.4833 42.978 27.138C43.342 26.7833 43.524 26.27 43.524 25.598V25.458C43.524 24.786 43.342 24.2773 42.978 23.932C42.6233 23.5773 42.1707 23.4 41.62 23.4C41.0787 23.4 40.626 23.5773 40.262 23.932C39.898 24.2773 39.716 24.786 39.716 25.458V25.598C39.716 26.27 39.898 26.7833 40.262 27.138C40.626 27.4833 41.0787 27.656 41.62 27.656ZM47.6637 31.8V30.26H51.4437C51.7051 30.26 51.8357 30.12 51.8357 29.84V28.09H51.5837C51.5091 28.2487 51.3924 28.4073 51.2337 28.566C51.0751 28.7247 50.8604 28.8553 50.5897 28.958C50.3191 29.0607 49.9737 29.112 49.5537 29.112C49.0124 29.112 48.5364 28.9907 48.1257 28.748C47.7244 28.496 47.4117 28.1507 47.1877 27.712C46.9637 27.2733 46.8517 26.7693 46.8517 26.2V22.056H48.6157V26.06C48.6157 26.5827 48.7417 26.9747 48.9937 27.236C49.2551 27.4973 49.6237 27.628 50.0997 27.628C50.6411 27.628 51.0611 27.4507 51.3597 27.096C51.6584 26.732 51.8077 26.228 51.8077 25.584V22.056H53.5717V30.232C53.5717 30.708 53.4317 31.086 53.1517 31.366C52.8717 31.6553 52.4984 31.8 52.0317 31.8H47.6637ZM58.3347 29.196C57.784 29.196 57.266 29.0607 56.7807 28.79C56.3047 28.51 55.922 28.104 55.6327 27.572C55.3434 27.04 55.1987 26.396 55.1987 25.64V25.416C55.1987 24.66 55.3434 24.016 55.6327 23.484C55.922 22.952 56.3047 22.5507 56.7807 22.28C57.2567 22 57.7747 21.86 58.3347 21.86C58.7547 21.86 59.1047 21.9113 59.3847 22.014C59.674 22.1073 59.9074 22.2287 60.0847 22.378C60.262 22.5273 60.3974 22.686 60.4907 22.854H60.7427V19.2H62.5067V29H60.7707V28.16H60.5187C60.36 28.4213 60.1127 28.6593 59.7767 28.874C59.45 29.0887 58.9694 29.196 58.3347 29.196ZM58.8667 27.656C59.408 27.656 59.8607 27.4833 60.2247 27.138C60.5887 26.7833 60.7707 26.27 60.7707 25.598V25.458C60.7707 24.786 60.5887 24.2773 60.2247 23.932C59.87 23.5773 59.4174 23.4 58.8667 23.4C58.3254 23.4 57.8727 23.5773 57.5087 23.932C57.1447 24.2773 56.9627 24.786 56.9627 25.458V25.598C56.9627 26.27 57.1447 26.7833 57.5087 27.138C57.8727 27.4833 58.3254 27.656 58.8667 27.656ZM66.6184 29.196C66.1238 29.196 65.6804 29.112 65.2884 28.944C64.8964 28.7667 64.5838 28.5147 64.3504 28.188C64.1264 27.852 64.0144 27.446 64.0144 26.97C64.0144 26.494 64.1264 26.0973 64.3504 25.78C64.5838 25.4533 64.9011 25.2107 65.3024 25.052C65.7131 24.884 66.1798 24.8 66.7024 24.8H68.6064V24.408C68.6064 24.0813 68.5038 23.8153 68.2984 23.61C68.0931 23.3953 67.7664 23.288 67.3184 23.288C66.8798 23.288 66.5531 23.3907 66.3384 23.596C66.1238 23.792 65.9838 24.0487 65.9184 24.366L64.2944 23.82C64.4064 23.4653 64.5838 23.1433 64.8264 22.854C65.0784 22.5553 65.4098 22.3173 65.8204 22.14C66.2404 21.9533 66.7491 21.86 67.3464 21.86C68.2611 21.86 68.9844 22.0887 69.5164 22.546C70.0484 23.0033 70.3144 23.666 70.3144 24.534V27.124C70.3144 27.404 70.4451 27.544 70.7064 27.544H71.2664V29H70.0904C69.7451 29 69.4604 28.916 69.2364 28.748C69.0124 28.58 68.9004 28.356 68.9004 28.076V28.062H68.6344C68.5971 28.174 68.5131 28.3233 68.3824 28.51C68.2518 28.6873 68.0464 28.846 67.7664 28.986C67.4864 29.126 67.1038 29.196 66.6184 29.196ZM66.9264 27.768C67.4211 27.768 67.8224 27.6327 68.1304 27.362C68.4478 27.082 68.6064 26.7133 68.6064 26.256V26.116H66.8284C66.5018 26.116 66.2451 26.186 66.0584 26.326C65.8718 26.466 65.7784 26.662 65.7784 26.914C65.7784 27.166 65.8764 27.3713 66.0724 27.53C66.2684 27.6887 66.5531 27.768 66.9264 27.768ZM74.7103 29C74.253 29 73.8796 28.86 73.5903 28.58C73.3103 28.2907 73.1703 27.908 73.1703 27.432V23.512H71.4343V22.056H73.1703V19.9H74.9343V22.056H76.8383V23.512H74.9343V27.124C74.9343 27.404 75.065 27.544 75.3263 27.544H76.6703V29H74.7103ZM80.5911 29.196C80.0964 29.196 79.6531 29.112 79.2611 28.944C78.8691 28.7667 78.5564 28.5147 78.3231 28.188C78.0991 27.852 77.9871 27.446 77.9871 26.97C77.9871 26.494 78.0991 26.0973 78.3231 25.78C78.5564 25.4533 78.8737 25.2107 79.2751 25.052C79.6857 24.884 80.1524 24.8 80.6751 24.8H82.5791V24.408C82.5791 24.0813 82.4764 23.8153 82.2711 23.61C82.0657 23.3953 81.7391 23.288 81.2911 23.288C80.8524 23.288 80.5257 23.3907 80.3111 23.596C80.0964 23.792 79.9564 24.0487 79.8911 24.366L78.2671 23.82C78.3791 23.4653 78.5564 23.1433 78.7991 22.854C79.0511 22.5553 79.3824 22.3173 79.7931 22.14C80.2131 21.9533 80.7217 21.86 81.3191 21.86C82.2337 21.86 82.9571 22.0887 83.4891 22.546C84.0211 23.0033 84.2871 23.666 84.2871 24.534V27.124C84.2871 27.404 84.4177 27.544 84.6791 27.544H85.2391V29H84.0631C83.7177 29 83.4331 28.916 83.2091 28.748C82.9851 28.58 82.8731 28.356 82.8731 28.076V28.062H82.6071C82.5697 28.174 82.4857 28.3233 82.3551 28.51C82.2244 28.6873 82.0191 28.846 81.7391 28.986C81.4591 29.126 81.0764 29.196 80.5911 29.196ZM80.8991 27.768C81.3937 27.768 81.7951 27.6327 82.1031 27.362C82.4204 27.082 82.5791 26.7133 82.5791 26.256V26.116H80.8011C80.4744 26.116 80.2177 26.186 80.0311 26.326C79.8444 26.466 79.7511 26.662 79.7511 26.914C79.7511 27.166 79.8491 27.3713 80.0451 27.53C80.2411 27.6887 80.5257 27.768 80.8991 27.768Z" fill="#003F6F"/>
<path d="M40.64 13C40.1827 13 39.8093 12.86 39.52 12.58C39.24 12.2907 39.1 11.908 39.1 11.432V7.512H37.364V6.056H39.1V3.9H40.864V6.056H42.768V7.512H40.864V11.124C40.864 11.404 40.9947 11.544 41.256 11.544H42.6V13H40.64ZM44.9248 13L43.9448 6.056H45.6948L46.3108 11.81H46.5628L47.4588 6.056H50.2868L51.1828 11.81H51.4348L52.0508 6.056H53.8008L52.8208 13H49.8948L48.9988 7.246H48.7468L47.8508 13H44.9248ZM55.3433 13V6.056H57.1073V13H55.3433ZM56.2253 5.244C55.9079 5.244 55.6373 5.14133 55.4133 4.936C55.1986 4.73067 55.0913 4.46 55.0913 4.124C55.0913 3.788 55.1986 3.51733 55.4133 3.312C55.6373 3.10667 55.9079 3.004 56.2253 3.004C56.5519 3.004 56.8226 3.10667 57.0373 3.312C57.2519 3.51733 57.3593 3.788 57.3593 4.124C57.3593 4.46 57.2519 4.73067 57.0373 4.936C56.8226 5.14133 56.5519 5.244 56.2253 5.244ZM59.062 13V6.056H60.798V6.966H61.05C61.162 6.72333 61.372 6.49467 61.68 6.28C61.988 6.056 62.4547 5.944 63.08 5.944C63.6214 5.944 64.0927 6.07 64.494 6.322C64.9047 6.56467 65.222 6.90533 65.446 7.344C65.67 7.77333 65.782 8.27733 65.782 8.856V13H64.018V8.996C64.018 8.47333 63.8874 8.08133 63.626 7.82C63.374 7.55867 63.01 7.428 62.534 7.428C61.9927 7.428 61.5727 7.61 61.274 7.974C60.9754 8.32867 60.826 8.828 60.826 9.472V13H59.062Z" fill="#0196D8"/>
<path d="M0 24L14 16V0L0 8V24Z" fill="#009FE3"/>
<path d="M14 32L28 24L14 16L0 24L14 32Z" fill="#015184"/>
</g>
<defs>
<clipPath id="clip0_472_80253">
<rect width="86" height="32" fill="white"/>
</clipPath>
</defs>
</svg>
