<svg width="64" height="64" viewBox="0 0 64 64" fill="none" xmlns="http://www.w3.org/2000/svg">
<g clip-path="url(#clip0_862_619499)">
<path d="M24.8812 31.9923C24.0412 31.9923 23.4392 31.7683 23.0752 31.3203C22.7112 30.8723 22.4832 30.3123 22.3892 29.6403H22.2492C21.9312 30.5363 21.4093 31.2083 20.6812 31.6563C19.9532 32.1043 19.0852 32.3283 18.0772 32.3283C16.5452 32.3283 15.3573 31.9363 14.5072 31.1523C13.6572 30.3683 13.2333 29.3043 13.2333 27.9603C13.2333 26.5983 13.7332 25.5523 14.7312 24.8243C15.7292 24.0963 17.2832 23.7323 19.3932 23.7323H22.2492V22.3043C22.2492 21.2783 21.9692 20.4943 21.4093 19.9523C20.8493 19.4103 19.9912 19.1403 18.8333 19.1403C17.9552 19.1403 17.2233 19.3363 16.6353 19.7283C16.0473 20.1203 15.5573 20.6423 15.1652 21.2963L13.8212 20.0363C14.2133 19.2523 14.8373 18.5843 15.6973 18.0343C16.5553 17.4843 17.6372 17.2083 18.9452 17.2083C20.6992 17.2083 22.0632 17.6363 23.0332 18.4943C24.0032 19.3523 24.4893 20.5423 24.4893 22.0703V30.0043H26.1412V31.9923H24.8812ZM18.4412 30.4223C19.0012 30.4223 19.5152 30.3583 19.9812 30.2263C20.4472 30.0963 20.8492 29.9083 21.1852 29.6663C21.5212 29.4243 21.7832 29.1443 21.9692 28.8263C22.1553 28.5083 22.2492 28.1643 22.2492 27.7903V25.4103H19.2812C17.9932 25.4103 17.0553 25.5963 16.4672 25.9703C15.8792 26.3443 15.5852 26.8843 15.5852 27.5943V28.1823C15.5852 28.8903 15.8413 29.4423 16.3553 29.8343C16.8693 30.2283 17.5632 30.4223 18.4412 30.4223ZM29.3333 17.5423H31.5732V19.8683H31.6852C32.0592 18.9623 32.6033 18.2923 33.3232 17.8583C34.0412 17.4243 34.9053 17.2063 35.9132 17.2063C36.8092 17.2063 37.6213 17.3843 38.3512 17.7383C39.0773 18.0923 39.6993 18.5963 40.2133 19.2503C40.7273 19.9043 41.1173 20.6983 41.3893 21.6303C41.6593 22.5643 41.7952 23.6103 41.7952 24.7663C41.7952 25.9223 41.6593 26.9683 41.3893 27.9023C41.1173 28.8363 40.7273 29.6283 40.2133 30.2823C39.6993 30.9363 39.0793 31.4403 38.3512 31.7943C37.6232 32.1483 36.8092 32.3263 35.9132 32.3263C33.9533 32.3263 32.5432 31.4403 31.6852 29.6643H31.5732V37.5883H29.3333V17.5423ZM35.2973 30.3383C36.5673 30.3383 37.5653 29.9403 38.2933 29.1423C39.0213 28.3443 39.3853 27.3003 39.3853 26.0043V23.5283C39.3853 22.2343 39.0213 21.1883 38.2933 20.3903C37.5653 19.5923 36.5673 19.1943 35.2973 19.1943C34.7933 19.1943 34.3133 19.2643 33.8553 19.4043C33.3973 19.5483 33.0013 19.7403 32.6653 19.9843C32.3293 20.2283 32.0632 20.5243 31.8672 20.8703C31.6712 21.2183 31.5732 21.5883 31.5732 21.9823V27.3863C31.5732 27.8543 31.6712 28.2723 31.8672 28.6383C32.0632 29.0043 32.3293 29.3143 32.6653 29.5663C33.0013 29.8183 33.3973 30.0123 33.8553 30.1443C34.3133 30.2743 34.7933 30.3383 35.2973 30.3383ZM46.6933 14.1563C46.2093 14.1563 45.8573 14.0403 45.6453 13.8063C45.4313 13.5723 45.3232 13.2683 45.3232 12.8963V12.5323C45.3232 12.1583 45.4313 11.8563 45.6453 11.6223C45.8573 11.3883 46.2093 11.2723 46.6933 11.2723C47.1793 11.2723 47.5293 11.3883 47.7433 11.6223C47.9573 11.8563 48.0653 12.1603 48.0653 12.5323V12.8963C48.0653 13.2703 47.9573 13.5723 47.7433 13.8063C47.5293 14.0403 47.1793 14.1563 46.6933 14.1563ZM45.5732 17.5423H47.8133V31.9903H45.5732V17.5423ZM62.0013 62.7203H2.00125V61.2803H62.0013V62.7203ZM62.0013 48.7203H2.00125C1.60325 48.7203 1.28125 48.3983 1.28125 48.0003V2.00027C1.28125 1.60227 1.60325 1.28027 2.00125 1.28027H62.0013C62.3993 1.28027 62.7213 1.60227 62.7213 2.00027V48.0003C62.7213 48.3983 62.3993 48.7203 62.0013 48.7203ZM2.72125 47.2803H61.2812V2.72027H2.72125V47.2803Z" fill="#F8E117"/>
</g>
<defs>
<clipPath id="clip0_862_619499">
<rect width="64" height="64" fill="white"/>
</clipPath>
</defs>
</svg>
