<svg width="552" height="467" viewBox="0 0 552 467" fill="none" xmlns="http://www.w3.org/2000/svg">
<mask id="mask0_951_505418" style="mask-type:alpha" maskUnits="userSpaceOnUse" x="-8" y="-34" width="542" height="501">
<ellipse cx="263.446" cy="216.5" rx="270.54" ry="250.5" fill="url(#paint0_diamond_951_505418)" fill-opacity="0.5"/>
</mask>
<g mask="url(#mask0_951_505418)">
<g clip-path="url(#clip0_951_505418)">
<g clip-path="url(#clip1_951_505418)">
<g clip-path="url(#clip2_951_505418)">
<g clip-path="url(#clip3_951_505418)">
<path d="M158 -16L130 0L158 16M158 -16L186 0L158 16M158 -16V16" stroke="#D4EDFC" stroke-opacity="0.1"/>
<path d="M186 0L158 16L186 32M186 0L214 16L186 32M186 0V32" stroke="#D4EDFC" stroke-opacity="0.1"/>
<path d="M214 -16L186 0L214 16M214 -16L242 0L214 16M214 -16V16" stroke="#D4EDFC" stroke-opacity="0.1"/>
<path d="M46 48L18 64L46 80M46 48L74 64L46 80M46 48V80" stroke="#D4EDFC" stroke-opacity="0.1"/>
<path d="M158 48L130 64L158 80M158 48L186 64L158 80M158 48V80" stroke="#D4EDFC" stroke-opacity="0.1"/>
<path d="M102 16L74 32L102 48M102 16L130 32L102 48M102 16V48" stroke="#D4EDFC" stroke-opacity="0.1"/>
<path d="M74 64L46 80L74 96M74 64L102 80L74 96M74 64V96" stroke="#D4EDFC" stroke-opacity="0.1"/>
<path d="M186 64L158 80L186 96M186 64L214 80L186 96M186 64V96" stroke="#D4EDFC" stroke-opacity="0.1"/>
<path d="M130 32L102 48L130 64M130 32L158 48L130 64M130 32V64" stroke="#D4EDFC" stroke-opacity="0.1"/>
<path d="M74 32L46 48L74 64M74 32L102 48L74 64M74 32V64" stroke="#D4EDFC" stroke-opacity="0.1"/>
<path d="M186 32L158 48L186 64M186 32L214 48L186 64M186 32V64" stroke="#D4EDFC" stroke-opacity="0.1"/>
<path d="M130 0L102 16L130 32M130 0L158 16L130 32M130 0V32" stroke="#D4EDFC" stroke-opacity="0.1"/>
<path d="M102 48L74 64L102 80M102 48L130 64L102 80M102 48V80" stroke="#D4EDFC" stroke-opacity="0.1"/>
<path d="M214 48L186 64L214 80M214 48L242 64L214 80M214 48V80" stroke="#D4EDFC" stroke-opacity="0.1"/>
<path d="M158 16L130 32L158 48M158 16L186 32L158 48M158 16V48" stroke="#D4EDFC" stroke-opacity="0.1"/>
<path d="M214 16L186 32L214 48M214 16L242 32L214 48M214 16V48" stroke="#D4EDFC" stroke-opacity="0.1"/>
<path d="M214 80L186 96L214 112M214 80L242 96L214 112M214 80V112" stroke="#D4EDFC" stroke-opacity="0.1"/>
<path d="M186 96L158 112L186 128M186 96L214 112L186 128M186 96V128" stroke="#D4EDFC" stroke-opacity="0.1"/>
<path d="M74 96L46 112L74 128M74 96L102 112L74 128M74 96V128" stroke="#D4EDFC" stroke-opacity="0.1"/>
<path d="M46 80L18 96L46 112M46 80L74 96L46 112M46 80V112" stroke="#D4EDFC" stroke-opacity="0.1"/>
<path d="M46 16L18 32L46 48M46 16L74 32L46 48M46 16V48" stroke="#D4EDFC" stroke-opacity="0.1"/>
<path d="M46 -16L18 0L46 16M46 -16L74 0L46 16M46 -16V16" stroke="#D4EDFC" stroke-opacity="0.1"/>
<path d="M102 -16L74 0L102 16M102 -16L130 0L102 16M102 -16V16" stroke="#D4EDFC" stroke-opacity="0.1"/>
<path d="M74 0L46 16L74 32M74 0L102 16L74 32M74 0V32" stroke="#D4EDFC" stroke-opacity="0.1"/>
<path d="M130 64L102 80L130 96M130 64L158 80L130 96M130 64V96" stroke="#D4EDFC" stroke-opacity="0.1"/>
<path d="M102 80L74 96L102 112M102 80L130 96L102 112M102 80V112" stroke="#D4EDFC" stroke-opacity="0.1"/>
<path d="M130 96L102 112L130 128M130 96L158 112L130 128M130 96V128" stroke="#D4EDFC" stroke-opacity="0.1"/>
<path d="M158 80L130 96L158 112M158 80L186 96L158 112M158 80V112" stroke="#D4EDFC" stroke-opacity="0.1"/>
<path d="M158 112L130 128L158 144M158 112L186 128L158 144M158 112V144" stroke="#D4EDFC" stroke-opacity="0.1"/>
<path d="M214 112L186 128L214 144M214 112L242 128L214 144M214 112V144" stroke="#D4EDFC" stroke-opacity="0.1"/>
<path d="M102 112L74 128L102 144M102 112L130 128L102 144M102 112V144" stroke="#D4EDFC" stroke-opacity="0.1"/>
<path d="M46 112L18 128L46 144M46 112L74 128L46 144M46 112V144" stroke="#D4EDFC" stroke-opacity="0.1"/>
<path d="M74 32L18 64L74 96M74 32L130 64L74 96M74 32V96" stroke="#0172AD"/>
<path d="M130 0L74 32L130 64M130 0L186 32L130 64M130 0V64" stroke="#0172AD"/>
<path d="M186 32L130 64L186 96M186 32L242 64L186 96M186 32V96" stroke="#0172AD"/>
<path d="M130 64L74 96L130 128M130 64L186 96L130 128M130 64V128" stroke="#0172AD"/>
<path d="M74 96L18 128L74 160M74 96L130 128L74 160M74 96V160" stroke="#0172AD"/>
<path d="M18 64L-38 96L18 128M18 64L74 96L18 128M18 64V128" stroke="#0172AD"/>
<path d="M18 0L-38 32L18 64M18 0L74 32L18 64M18 0V64" stroke="#0172AD"/>
<path d="M74 -32L18 0L74 32M74 -32L130 0L74 32M74 -32V32" stroke="#0172AD"/>
<path d="M186 -32L130 0L186 32M186 -32L242 0L186 32M186 -32V32" stroke="#0172AD"/>
<path d="M242 0L186 32L242 64M242 0L298 32L242 64M242 0V64" stroke="#0172AD"/>
<path d="M242 64L186 96L242 128M242 64L298 96L242 128M242 64V128" stroke="#0172AD"/>
<path d="M186 96L130 128L186 160M186 96L242 128L186 160M186 96V160" stroke="#0172AD"/>
<path d="M130 0L18 64L130 128M130 0L242 64L130 128M130 0V128" stroke="#009FE3"/>
</g>
<g clip-path="url(#clip4_951_505418)">
<path d="M158 112L130 128L158 144M158 112L186 128L158 144M158 112V144" stroke="#D4EDFC" stroke-opacity="0.1"/>
<path d="M186 128L158 144L186 160M186 128L214 144L186 160M186 128V160" stroke="#D4EDFC" stroke-opacity="0.1"/>
<path d="M214 112L186 128L214 144M214 112L242 128L214 144M214 112V144" stroke="#D4EDFC" stroke-opacity="0.1"/>
<path d="M46 176L18 192L46 208M46 176L74 192L46 208M46 176V208" stroke="#D4EDFC" stroke-opacity="0.1"/>
<path d="M158 176L130 192L158 208M158 176L186 192L158 208M158 176V208" stroke="#D4EDFC" stroke-opacity="0.1"/>
<path d="M102 144L74 160L102 176M102 144L130 160L102 176M102 144V176" stroke="#D4EDFC" stroke-opacity="0.1"/>
<path d="M74 192L46 208L74 224M74 192L102 208L74 224M74 192V224" stroke="#D4EDFC" stroke-opacity="0.1"/>
<path d="M186 192L158 208L186 224M186 192L214 208L186 224M186 192V224" stroke="#D4EDFC" stroke-opacity="0.1"/>
<path d="M130 160L102 176L130 192M130 160L158 176L130 192M130 160V192" stroke="#D4EDFC" stroke-opacity="0.1"/>
<path d="M74 160L46 176L74 192M74 160L102 176L74 192M74 160V192" stroke="#D4EDFC" stroke-opacity="0.1"/>
<path d="M186 160L158 176L186 192M186 160L214 176L186 192M186 160V192" stroke="#D4EDFC" stroke-opacity="0.1"/>
<path d="M130 128L102 144L130 160M130 128L158 144L130 160M130 128V160" stroke="#D4EDFC" stroke-opacity="0.1"/>
<path d="M102 176L74 192L102 208M102 176L130 192L102 208M102 176V208" stroke="#D4EDFC" stroke-opacity="0.1"/>
<path d="M214 176L186 192L214 208M214 176L242 192L214 208M214 176V208" stroke="#D4EDFC" stroke-opacity="0.1"/>
<path d="M158 144L130 160L158 176M158 144L186 160L158 176M158 144V176" stroke="#D4EDFC" stroke-opacity="0.1"/>
<path d="M214 144L186 160L214 176M214 144L242 160L214 176M214 144V176" stroke="#D4EDFC" stroke-opacity="0.1"/>
<path d="M214 208L186 224L214 240M214 208L242 224L214 240M214 208V240" stroke="#D4EDFC" stroke-opacity="0.1"/>
<path d="M186 224L158 240L186 256M186 224L214 240L186 256M186 224V256" stroke="#D4EDFC" stroke-opacity="0.1"/>
<path d="M74 224L46 240L74 256M74 224L102 240L74 256M74 224V256" stroke="#D4EDFC" stroke-opacity="0.1"/>
<path d="M46 208L18 224L46 240M46 208L74 224L46 240M46 208V240" stroke="#D4EDFC" stroke-opacity="0.1"/>
<path d="M46 144L18 160L46 176M46 144L74 160L46 176M46 144V176" stroke="#D4EDFC" stroke-opacity="0.1"/>
<path d="M46 112L18 128L46 144M46 112L74 128L46 144M46 112V144" stroke="#D4EDFC" stroke-opacity="0.1"/>
<path d="M102 112L74 128L102 144M102 112L130 128L102 144M102 112V144" stroke="#D4EDFC" stroke-opacity="0.1"/>
<path d="M74 128L46 144L74 160M74 128L102 144L74 160M74 128V160" stroke="#D4EDFC" stroke-opacity="0.1"/>
<path d="M130 192L102 208L130 224M130 192L158 208L130 224M130 192V224" stroke="#D4EDFC" stroke-opacity="0.1"/>
<path d="M102 208L74 224L102 240M102 208L130 224L102 240M102 208V240" stroke="#D4EDFC" stroke-opacity="0.1"/>
<path d="M130 224L102 240L130 256M130 224L158 240L130 256M130 224V256" stroke="#D4EDFC" stroke-opacity="0.1"/>
<path d="M158 208L130 224L158 240M158 208L186 224L158 240M158 208V240" stroke="#D4EDFC" stroke-opacity="0.1"/>
<path d="M158 240L130 256L158 272M158 240L186 256L158 272M158 240V272" stroke="#D4EDFC" stroke-opacity="0.1"/>
<path d="M214 240L186 256L214 272M214 240L242 256L214 272M214 240V272" stroke="#D4EDFC" stroke-opacity="0.1"/>
<path d="M102 240L74 256L102 272M102 240L130 256L102 272M102 240V272" stroke="#D4EDFC" stroke-opacity="0.1"/>
<path d="M46 240L18 256L46 272M46 240L74 256L46 272M46 240V272" stroke="#D4EDFC" stroke-opacity="0.1"/>
<path d="M74 160L18 192L74 224M74 160L130 192L74 224M74 160V224" stroke="#0172AD"/>
<path d="M130 128L74 160L130 192M130 128L186 160L130 192M130 128V192" stroke="#0172AD"/>
<path d="M186 160L130 192L186 224M186 160L242 192L186 224M186 160V224" stroke="#0172AD"/>
<path d="M130 192L74 224L130 256M130 192L186 224L130 256M130 192V256" stroke="#0172AD"/>
<path d="M74 224L18 256L74 288M74 224L130 256L74 288M74 224V288" stroke="#0172AD"/>
<path d="M18 192L-38 224L18 256M18 192L74 224L18 256M18 192V256" stroke="#0172AD"/>
<path d="M18 128L-38 160L18 192M18 128L74 160L18 192M18 128V192" stroke="#0172AD"/>
<path d="M74 96L18 128L74 160M74 96L130 128L74 160M74 96V160" stroke="#0172AD"/>
<path d="M186 96L130 128L186 160M186 96L242 128L186 160M186 96V160" stroke="#0172AD"/>
<path d="M242 128L186 160L242 192M242 128L298 160L242 192M242 128V192" stroke="#0172AD"/>
<path d="M242 192L186 224L242 256M242 192L298 224L242 256M242 192V256" stroke="#0172AD"/>
<path d="M186 224L130 256L186 288M186 224L242 256L186 288M186 224V288" stroke="#0172AD"/>
<path d="M130 128L18 192L130 256M130 128L242 192L130 256M130 128V256" stroke="#009FE3"/>
</g>
<g clip-path="url(#clip5_951_505418)">
<path d="M158 240L130 256L158 272M158 240L186 256L158 272M158 240V272" stroke="#D4EDFC" stroke-opacity="0.1"/>
<path d="M186 256L158 272L186 288M186 256L214 272L186 288M186 256V288" stroke="#D4EDFC" stroke-opacity="0.1"/>
<path d="M214 240L186 256L214 272M214 240L242 256L214 272M214 240V272" stroke="#D4EDFC" stroke-opacity="0.1"/>
<path d="M46 304L18 320L46 336M46 304L74 320L46 336M46 304V336" stroke="#D4EDFC" stroke-opacity="0.1"/>
<path d="M158 304L130 320L158 336M158 304L186 320L158 336M158 304V336" stroke="#D4EDFC" stroke-opacity="0.1"/>
<path d="M102 272L74 288L102 304M102 272L130 288L102 304M102 272V304" stroke="#D4EDFC" stroke-opacity="0.1"/>
<path d="M74 320L46 336L74 352M74 320L102 336L74 352M74 320V352" stroke="#D4EDFC" stroke-opacity="0.1"/>
<path d="M186 320L158 336L186 352M186 320L214 336L186 352M186 320V352" stroke="#D4EDFC" stroke-opacity="0.1"/>
<path d="M130 288L102 304L130 320M130 288L158 304L130 320M130 288V320" stroke="#D4EDFC" stroke-opacity="0.1"/>
<path d="M74 288L46 304L74 320M74 288L102 304L74 320M74 288V320" stroke="#D4EDFC" stroke-opacity="0.1"/>
<path d="M186 288L158 304L186 320M186 288L214 304L186 320M186 288V320" stroke="#D4EDFC" stroke-opacity="0.1"/>
<path d="M130 256L102 272L130 288M130 256L158 272L130 288M130 256V288" stroke="#D4EDFC" stroke-opacity="0.1"/>
<path d="M102 304L74 320L102 336M102 304L130 320L102 336M102 304V336" stroke="#D4EDFC" stroke-opacity="0.1"/>
<path d="M214 304L186 320L214 336M214 304L242 320L214 336M214 304V336" stroke="#D4EDFC" stroke-opacity="0.1"/>
<path d="M158 272L130 288L158 304M158 272L186 288L158 304M158 272V304" stroke="#D4EDFC" stroke-opacity="0.1"/>
<path d="M214 272L186 288L214 304M214 272L242 288L214 304M214 272V304" stroke="#D4EDFC" stroke-opacity="0.1"/>
<path d="M214 336L186 352L214 368M214 336L242 352L214 368M214 336V368" stroke="#D4EDFC" stroke-opacity="0.1"/>
<path d="M186 352L158 368L186 384M186 352L214 368L186 384M186 352V384" stroke="#D4EDFC" stroke-opacity="0.1"/>
<path d="M74 352L46 368L74 384M74 352L102 368L74 384M74 352V384" stroke="#D4EDFC" stroke-opacity="0.1"/>
<path d="M46 336L18 352L46 368M46 336L74 352L46 368M46 336V368" stroke="#D4EDFC" stroke-opacity="0.1"/>
<path d="M46 272L18 288L46 304M46 272L74 288L46 304M46 272V304" stroke="#D4EDFC" stroke-opacity="0.1"/>
<path d="M46 240L18 256L46 272M46 240L74 256L46 272M46 240V272" stroke="#D4EDFC" stroke-opacity="0.1"/>
<path d="M102 240L74 256L102 272M102 240L130 256L102 272M102 240V272" stroke="#D4EDFC" stroke-opacity="0.1"/>
<path d="M74 256L46 272L74 288M74 256L102 272L74 288M74 256V288" stroke="#D4EDFC" stroke-opacity="0.1"/>
<path d="M130 320L102 336L130 352M130 320L158 336L130 352M130 320V352" stroke="#D4EDFC" stroke-opacity="0.1"/>
<path d="M102 336L74 352L102 368M102 336L130 352L102 368M102 336V368" stroke="#D4EDFC" stroke-opacity="0.1"/>
<path d="M130 352L102 368L130 384M130 352L158 368L130 384M130 352V384" stroke="#D4EDFC" stroke-opacity="0.1"/>
<path d="M158 336L130 352L158 368M158 336L186 352L158 368M158 336V368" stroke="#D4EDFC" stroke-opacity="0.1"/>
<path d="M158 368L130 384L158 400M158 368L186 384L158 400M158 368V400" stroke="#D4EDFC" stroke-opacity="0.1"/>
<path d="M214 368L186 384L214 400M214 368L242 384L214 400M214 368V400" stroke="#D4EDFC" stroke-opacity="0.1"/>
<path d="M102 368L74 384L102 400M102 368L130 384L102 400M102 368V400" stroke="#D4EDFC" stroke-opacity="0.1"/>
<path d="M46 368L18 384L46 400M46 368L74 384L46 400M46 368V400" stroke="#D4EDFC" stroke-opacity="0.1"/>
<path d="M74 288L18 320L74 352M74 288L130 320L74 352M74 288V352" stroke="#0172AD"/>
<path d="M130 256L74 288L130 320M130 256L186 288L130 320M130 256V320" stroke="#0172AD"/>
<path d="M186 288L130 320L186 352M186 288L242 320L186 352M186 288V352" stroke="#0172AD"/>
<path d="M130 320L74 352L130 384M130 320L186 352L130 384M130 320V384" stroke="#0172AD"/>
<path d="M74 352L18 384L74 416M74 352L130 384L74 416M74 352V416" stroke="#0172AD"/>
<path d="M18 320L-38 352L18 384M18 320L74 352L18 384M18 320V384" stroke="#0172AD"/>
<path d="M18 256L-38 288L18 320M18 256L74 288L18 320M18 256V320" stroke="#0172AD"/>
<path d="M74 224L18 256L74 288M74 224L130 256L74 288M74 224V288" stroke="#0172AD"/>
<path d="M186 224L130 256L186 288M186 224L242 256L186 288M186 224V288" stroke="#0172AD"/>
<path d="M242 256L186 288L242 320M242 256L298 288L242 320M242 256V320" stroke="#0172AD"/>
<path d="M242 320L186 352L242 384M242 320L298 352L242 384M242 320V384" stroke="#0172AD"/>
<path d="M186 352L130 384L186 416M186 352L242 384L186 416M186 352V416" stroke="#0172AD"/>
<path d="M130 256L18 320L130 384M130 256L242 320L130 384M130 256V384" stroke="#009FE3"/>
</g>
<g clip-path="url(#clip6_951_505418)">
<path d="M158 368L130 384L158 400M158 368L186 384L158 400M158 368V400" stroke="#D4EDFC" stroke-opacity="0.1"/>
<path d="M186 384L158 400L186 416M186 384L214 400L186 416M186 384V416" stroke="#D4EDFC" stroke-opacity="0.1"/>
<path d="M214 368L186 384L214 400M214 368L242 384L214 400M214 368V400" stroke="#D4EDFC" stroke-opacity="0.1"/>
<path d="M46 432L18 448L46 464M46 432L74 448L46 464M46 432V464" stroke="#D4EDFC" stroke-opacity="0.1"/>
<path d="M158 432L130 448L158 464M158 432L186 448L158 464M158 432V464" stroke="#D4EDFC" stroke-opacity="0.1"/>
<path d="M102 400L74 416L102 432M102 400L130 416L102 432M102 400V432" stroke="#D4EDFC" stroke-opacity="0.1"/>
<path d="M74 448L46 464L74 480M74 448L102 464L74 480M74 448V480" stroke="#D4EDFC" stroke-opacity="0.1"/>
<path d="M186 448L158 464L186 480M186 448L214 464L186 480M186 448V480" stroke="#D4EDFC" stroke-opacity="0.1"/>
<path d="M130 416L102 432L130 448M130 416L158 432L130 448M130 416V448" stroke="#D4EDFC" stroke-opacity="0.1"/>
<path d="M74 416L46 432L74 448M74 416L102 432L74 448M74 416V448" stroke="#D4EDFC" stroke-opacity="0.1"/>
<path d="M186 416L158 432L186 448M186 416L214 432L186 448M186 416V448" stroke="#D4EDFC" stroke-opacity="0.1"/>
<path d="M130 384L102 400L130 416M130 384L158 400L130 416M130 384V416" stroke="#D4EDFC" stroke-opacity="0.1"/>
<path d="M102 432L74 448L102 464M102 432L130 448L102 464M102 432V464" stroke="#D4EDFC" stroke-opacity="0.1"/>
<path d="M214 432L186 448L214 464M214 432L242 448L214 464M214 432V464" stroke="#D4EDFC" stroke-opacity="0.1"/>
<path d="M158 400L130 416L158 432M158 400L186 416L158 432M158 400V432" stroke="#D4EDFC" stroke-opacity="0.1"/>
<path d="M214 400L186 416L214 432M214 400L242 416L214 432M214 400V432" stroke="#D4EDFC" stroke-opacity="0.1"/>
<path d="M214 464L186 480L214 496M214 464L242 480L214 496M214 464V496" stroke="#D4EDFC" stroke-opacity="0.1"/>
<path d="M46 464L18 480L46 496M46 464L74 480L46 496M46 464V496" stroke="#D4EDFC" stroke-opacity="0.1"/>
<path d="M46 400L18 416L46 432M46 400L74 416L46 432M46 400V432" stroke="#D4EDFC" stroke-opacity="0.1"/>
<path d="M46 368L18 384L46 400M46 368L74 384L46 400M46 368V400" stroke="#D4EDFC" stroke-opacity="0.1"/>
<path d="M102 368L74 384L102 400M102 368L130 384L102 400M102 368V400" stroke="#D4EDFC" stroke-opacity="0.1"/>
<path d="M74 384L46 400L74 416M74 384L102 400L74 416M74 384V416" stroke="#D4EDFC" stroke-opacity="0.1"/>
<path d="M130 448L102 464L130 480M130 448L158 464L130 480M130 448V480" stroke="#D4EDFC" stroke-opacity="0.1"/>
<path d="M102 464L74 480L102 496M102 464L130 480L102 496M102 464V496" stroke="#D4EDFC" stroke-opacity="0.1"/>
<path d="M158 464L130 480L158 496M158 464L186 480L158 496M158 464V496" stroke="#D4EDFC" stroke-opacity="0.1"/>
<path d="M74 416L18 448L74 480M74 416L130 448L74 480M74 416V480" stroke="#0172AD"/>
<path d="M130 384L74 416L130 448M130 384L186 416L130 448M130 384V448" stroke="#0172AD"/>
<path d="M186 416L130 448L186 480M186 416L242 448L186 480M186 416V480" stroke="#0172AD"/>
<path d="M130 448L74 480L130 512M130 448L186 480L130 512M130 448V512" stroke="#0172AD"/>
<path d="M18 448L-38 480L18 512M18 448L74 480L18 512M18 448V512" stroke="#0172AD"/>
<path d="M18 384L-38 416L18 448M18 384L74 416L18 448M18 384V448" stroke="#0172AD"/>
<path d="M74 352L18 384L74 416M74 352L130 384L74 416M74 352V416" stroke="#0172AD"/>
<path d="M186 352L130 384L186 416M186 352L242 384L186 416M186 352V416" stroke="#0172AD"/>
<path d="M242 384L186 416L242 448M242 384L298 416L242 448M242 384V448" stroke="#0172AD"/>
<path d="M242 448L186 480L242 512M242 448L298 480L242 512M242 448V512" stroke="#0172AD"/>
<path d="M130 384L18 448L130 512M130 384L242 448L130 512M130 384V512" stroke="#009FE3"/>
</g>
</g>
</g>
<g clip-path="url(#clip7_951_505418)">
<g clip-path="url(#clip8_951_505418)">
<g clip-path="url(#clip9_951_505418)">
<path d="M382 -16L354 0L382 16M382 -16L410 0L382 16M382 -16V16" stroke="#D4EDFC" stroke-opacity="0.1"/>
<path d="M410 0L382 16L410 32M410 0L438 16L410 32M410 0V32" stroke="#D4EDFC" stroke-opacity="0.1"/>
<path d="M438 -16L410 0L438 16M438 -16L466 0L438 16M438 -16V16" stroke="#D4EDFC" stroke-opacity="0.1"/>
<path d="M270 48L242 64L270 80M270 48L298 64L270 80M270 48V80" stroke="#D4EDFC" stroke-opacity="0.1"/>
<path d="M382 48L354 64L382 80M382 48L410 64L382 80M382 48V80" stroke="#D4EDFC" stroke-opacity="0.1"/>
<path d="M326 16L298 32L326 48M326 16L354 32L326 48M326 16V48" stroke="#D4EDFC" stroke-opacity="0.1"/>
<path d="M298 64L270 80L298 96M298 64L326 80L298 96M298 64V96" stroke="#D4EDFC" stroke-opacity="0.1"/>
<path d="M410 64L382 80L410 96M410 64L438 80L410 96M410 64V96" stroke="#D4EDFC" stroke-opacity="0.1"/>
<path d="M354 32L326 48L354 64M354 32L382 48L354 64M354 32V64" stroke="#D4EDFC" stroke-opacity="0.1"/>
<path d="M298 32L270 48L298 64M298 32L326 48L298 64M298 32V64" stroke="#D4EDFC" stroke-opacity="0.1"/>
<path d="M410 32L382 48L410 64M410 32L438 48L410 64M410 32V64" stroke="#D4EDFC" stroke-opacity="0.1"/>
<path d="M354 0L326 16L354 32M354 0L382 16L354 32M354 0V32" stroke="#D4EDFC" stroke-opacity="0.1"/>
<path d="M326 48L298 64L326 80M326 48L354 64L326 80M326 48V80" stroke="#D4EDFC" stroke-opacity="0.1"/>
<path d="M438 48L410 64L438 80M438 48L466 64L438 80M438 48V80" stroke="#D4EDFC" stroke-opacity="0.1"/>
<path d="M382 16L354 32L382 48M382 16L410 32L382 48M382 16V48" stroke="#D4EDFC" stroke-opacity="0.1"/>
<path d="M438 16L410 32L438 48M438 16L466 32L438 48M438 16V48" stroke="#D4EDFC" stroke-opacity="0.1"/>
<path d="M438 80L410 96L438 112M438 80L466 96L438 112M438 80V112" stroke="#D4EDFC" stroke-opacity="0.1"/>
<path d="M410 96L382 112L410 128M410 96L438 112L410 128M410 96V128" stroke="#D4EDFC" stroke-opacity="0.1"/>
<path d="M298 96L270 112L298 128M298 96L326 112L298 128M298 96V128" stroke="#D4EDFC" stroke-opacity="0.1"/>
<path d="M270 80L242 96L270 112M270 80L298 96L270 112M270 80V112" stroke="#D4EDFC" stroke-opacity="0.1"/>
<path d="M270 16L242 32L270 48M270 16L298 32L270 48M270 16V48" stroke="#D4EDFC" stroke-opacity="0.1"/>
<path d="M270 -16L242 0L270 16M270 -16L298 0L270 16M270 -16V16" stroke="#D4EDFC" stroke-opacity="0.1"/>
<path d="M326 -16L298 0L326 16M326 -16L354 0L326 16M326 -16V16" stroke="#D4EDFC" stroke-opacity="0.1"/>
<path d="M298 0L270 16L298 32M298 0L326 16L298 32M298 0V32" stroke="#D4EDFC" stroke-opacity="0.1"/>
<path d="M354 64L326 80L354 96M354 64L382 80L354 96M354 64V96" stroke="#D4EDFC" stroke-opacity="0.1"/>
<path d="M326 80L298 96L326 112M326 80L354 96L326 112M326 80V112" stroke="#D4EDFC" stroke-opacity="0.1"/>
<path d="M354 96L326 112L354 128M354 96L382 112L354 128M354 96V128" stroke="#D4EDFC" stroke-opacity="0.1"/>
<path d="M382 80L354 96L382 112M382 80L410 96L382 112M382 80V112" stroke="#D4EDFC" stroke-opacity="0.1"/>
<path d="M382 112L354 128L382 144M382 112L410 128L382 144M382 112V144" stroke="#D4EDFC" stroke-opacity="0.1"/>
<path d="M438 112L410 128L438 144M438 112L466 128L438 144M438 112V144" stroke="#D4EDFC" stroke-opacity="0.1"/>
<path d="M326 112L298 128L326 144M326 112L354 128L326 144M326 112V144" stroke="#D4EDFC" stroke-opacity="0.1"/>
<path d="M270 112L242 128L270 144M270 112L298 128L270 144M270 112V144" stroke="#D4EDFC" stroke-opacity="0.1"/>
<path d="M298 32L242 64L298 96M298 32L354 64L298 96M298 32V96" stroke="#0172AD"/>
<path d="M354 0L298 32L354 64M354 0L410 32L354 64M354 0V64" stroke="#0172AD"/>
<path d="M410 32L354 64L410 96M410 32L466 64L410 96M410 32V96" stroke="#0172AD"/>
<path d="M354 64L298 96L354 128M354 64L410 96L354 128M354 64V128" stroke="#0172AD"/>
<path d="M298 96L242 128L298 160M298 96L354 128L298 160M298 96V160" stroke="#0172AD"/>
<path d="M242 64L186 96L242 128M242 64L298 96L242 128M242 64V128" stroke="#0172AD"/>
<path d="M242 0L186 32L242 64M242 0L298 32L242 64M242 0V64" stroke="#0172AD"/>
<path d="M298 -32L242 0L298 32M298 -32L354 0L298 32M298 -32V32" stroke="#0172AD"/>
<path d="M410 -32L354 0L410 32M410 -32L466 0L410 32M410 -32V32" stroke="#0172AD"/>
<path d="M466 0L410 32L466 64M466 0L522 32L466 64M466 0V64" stroke="#0172AD"/>
<path d="M466 64L410 96L466 128M466 64L522 96L466 128M466 64V128" stroke="#0172AD"/>
<path d="M410 96L354 128L410 160M410 96L466 128L410 160M410 96V160" stroke="#0172AD"/>
<path d="M354 0L242 64L354 128M354 0L466 64L354 128M354 0V128" stroke="#009FE3"/>
</g>
<g clip-path="url(#clip10_951_505418)">
<path d="M382 112L354 128L382 144M382 112L410 128L382 144M382 112V144" stroke="#D4EDFC" stroke-opacity="0.1"/>
<path d="M410 128L382 144L410 160M410 128L438 144L410 160M410 128V160" stroke="#D4EDFC" stroke-opacity="0.1"/>
<path d="M438 112L410 128L438 144M438 112L466 128L438 144M438 112V144" stroke="#D4EDFC" stroke-opacity="0.1"/>
<path d="M270 176L242 192L270 208M270 176L298 192L270 208M270 176V208" stroke="#D4EDFC" stroke-opacity="0.1"/>
<path d="M382 176L354 192L382 208M382 176L410 192L382 208M382 176V208" stroke="#D4EDFC" stroke-opacity="0.1"/>
<path d="M326 144L298 160L326 176M326 144L354 160L326 176M326 144V176" stroke="#D4EDFC" stroke-opacity="0.1"/>
<path d="M298 192L270 208L298 224M298 192L326 208L298 224M298 192V224" stroke="#D4EDFC" stroke-opacity="0.1"/>
<path d="M410 192L382 208L410 224M410 192L438 208L410 224M410 192V224" stroke="#D4EDFC" stroke-opacity="0.1"/>
<path d="M354 160L326 176L354 192M354 160L382 176L354 192M354 160V192" stroke="#D4EDFC" stroke-opacity="0.1"/>
<path d="M298 160L270 176L298 192M298 160L326 176L298 192M298 160V192" stroke="#D4EDFC" stroke-opacity="0.1"/>
<path d="M410 160L382 176L410 192M410 160L438 176L410 192M410 160V192" stroke="#D4EDFC" stroke-opacity="0.1"/>
<path d="M354 128L326 144L354 160M354 128L382 144L354 160M354 128V160" stroke="#D4EDFC" stroke-opacity="0.1"/>
<path d="M326 176L298 192L326 208M326 176L354 192L326 208M326 176V208" stroke="#D4EDFC" stroke-opacity="0.1"/>
<path d="M438 176L410 192L438 208M438 176L466 192L438 208M438 176V208" stroke="#D4EDFC" stroke-opacity="0.1"/>
<path d="M382 144L354 160L382 176M382 144L410 160L382 176M382 144V176" stroke="#D4EDFC" stroke-opacity="0.1"/>
<path d="M438 144L410 160L438 176M438 144L466 160L438 176M438 144V176" stroke="#D4EDFC" stroke-opacity="0.1"/>
<path d="M438 208L410 224L438 240M438 208L466 224L438 240M438 208V240" stroke="#D4EDFC" stroke-opacity="0.1"/>
<path d="M410 224L382 240L410 256M410 224L438 240L410 256M410 224V256" stroke="#D4EDFC" stroke-opacity="0.1"/>
<path d="M298 224L270 240L298 256M298 224L326 240L298 256M298 224V256" stroke="#D4EDFC" stroke-opacity="0.1"/>
<path d="M270 208L242 224L270 240M270 208L298 224L270 240M270 208V240" stroke="#D4EDFC" stroke-opacity="0.1"/>
<path d="M270 144L242 160L270 176M270 144L298 160L270 176M270 144V176" stroke="#D4EDFC" stroke-opacity="0.1"/>
<path d="M270 112L242 128L270 144M270 112L298 128L270 144M270 112V144" stroke="#D4EDFC" stroke-opacity="0.1"/>
<path d="M326 112L298 128L326 144M326 112L354 128L326 144M326 112V144" stroke="#D4EDFC" stroke-opacity="0.1"/>
<path d="M298 128L270 144L298 160M298 128L326 144L298 160M298 128V160" stroke="#D4EDFC" stroke-opacity="0.1"/>
<path d="M354 192L326 208L354 224M354 192L382 208L354 224M354 192V224" stroke="#D4EDFC" stroke-opacity="0.1"/>
<path d="M326 208L298 224L326 240M326 208L354 224L326 240M326 208V240" stroke="#D4EDFC" stroke-opacity="0.1"/>
<path d="M354 224L326 240L354 256M354 224L382 240L354 256M354 224V256" stroke="#D4EDFC" stroke-opacity="0.1"/>
<path d="M382 208L354 224L382 240M382 208L410 224L382 240M382 208V240" stroke="#D4EDFC" stroke-opacity="0.1"/>
<path d="M382 240L354 256L382 272M382 240L410 256L382 272M382 240V272" stroke="#D4EDFC" stroke-opacity="0.1"/>
<path d="M438 240L410 256L438 272M438 240L466 256L438 272M438 240V272" stroke="#D4EDFC" stroke-opacity="0.1"/>
<path d="M326 240L298 256L326 272M326 240L354 256L326 272M326 240V272" stroke="#D4EDFC" stroke-opacity="0.1"/>
<path d="M270 240L242 256L270 272M270 240L298 256L270 272M270 240V272" stroke="#D4EDFC" stroke-opacity="0.1"/>
<path d="M298 160L242 192L298 224M298 160L354 192L298 224M298 160V224" stroke="#0172AD"/>
<path d="M354 128L298 160L354 192M354 128L410 160L354 192M354 128V192" stroke="#0172AD"/>
<path d="M410 160L354 192L410 224M410 160L466 192L410 224M410 160V224" stroke="#0172AD"/>
<path d="M354 192L298 224L354 256M354 192L410 224L354 256M354 192V256" stroke="#0172AD"/>
<path d="M298 224L242 256L298 288M298 224L354 256L298 288M298 224V288" stroke="#0172AD"/>
<path d="M242 192L186 224L242 256M242 192L298 224L242 256M242 192V256" stroke="#0172AD"/>
<path d="M242 128L186 160L242 192M242 128L298 160L242 192M242 128V192" stroke="#0172AD"/>
<path d="M298 96L242 128L298 160M298 96L354 128L298 160M298 96V160" stroke="#0172AD"/>
<path d="M410 96L354 128L410 160M410 96L466 128L410 160M410 96V160" stroke="#0172AD"/>
<path d="M466 128L410 160L466 192M466 128L522 160L466 192M466 128V192" stroke="#0172AD"/>
<path d="M466 192L410 224L466 256M466 192L522 224L466 256M466 192V256" stroke="#0172AD"/>
<path d="M410 224L354 256L410 288M410 224L466 256L410 288M410 224V288" stroke="#0172AD"/>
<path d="M354 128L242 192L354 256M354 128L466 192L354 256M354 128V256" stroke="#009FE3"/>
</g>
<g clip-path="url(#clip11_951_505418)">
<path d="M382 240L354 256L382 272M382 240L410 256L382 272M382 240V272" stroke="#D4EDFC" stroke-opacity="0.1"/>
<path d="M410 256L382 272L410 288M410 256L438 272L410 288M410 256V288" stroke="#D4EDFC" stroke-opacity="0.1"/>
<path d="M438 240L410 256L438 272M438 240L466 256L438 272M438 240V272" stroke="#D4EDFC" stroke-opacity="0.1"/>
<path d="M270 304L242 320L270 336M270 304L298 320L270 336M270 304V336" stroke="#D4EDFC" stroke-opacity="0.1"/>
<path d="M382 304L354 320L382 336M382 304L410 320L382 336M382 304V336" stroke="#D4EDFC" stroke-opacity="0.1"/>
<path d="M326 272L298 288L326 304M326 272L354 288L326 304M326 272V304" stroke="#D4EDFC" stroke-opacity="0.1"/>
<path d="M298 320L270 336L298 352M298 320L326 336L298 352M298 320V352" stroke="#D4EDFC" stroke-opacity="0.1"/>
<path d="M410 320L382 336L410 352M410 320L438 336L410 352M410 320V352" stroke="#D4EDFC" stroke-opacity="0.1"/>
<path d="M354 288L326 304L354 320M354 288L382 304L354 320M354 288V320" stroke="#D4EDFC" stroke-opacity="0.1"/>
<path d="M298 288L270 304L298 320M298 288L326 304L298 320M298 288V320" stroke="#D4EDFC" stroke-opacity="0.1"/>
<path d="M410 288L382 304L410 320M410 288L438 304L410 320M410 288V320" stroke="#D4EDFC" stroke-opacity="0.1"/>
<path d="M354 256L326 272L354 288M354 256L382 272L354 288M354 256V288" stroke="#D4EDFC" stroke-opacity="0.1"/>
<path d="M326 304L298 320L326 336M326 304L354 320L326 336M326 304V336" stroke="#D4EDFC" stroke-opacity="0.1"/>
<path d="M438 304L410 320L438 336M438 304L466 320L438 336M438 304V336" stroke="#D4EDFC" stroke-opacity="0.1"/>
<path d="M382 272L354 288L382 304M382 272L410 288L382 304M382 272V304" stroke="#D4EDFC" stroke-opacity="0.1"/>
<path d="M438 272L410 288L438 304M438 272L466 288L438 304M438 272V304" stroke="#D4EDFC" stroke-opacity="0.1"/>
<path d="M438 336L410 352L438 368M438 336L466 352L438 368M438 336V368" stroke="#D4EDFC" stroke-opacity="0.1"/>
<path d="M410 352L382 368L410 384M410 352L438 368L410 384M410 352V384" stroke="#D4EDFC" stroke-opacity="0.1"/>
<path d="M298 352L270 368L298 384M298 352L326 368L298 384M298 352V384" stroke="#D4EDFC" stroke-opacity="0.1"/>
<path d="M270 336L242 352L270 368M270 336L298 352L270 368M270 336V368" stroke="#D4EDFC" stroke-opacity="0.1"/>
<path d="M270 272L242 288L270 304M270 272L298 288L270 304M270 272V304" stroke="#D4EDFC" stroke-opacity="0.1"/>
<path d="M270 240L242 256L270 272M270 240L298 256L270 272M270 240V272" stroke="#D4EDFC" stroke-opacity="0.1"/>
<path d="M326 240L298 256L326 272M326 240L354 256L326 272M326 240V272" stroke="#D4EDFC" stroke-opacity="0.1"/>
<path d="M298 256L270 272L298 288M298 256L326 272L298 288M298 256V288" stroke="#D4EDFC" stroke-opacity="0.1"/>
<path d="M354 320L326 336L354 352M354 320L382 336L354 352M354 320V352" stroke="#D4EDFC" stroke-opacity="0.1"/>
<path d="M326 336L298 352L326 368M326 336L354 352L326 368M326 336V368" stroke="#D4EDFC" stroke-opacity="0.1"/>
<path d="M354 352L326 368L354 384M354 352L382 368L354 384M354 352V384" stroke="#D4EDFC" stroke-opacity="0.1"/>
<path d="M382 336L354 352L382 368M382 336L410 352L382 368M382 336V368" stroke="#D4EDFC" stroke-opacity="0.1"/>
<path d="M382 368L354 384L382 400M382 368L410 384L382 400M382 368V400" stroke="#D4EDFC" stroke-opacity="0.1"/>
<path d="M438 368L410 384L438 400M438 368L466 384L438 400M438 368V400" stroke="#D4EDFC" stroke-opacity="0.1"/>
<path d="M326 368L298 384L326 400M326 368L354 384L326 400M326 368V400" stroke="#D4EDFC" stroke-opacity="0.1"/>
<path d="M270 368L242 384L270 400M270 368L298 384L270 400M270 368V400" stroke="#D4EDFC" stroke-opacity="0.1"/>
<path d="M298 288L242 320L298 352M298 288L354 320L298 352M298 288V352" stroke="#0172AD"/>
<path d="M354 256L298 288L354 320M354 256L410 288L354 320M354 256V320" stroke="#0172AD"/>
<path d="M410 288L354 320L410 352M410 288L466 320L410 352M410 288V352" stroke="#0172AD"/>
<path d="M354 320L298 352L354 384M354 320L410 352L354 384M354 320V384" stroke="#0172AD"/>
<path d="M298 352L242 384L298 416M298 352L354 384L298 416M298 352V416" stroke="#0172AD"/>
<path d="M242 320L186 352L242 384M242 320L298 352L242 384M242 320V384" stroke="#0172AD"/>
<path d="M242 256L186 288L242 320M242 256L298 288L242 320M242 256V320" stroke="#0172AD"/>
<path d="M298 224L242 256L298 288M298 224L354 256L298 288M298 224V288" stroke="#0172AD"/>
<path d="M410 224L354 256L410 288M410 224L466 256L410 288M410 224V288" stroke="#0172AD"/>
<path d="M466 256L410 288L466 320M466 256L522 288L466 320M466 256V320" stroke="#0172AD"/>
<path d="M466 320L410 352L466 384M466 320L522 352L466 384M466 320V384" stroke="#0172AD"/>
<path d="M410 352L354 384L410 416M410 352L466 384L410 416M410 352V416" stroke="#0172AD"/>
<path d="M354 256L242 320L354 384M354 256L466 320L354 384M354 256V384" stroke="#009FE3"/>
</g>
<g clip-path="url(#clip12_951_505418)">
<path d="M382 368L354 384L382 400M382 368L410 384L382 400M382 368V400" stroke="#D4EDFC" stroke-opacity="0.1"/>
<path d="M410 384L382 400L410 416M410 384L438 400L410 416M410 384V416" stroke="#D4EDFC" stroke-opacity="0.1"/>
<path d="M438 368L410 384L438 400M438 368L466 384L438 400M438 368V400" stroke="#D4EDFC" stroke-opacity="0.1"/>
<path d="M270 432L242 448L270 464M270 432L298 448L270 464M270 432V464" stroke="#D4EDFC" stroke-opacity="0.1"/>
<path d="M382 432L354 448L382 464M382 432L410 448L382 464M382 432V464" stroke="#D4EDFC" stroke-opacity="0.1"/>
<path d="M326 400L298 416L326 432M326 400L354 416L326 432M326 400V432" stroke="#D4EDFC" stroke-opacity="0.1"/>
<path d="M298 448L270 464L298 480M298 448L326 464L298 480M298 448V480" stroke="#D4EDFC" stroke-opacity="0.1"/>
<path d="M410 448L382 464L410 480M410 448L438 464L410 480M410 448V480" stroke="#D4EDFC" stroke-opacity="0.1"/>
<path d="M354 416L326 432L354 448M354 416L382 432L354 448M354 416V448" stroke="#D4EDFC" stroke-opacity="0.1"/>
<path d="M298 416L270 432L298 448M298 416L326 432L298 448M298 416V448" stroke="#D4EDFC" stroke-opacity="0.1"/>
<path d="M410 416L382 432L410 448M410 416L438 432L410 448M410 416V448" stroke="#D4EDFC" stroke-opacity="0.1"/>
<path d="M354 384L326 400L354 416M354 384L382 400L354 416M354 384V416" stroke="#D4EDFC" stroke-opacity="0.1"/>
<path d="M326 432L298 448L326 464M326 432L354 448L326 464M326 432V464" stroke="#D4EDFC" stroke-opacity="0.1"/>
<path d="M438 432L410 448L438 464M438 432L466 448L438 464M438 432V464" stroke="#D4EDFC" stroke-opacity="0.1"/>
<path d="M382 400L354 416L382 432M382 400L410 416L382 432M382 400V432" stroke="#D4EDFC" stroke-opacity="0.1"/>
<path d="M438 400L410 416L438 432M438 400L466 416L438 432M438 400V432" stroke="#D4EDFC" stroke-opacity="0.1"/>
<path d="M438 464L410 480L438 496M438 464L466 480L438 496M438 464V496" stroke="#D4EDFC" stroke-opacity="0.1"/>
<path d="M270 464L242 480L270 496M270 464L298 480L270 496M270 464V496" stroke="#D4EDFC" stroke-opacity="0.1"/>
<path d="M270 400L242 416L270 432M270 400L298 416L270 432M270 400V432" stroke="#D4EDFC" stroke-opacity="0.1"/>
<path d="M270 368L242 384L270 400M270 368L298 384L270 400M270 368V400" stroke="#D4EDFC" stroke-opacity="0.1"/>
<path d="M326 368L298 384L326 400M326 368L354 384L326 400M326 368V400" stroke="#D4EDFC" stroke-opacity="0.1"/>
<path d="M298 384L270 400L298 416M298 384L326 400L298 416M298 384V416" stroke="#D4EDFC" stroke-opacity="0.1"/>
<path d="M354 448L326 464L354 480M354 448L382 464L354 480M354 448V480" stroke="#D4EDFC" stroke-opacity="0.1"/>
<path d="M326 464L298 480L326 496M326 464L354 480L326 496M326 464V496" stroke="#D4EDFC" stroke-opacity="0.1"/>
<path d="M382 464L354 480L382 496M382 464L410 480L382 496M382 464V496" stroke="#D4EDFC" stroke-opacity="0.1"/>
<path d="M298 416L242 448L298 480M298 416L354 448L298 480M298 416V480" stroke="#0172AD"/>
<path d="M354 384L298 416L354 448M354 384L410 416L354 448M354 384V448" stroke="#0172AD"/>
<path d="M410 416L354 448L410 480M410 416L466 448L410 480M410 416V480" stroke="#0172AD"/>
<path d="M354 448L298 480L354 512M354 448L410 480L354 512M354 448V512" stroke="#0172AD"/>
<path d="M242 448L186 480L242 512M242 448L298 480L242 512M242 448V512" stroke="#0172AD"/>
<path d="M242 384L186 416L242 448M242 384L298 416L242 448M242 384V448" stroke="#0172AD"/>
<path d="M298 352L242 384L298 416M298 352L354 384L298 416M298 352V416" stroke="#0172AD"/>
<path d="M410 352L354 384L410 416M410 352L466 384L410 416M410 352V416" stroke="#0172AD"/>
<path d="M466 384L410 416L466 448M466 384L522 416L466 448M466 384V448" stroke="#0172AD"/>
<path d="M466 448L410 480L466 512M466 448L522 480L466 512M466 448V512" stroke="#0172AD"/>
<path d="M354 384L242 448L354 512M354 384L466 448L354 512M354 384V512" stroke="#009FE3"/>
</g>
</g>
</g>
<g clip-path="url(#clip13_951_505418)">
<g clip-path="url(#clip14_951_505418)">
<g clip-path="url(#clip15_951_505418)">
<path d="M494 48L466 64L494 80M494 48L522 64L494 80M494 48V80" stroke="#D4EDFC" stroke-opacity="0.1"/>
<path d="M550 16L522 32L550 48M550 16L578 32L550 48M550 16V48" stroke="#D4EDFC" stroke-opacity="0.1"/>
<path d="M522 64L494 80L522 96M522 64L550 80L522 96M522 64V96" stroke="#D4EDFC" stroke-opacity="0.1"/>
<path d="M522 32L494 48L522 64M522 32L550 48L522 64M522 32V64" stroke="#D4EDFC" stroke-opacity="0.1"/>
<path d="M550 48L522 64L550 80M550 48L578 64L550 80M550 48V80" stroke="#D4EDFC" stroke-opacity="0.1"/>
<path d="M522 96L494 112L522 128M522 96L550 112L522 128M522 96V128" stroke="#D4EDFC" stroke-opacity="0.1"/>
<path d="M494 80L466 96L494 112M494 80L522 96L494 112M494 80V112" stroke="#D4EDFC" stroke-opacity="0.1"/>
<path d="M494 16L466 32L494 48M494 16L522 32L494 48M494 16V48" stroke="#D4EDFC" stroke-opacity="0.1"/>
<path d="M494 -16L466 0L494 16M494 -16L522 0L494 16M494 -16V16" stroke="#D4EDFC" stroke-opacity="0.1"/>
<path d="M550 -16L522 0L550 16M550 -16L578 0L550 16M550 -16V16" stroke="#D4EDFC" stroke-opacity="0.1"/>
<path d="M522 0L494 16L522 32M522 0L550 16L522 32M522 0V32" stroke="#D4EDFC" stroke-opacity="0.1"/>
<path d="M550 80L522 96L550 112M550 80L578 96L550 112M550 80V112" stroke="#D4EDFC" stroke-opacity="0.1"/>
<path d="M550 112L522 128L550 144M550 112L578 128L550 144M550 112V144" stroke="#D4EDFC" stroke-opacity="0.1"/>
<path d="M494 112L466 128L494 144M494 112L522 128L494 144M494 112V144" stroke="#D4EDFC" stroke-opacity="0.1"/>
<path d="M522 32L466 64L522 96M522 32L578 64L522 96M522 32V96" stroke="#0172AD"/>
<path d="M578 0L522 32L578 64M578 0L634 32L578 64M578 0V64" stroke="#0172AD"/>
<path d="M578 64L522 96L578 128M578 64L634 96L578 128M578 64V128" stroke="#0172AD"/>
<path d="M522 96L466 128L522 160M522 96L578 128L522 160M522 96V160" stroke="#0172AD"/>
<path d="M466 64L410 96L466 128M466 64L522 96L466 128M466 64V128" stroke="#0172AD"/>
<path d="M466 0L410 32L466 64M466 0L522 32L466 64M466 0V64" stroke="#0172AD"/>
<path d="M522 -32L466 0L522 32M522 -32L578 0L522 32M522 -32V32" stroke="#0172AD"/>
<path d="M578 0L466 64L578 128M578 0L690 64L578 128M578 0V128" stroke="#009FE3"/>
</g>
<g clip-path="url(#clip16_951_505418)">
<path d="M494 176L466 192L494 208M494 176L522 192L494 208M494 176V208" stroke="#D4EDFC" stroke-opacity="0.1"/>
<path d="M550 144L522 160L550 176M550 144L578 160L550 176M550 144V176" stroke="#D4EDFC" stroke-opacity="0.1"/>
<path d="M522 192L494 208L522 224M522 192L550 208L522 224M522 192V224" stroke="#D4EDFC" stroke-opacity="0.1"/>
<path d="M522 160L494 176L522 192M522 160L550 176L522 192M522 160V192" stroke="#D4EDFC" stroke-opacity="0.1"/>
<path d="M550 176L522 192L550 208M550 176L578 192L550 208M550 176V208" stroke="#D4EDFC" stroke-opacity="0.1"/>
<path d="M522 224L494 240L522 256M522 224L550 240L522 256M522 224V256" stroke="#D4EDFC" stroke-opacity="0.1"/>
<path d="M494 208L466 224L494 240M494 208L522 224L494 240M494 208V240" stroke="#D4EDFC" stroke-opacity="0.1"/>
<path d="M494 144L466 160L494 176M494 144L522 160L494 176M494 144V176" stroke="#D4EDFC" stroke-opacity="0.1"/>
<path d="M494 112L466 128L494 144M494 112L522 128L494 144M494 112V144" stroke="#D4EDFC" stroke-opacity="0.1"/>
<path d="M550 112L522 128L550 144M550 112L578 128L550 144M550 112V144" stroke="#D4EDFC" stroke-opacity="0.1"/>
<path d="M522 128L494 144L522 160M522 128L550 144L522 160M522 128V160" stroke="#D4EDFC" stroke-opacity="0.1"/>
<path d="M550 208L522 224L550 240M550 208L578 224L550 240M550 208V240" stroke="#D4EDFC" stroke-opacity="0.1"/>
<path d="M550 240L522 256L550 272M550 240L578 256L550 272M550 240V272" stroke="#D4EDFC" stroke-opacity="0.1"/>
<path d="M494 240L466 256L494 272M494 240L522 256L494 272M494 240V272" stroke="#D4EDFC" stroke-opacity="0.1"/>
<path d="M522 160L466 192L522 224M522 160L578 192L522 224M522 160V224" stroke="#0172AD"/>
<path d="M578 128L522 160L578 192M578 128L634 160L578 192M578 128V192" stroke="#0172AD"/>
<path d="M578 192L522 224L578 256M578 192L634 224L578 256M578 192V256" stroke="#0172AD"/>
<path d="M522 224L466 256L522 288M522 224L578 256L522 288M522 224V288" stroke="#0172AD"/>
<path d="M466 192L410 224L466 256M466 192L522 224L466 256M466 192V256" stroke="#0172AD"/>
<path d="M466 128L410 160L466 192M466 128L522 160L466 192M466 128V192" stroke="#0172AD"/>
<path d="M522 96L466 128L522 160M522 96L578 128L522 160M522 96V160" stroke="#0172AD"/>
<path d="M578 128L466 192L578 256M578 128L690 192L578 256M578 128V256" stroke="#009FE3"/>
</g>
<g clip-path="url(#clip17_951_505418)">
<path d="M494 304L466 320L494 336M494 304L522 320L494 336M494 304V336" stroke="#D4EDFC" stroke-opacity="0.1"/>
<path d="M550 272L522 288L550 304M550 272L578 288L550 304M550 272V304" stroke="#D4EDFC" stroke-opacity="0.1"/>
<path d="M522 320L494 336L522 352M522 320L550 336L522 352M522 320V352" stroke="#D4EDFC" stroke-opacity="0.1"/>
<path d="M522 288L494 304L522 320M522 288L550 304L522 320M522 288V320" stroke="#D4EDFC" stroke-opacity="0.1"/>
<path d="M550 304L522 320L550 336M550 304L578 320L550 336M550 304V336" stroke="#D4EDFC" stroke-opacity="0.1"/>
<path d="M522 352L494 368L522 384M522 352L550 368L522 384M522 352V384" stroke="#D4EDFC" stroke-opacity="0.1"/>
<path d="M494 336L466 352L494 368M494 336L522 352L494 368M494 336V368" stroke="#D4EDFC" stroke-opacity="0.1"/>
<path d="M494 272L466 288L494 304M494 272L522 288L494 304M494 272V304" stroke="#D4EDFC" stroke-opacity="0.1"/>
<path d="M494 240L466 256L494 272M494 240L522 256L494 272M494 240V272" stroke="#D4EDFC" stroke-opacity="0.1"/>
<path d="M550 240L522 256L550 272M550 240L578 256L550 272M550 240V272" stroke="#D4EDFC" stroke-opacity="0.1"/>
<path d="M522 256L494 272L522 288M522 256L550 272L522 288M522 256V288" stroke="#D4EDFC" stroke-opacity="0.1"/>
<path d="M550 336L522 352L550 368M550 336L578 352L550 368M550 336V368" stroke="#D4EDFC" stroke-opacity="0.1"/>
<path d="M550 368L522 384L550 400M550 368L578 384L550 400M550 368V400" stroke="#D4EDFC" stroke-opacity="0.1"/>
<path d="M494 368L466 384L494 400M494 368L522 384L494 400M494 368V400" stroke="#D4EDFC" stroke-opacity="0.1"/>
<path d="M522 288L466 320L522 352M522 288L578 320L522 352M522 288V352" stroke="#0172AD"/>
<path d="M578 256L522 288L578 320M578 256L634 288L578 320M578 256V320" stroke="#0172AD"/>
<path d="M578 320L522 352L578 384M578 320L634 352L578 384M578 320V384" stroke="#0172AD"/>
<path d="M522 352L466 384L522 416M522 352L578 384L522 416M522 352V416" stroke="#0172AD"/>
<path d="M466 320L410 352L466 384M466 320L522 352L466 384M466 320V384" stroke="#0172AD"/>
<path d="M466 256L410 288L466 320M466 256L522 288L466 320M466 256V320" stroke="#0172AD"/>
<path d="M522 224L466 256L522 288M522 224L578 256L522 288M522 224V288" stroke="#0172AD"/>
<path d="M578 256L466 320L578 384M578 256L690 320L578 384M578 256V384" stroke="#009FE3"/>
</g>
<g clip-path="url(#clip18_951_505418)">
<path d="M494 432L466 448L494 464M494 432L522 448L494 464M494 432V464" stroke="#D4EDFC" stroke-opacity="0.1"/>
<path d="M550 400L522 416L550 432M550 400L578 416L550 432M550 400V432" stroke="#D4EDFC" stroke-opacity="0.1"/>
<path d="M522 448L494 464L522 480M522 448L550 464L522 480M522 448V480" stroke="#D4EDFC" stroke-opacity="0.1"/>
<path d="M522 416L494 432L522 448M522 416L550 432L522 448M522 416V448" stroke="#D4EDFC" stroke-opacity="0.1"/>
<path d="M550 432L522 448L550 464M550 432L578 448L550 464M550 432V464" stroke="#D4EDFC" stroke-opacity="0.1"/>
<path d="M494 464L466 480L494 496M494 464L522 480L494 496M494 464V496" stroke="#D4EDFC" stroke-opacity="0.1"/>
<path d="M494 400L466 416L494 432M494 400L522 416L494 432M494 400V432" stroke="#D4EDFC" stroke-opacity="0.1"/>
<path d="M494 368L466 384L494 400M494 368L522 384L494 400M494 368V400" stroke="#D4EDFC" stroke-opacity="0.1"/>
<path d="M550 368L522 384L550 400M550 368L578 384L550 400M550 368V400" stroke="#D4EDFC" stroke-opacity="0.1"/>
<path d="M522 384L494 400L522 416M522 384L550 400L522 416M522 384V416" stroke="#D4EDFC" stroke-opacity="0.1"/>
<path d="M550 464L522 480L550 496M550 464L578 480L550 496M550 464V496" stroke="#D4EDFC" stroke-opacity="0.1"/>
<path d="M522 416L466 448L522 480M522 416L578 448L522 480M522 416V480" stroke="#0172AD"/>
<path d="M578 384L522 416L578 448M578 384L634 416L578 448M578 384V448" stroke="#0172AD"/>
<path d="M578 448L522 480L578 512M578 448L634 480L578 512M578 448V512" stroke="#0172AD"/>
<path d="M466 448L410 480L466 512M466 448L522 480L466 512M466 448V512" stroke="#0172AD"/>
<path d="M466 384L410 416L466 448M466 384L522 416L466 448M466 384V448" stroke="#0172AD"/>
<path d="M522 352L466 384L522 416M522 352L578 384L522 416M522 352V416" stroke="#0172AD"/>
<path d="M578 384L466 448L578 512M578 384L690 448L578 512M578 384V512" stroke="#009FE3"/>
</g>
</g>
</g>
</g>
</g>
<path d="M354.311 128L326.203 144V176L354.311 192L382.42 176V144L354.311 128Z" fill="#0172AD"/>
<path d="M185.655 128L157.547 144V176L185.655 192L213.764 176V144L185.655 128Z" fill="#015184"/>
<path d="M185.655 224L157.547 240V272L185.655 288L213.764 272V240L185.655 224Z" fill="#2BAFE9"/>
<path d="M354.311 224L326.203 240V272L354.311 288L382.42 272V240L354.311 224Z" fill="#67C5F0"/>
<path d="M199.703 168L269.974 208M269.974 208L340.244 168M269.974 208L213.757 240M269.974 208L326.19 240" stroke="#F8E117" stroke-linecap="round"/>
<path d="M280.201 208C280.201 209.395 279.184 210.761 277.313 211.807C275.457 212.843 272.86 213.5 269.964 213.5C267.068 213.5 264.471 212.843 262.616 211.807C260.744 210.761 259.727 209.395 259.727 208C259.727 206.606 260.744 205.24 262.616 204.194C264.471 203.157 267.068 202.5 269.964 202.5C272.86 202.5 275.457 203.157 277.313 204.194C279.184 205.24 280.201 206.606 280.201 208Z" stroke="#F8E117"/>
<defs>
<radialGradient id="paint0_diamond_951_505418" cx="0" cy="0" r="1" gradientUnits="userSpaceOnUse" gradientTransform="translate(263.446 216.5) rotate(71.516) scale(264.126 291.826)">
<stop stop-color="#D9D9D9"/>
<stop offset="1" stop-color="#D9D9D9" stop-opacity="0"/>
</radialGradient>
<clipPath id="clip0_951_505418">
<rect width="1120" height="1152" fill="white" transform="translate(18)"/>
</clipPath>
<clipPath id="clip1_951_505418">
<rect width="224" height="1152" fill="white" transform="translate(18)"/>
</clipPath>
<clipPath id="clip2_951_505418">
<rect width="224" height="1152" fill="white" transform="translate(18)"/>
</clipPath>
<clipPath id="clip3_951_505418">
<rect width="224" height="128" fill="white" transform="translate(18)"/>
</clipPath>
<clipPath id="clip4_951_505418">
<rect width="224" height="128" fill="white" transform="translate(18 128)"/>
</clipPath>
<clipPath id="clip5_951_505418">
<rect width="224" height="128" fill="white" transform="translate(18 256)"/>
</clipPath>
<clipPath id="clip6_951_505418">
<rect width="224" height="128" fill="white" transform="translate(18 384)"/>
</clipPath>
<clipPath id="clip7_951_505418">
<rect width="224" height="1152" fill="white" transform="translate(242)"/>
</clipPath>
<clipPath id="clip8_951_505418">
<rect width="224" height="1152" fill="white" transform="translate(242)"/>
</clipPath>
<clipPath id="clip9_951_505418">
<rect width="224" height="128" fill="white" transform="translate(242)"/>
</clipPath>
<clipPath id="clip10_951_505418">
<rect width="224" height="128" fill="white" transform="translate(242 128)"/>
</clipPath>
<clipPath id="clip11_951_505418">
<rect width="224" height="128" fill="white" transform="translate(242 256)"/>
</clipPath>
<clipPath id="clip12_951_505418">
<rect width="224" height="128" fill="white" transform="translate(242 384)"/>
</clipPath>
<clipPath id="clip13_951_505418">
<rect width="224" height="1152" fill="white" transform="translate(466)"/>
</clipPath>
<clipPath id="clip14_951_505418">
<rect width="224" height="1152" fill="white" transform="translate(466)"/>
</clipPath>
<clipPath id="clip15_951_505418">
<rect width="224" height="128" fill="white" transform="translate(466)"/>
</clipPath>
<clipPath id="clip16_951_505418">
<rect width="224" height="128" fill="white" transform="translate(466 128)"/>
</clipPath>
<clipPath id="clip17_951_505418">
<rect width="224" height="128" fill="white" transform="translate(466 256)"/>
</clipPath>
<clipPath id="clip18_951_505418">
<rect width="224" height="128" fill="white" transform="translate(466 384)"/>
</clipPath>
</defs>
</svg>
