<svg width="534" height="224" viewBox="0 0 534 224" fill="none" xmlns="http://www.w3.org/2000/svg">
<g clip-path="url(#clip0_951_505419)">
<mask id="mask0_951_505419" style="mask-type:alpha" maskUnits="userSpaceOnUse" x="74" y="-54" width="343" height="317">
<ellipse cx="245.5" cy="104.5" rx="171.5" ry="158.5" fill="url(#paint0_diamond_951_505419)" fill-opacity="0.5"/>
</mask>
<g mask="url(#mask0_951_505419)">
<g clip-path="url(#clip1_951_505419)">
<g clip-path="url(#clip2_951_505419)">
<g clip-path="url(#clip3_951_505419)">
<g clip-path="url(#clip4_951_505419)">
<path d="M196 -32L168 -16L196 0M196 -32L224 -16L196 0M196 -32V0" stroke="#D4EDFC" stroke-opacity="0.1"/>
<path d="M168 -16L140 0L168 16M168 -16L196 0L168 16M168 -16V16" stroke="#D4EDFC" stroke-opacity="0.1"/>
<path d="M56 -16L28 0L56 16M56 -16L84 0L56 16M56 -16V16" stroke="#D4EDFC" stroke-opacity="0.1"/>
<path d="M84 -32L56 -16L84 0M84 -32L112 -16L84 0M84 -32V0" stroke="#D4EDFC" stroke-opacity="0.1"/>
<path d="M112 -16L84 0L112 16M112 -16L140 0L112 16M112 -16V16" stroke="#D4EDFC" stroke-opacity="0.1"/>
<path d="M140 -32L112 -16L140 0M140 -32L168 -16L140 0M140 -32V0" stroke="#D4EDFC" stroke-opacity="0.1"/>
<path d="M140 0L112 16L140 32M140 0L168 16L140 32M140 0V32" stroke="#D4EDFC" stroke-opacity="0.1"/>
<path d="M196 0L168 16L196 32M196 0L224 16L196 32M196 0V32" stroke="#D4EDFC" stroke-opacity="0.1"/>
<path d="M84 0L56 16L84 32M84 0L112 16L84 32M84 0V32" stroke="#D4EDFC" stroke-opacity="0.1"/>
<path d="M112 -48L56 -16L112 16M112 -48L168 -16L112 16M112 -48V16" stroke="#0172AD"/>
<path d="M56 -16L0 16L56 48M56 -16L112 16L56 48M56 -16V48" stroke="#0172AD"/>
<path d="M224 -48L168 -16L224 16M224 -48L280 -16L224 16M224 -48V16" stroke="#0172AD"/>
<path d="M168 -16L112 16L168 48M168 -16L224 16L168 48M168 -16V48" stroke="#0172AD"/>
<path d="M112 -112L0 -48L112 16M112 -112L224 -48L112 16M112 -112V16" stroke="#009FE3"/>
</g>
<g clip-path="url(#clip5_951_505419)">
<path d="M140 0L112 16L140 32M140 0L168 16L140 32M140 0V32" stroke="#D4EDFC" stroke-opacity="0.1"/>
<path d="M168 16L140 32L168 48M168 16L196 32L168 48M168 16V48" stroke="#D4EDFC" stroke-opacity="0.1"/>
<path d="M196 0L168 16L196 32M196 0L224 16L196 32M196 0V32" stroke="#D4EDFC" stroke-opacity="0.1"/>
<path d="M140 64L112 80L140 96M140 64L168 80L140 96M140 64V96" stroke="#D4EDFC" stroke-opacity="0.1"/>
<path d="M84 32L56 48L84 64M84 32L112 48L84 64M84 32V64" stroke="#D4EDFC" stroke-opacity="0.1"/>
<path d="M56 80L28 96L56 112M56 80L84 96L56 112M56 80V112" stroke="#D4EDFC" stroke-opacity="0.1"/>
<path d="M168 80L140 96L168 112M168 80L196 96L168 112M168 80V112" stroke="#D4EDFC" stroke-opacity="0.1"/>
<path d="M112 48L84 64L112 80M112 48L140 64L112 80M112 48V80" stroke="#D4EDFC" stroke-opacity="0.1"/>
<path d="M56 48L28 64L56 80M56 48L84 64L56 80M56 48V80" stroke="#D4EDFC" stroke-opacity="0.1"/>
<path d="M168 48L140 64L168 80M168 48L196 64L168 80M168 48V80" stroke="#D4EDFC" stroke-opacity="0.1"/>
<path d="M112 16L84 32L112 48M112 16L140 32L112 48M112 16V48" stroke="#D4EDFC" stroke-opacity="0.1"/>
<path d="M84 64L56 80L84 96M84 64L112 80L84 96M84 64V96" stroke="#D4EDFC" stroke-opacity="0.1"/>
<path d="M196 64L168 80L196 96M196 64L224 80L196 96M196 64V96" stroke="#D4EDFC" stroke-opacity="0.1"/>
<path d="M140 32L112 48L140 64M140 32L168 48L140 64M140 32V64" stroke="#D4EDFC" stroke-opacity="0.1"/>
<path d="M196 32L168 48L196 64M196 32L224 48L196 64M196 32V64" stroke="#D4EDFC" stroke-opacity="0.1"/>
<path d="M196 96L168 112L196 128M196 96L224 112L196 128M196 96V128" stroke="#D4EDFC" stroke-opacity="0.1"/>
<path d="M168 112L140 128L168 144M168 112L196 128L168 144M168 112V144" stroke="#D4EDFC" stroke-opacity="0.1"/>
<path d="M56 112L28 128L56 144M56 112L84 128L56 144M56 112V144" stroke="#D4EDFC" stroke-opacity="0.1"/>
<path d="M84 0L56 16L84 32M84 0L112 16L84 32M84 0V32" stroke="#D4EDFC" stroke-opacity="0.1"/>
<path d="M56 16L28 32L56 48M56 16L84 32L56 48M56 16V48" stroke="#D4EDFC" stroke-opacity="0.1"/>
<path d="M112 80L84 96L112 112M112 80L140 96L112 112M112 80V112" stroke="#D4EDFC" stroke-opacity="0.1"/>
<path d="M84 96L56 112L84 128M84 96L112 112L84 128M84 96V128" stroke="#D4EDFC" stroke-opacity="0.1"/>
<path d="M112 112L84 128L112 144M112 112L140 128L112 144M112 112V144" stroke="#D4EDFC" stroke-opacity="0.1"/>
<path d="M140 96L112 112L140 128M140 96L168 112L140 128M140 96V128" stroke="#D4EDFC" stroke-opacity="0.1"/>
<path d="M140 128L112 144L140 160M140 128L168 144L140 160M140 128V160" stroke="#D4EDFC" stroke-opacity="0.1"/>
<path d="M196 128L168 144L196 160M196 128L224 144L196 160M196 128V160" stroke="#D4EDFC" stroke-opacity="0.1"/>
<path d="M84 128L56 144L84 160M84 128L112 144L84 160M84 128V160" stroke="#D4EDFC" stroke-opacity="0.1"/>
<path d="M56 48L0 80L56 112M56 48L112 80L56 112M56 48V112" stroke="#0172AD"/>
<path d="M112 16L56 48L112 80M112 16L168 48L112 80M112 16V80" stroke="#0172AD"/>
<path d="M168 48L112 80L168 112M168 48L224 80L168 112M168 48V112" stroke="#0172AD"/>
<path d="M112 80L56 112L112 144M112 80L168 112L112 144M112 80V144" stroke="#0172AD"/>
<path d="M56 112L0 144L56 176M56 112L112 144L56 176M56 112V176" stroke="#0172AD"/>
<path d="M56 -16L0 16L56 48M56 -16L112 16L56 48M56 -16V48" stroke="#0172AD"/>
<path d="M168 -16L112 16L168 48M168 -16L224 16L168 48M168 -16V48" stroke="#0172AD"/>
<path d="M224 16L168 48L224 80M224 16L280 48L224 80M224 16V80" stroke="#0172AD"/>
<path d="M224 80L168 112L224 144M224 80L280 112L224 144M224 80V144" stroke="#0172AD"/>
<path d="M168 112L112 144L168 176M168 112L224 144L168 176M168 112V176" stroke="#0172AD"/>
<path d="M112 16L0 80L112 144M112 16L224 80L112 144M112 16V144" stroke="#009FE3"/>
</g>
<g clip-path="url(#clip6_951_505419)">
<path d="M140 128L112 144L140 160M140 128L168 144L140 160M140 128V160" stroke="#D4EDFC" stroke-opacity="0.1"/>
<path d="M168 144L140 160L168 176M168 144L196 160L168 176M168 144V176" stroke="#D4EDFC" stroke-opacity="0.1"/>
<path d="M196 128L168 144L196 160M196 128L224 144L196 160M196 128V160" stroke="#D4EDFC" stroke-opacity="0.1"/>
<path d="M140 192L112 208L140 224M140 192L168 208L140 224M140 192V224" stroke="#D4EDFC" stroke-opacity="0.1"/>
<path d="M84 160L56 176L84 192M84 160L112 176L84 192M84 160V192" stroke="#D4EDFC" stroke-opacity="0.1"/>
<path d="M56 208L28 224L56 240M56 208L84 224L56 240M56 208V240" stroke="#D4EDFC" stroke-opacity="0.1"/>
<path d="M168 208L140 224L168 240M168 208L196 224L168 240M168 208V240" stroke="#D4EDFC" stroke-opacity="0.1"/>
<path d="M112 176L84 192L112 208M112 176L140 192L112 208M112 176V208" stroke="#D4EDFC" stroke-opacity="0.1"/>
<path d="M56 176L28 192L56 208M56 176L84 192L56 208M56 176V208" stroke="#D4EDFC" stroke-opacity="0.1"/>
<path d="M168 176L140 192L168 208M168 176L196 192L168 208M168 176V208" stroke="#D4EDFC" stroke-opacity="0.1"/>
<path d="M112 144L84 160L112 176M112 144L140 160L112 176M112 144V176" stroke="#D4EDFC" stroke-opacity="0.1"/>
<path d="M84 192L56 208L84 224M84 192L112 208L84 224M84 192V224" stroke="#D4EDFC" stroke-opacity="0.1"/>
<path d="M196 192L168 208L196 224M196 192L224 208L196 224M196 192V224" stroke="#D4EDFC" stroke-opacity="0.1"/>
<path d="M140 160L112 176L140 192M140 160L168 176L140 192M140 160V192" stroke="#D4EDFC" stroke-opacity="0.1"/>
<path d="M196 160L168 176L196 192M196 160L224 176L196 192M196 160V192" stroke="#D4EDFC" stroke-opacity="0.1"/>
<path d="M196 224L168 240L196 256M196 224L224 240L196 256M196 224V256" stroke="#D4EDFC" stroke-opacity="0.1"/>
<path d="M84 128L56 144L84 160M84 128L112 144L84 160M84 128V160" stroke="#D4EDFC" stroke-opacity="0.1"/>
<path d="M56 144L28 160L56 176M56 144L84 160L56 176M56 144V176" stroke="#D4EDFC" stroke-opacity="0.1"/>
<path d="M112 208L84 224L112 240M112 208L140 224L112 240M112 208V240" stroke="#D4EDFC" stroke-opacity="0.1"/>
<path d="M84 224L56 240L84 256M84 224L112 240L84 256M84 224V256" stroke="#D4EDFC" stroke-opacity="0.1"/>
<path d="M140 224L112 240L140 256M140 224L168 240L140 256M140 224V256" stroke="#D4EDFC" stroke-opacity="0.1"/>
<path d="M56 176L0 208L56 240M56 176L112 208L56 240M56 176V240" stroke="#0172AD"/>
<path d="M112 144L56 176L112 208M112 144L168 176L112 208M112 144V208" stroke="#0172AD"/>
<path d="M168 176L112 208L168 240M168 176L224 208L168 240M168 176V240" stroke="#0172AD"/>
<path d="M112 208L56 240L112 272M112 208L168 240L112 272M112 208V272" stroke="#0172AD"/>
<path d="M56 112L0 144L56 176M56 112L112 144L56 176M56 112V176" stroke="#0172AD"/>
<path d="M168 112L112 144L168 176M168 112L224 144L168 176M168 112V176" stroke="#0172AD"/>
<path d="M224 144L168 176L224 208M224 144L280 176L224 208M224 144V208" stroke="#0172AD"/>
<path d="M224 208L168 240L224 272M224 208L280 240L224 272M224 208V272" stroke="#0172AD"/>
<path d="M112 144L0 208L112 272M112 144L224 208L112 272M112 144V272" stroke="#009FE3"/>
</g>
</g>
</g>
<g clip-path="url(#clip7_951_505419)">
<g clip-path="url(#clip8_951_505419)">
<g clip-path="url(#clip9_951_505419)">
<path d="M420 -32L392 -16L420 0M420 -32L448 -16L420 0M420 -32V0" stroke="#D4EDFC" stroke-opacity="0.1"/>
<path d="M392 -16L364 0L392 16M392 -16L420 0L392 16M392 -16V16" stroke="#D4EDFC" stroke-opacity="0.1"/>
<path d="M280 -16L252 0L280 16M280 -16L308 0L280 16M280 -16V16" stroke="#D4EDFC" stroke-opacity="0.1"/>
<path d="M252 -32L224 -16L252 0M252 -32L280 -16L252 0M252 -32V0" stroke="#D4EDFC" stroke-opacity="0.1"/>
<path d="M308 -32L280 -16L308 0M308 -32L336 -16L308 0M308 -32V0" stroke="#D4EDFC" stroke-opacity="0.1"/>
<path d="M336 -16L308 0L336 16M336 -16L364 0L336 16M336 -16V16" stroke="#D4EDFC" stroke-opacity="0.1"/>
<path d="M364 -32L336 -16L364 0M364 -32L392 -16L364 0M364 -32V0" stroke="#D4EDFC" stroke-opacity="0.1"/>
<path d="M364 0L336 16L364 32M364 0L392 16L364 32M364 0V32" stroke="#D4EDFC" stroke-opacity="0.1"/>
<path d="M420 0L392 16L420 32M420 0L448 16L420 32M420 0V32" stroke="#D4EDFC" stroke-opacity="0.1"/>
<path d="M308 0L280 16L308 32M308 0L336 16L308 32M308 0V32" stroke="#D4EDFC" stroke-opacity="0.1"/>
<path d="M252 0L224 16L252 32M252 0L280 16L252 32M252 0V32" stroke="#D4EDFC" stroke-opacity="0.1"/>
<path d="M336 -48L280 -16L336 16M336 -48L392 -16L336 16M336 -48V16" stroke="#0172AD"/>
<path d="M280 -16L224 16L280 48M280 -16L336 16L280 48M280 -16V48" stroke="#0172AD"/>
<path d="M224 -48L168 -16L224 16M224 -48L280 -16L224 16M224 -48V16" stroke="#0172AD"/>
<path d="M448 -48L392 -16L448 16M448 -48L504 -16L448 16M448 -48V16" stroke="#0172AD"/>
<path d="M392 -16L336 16L392 48M392 -16L448 16L392 48M392 -16V48" stroke="#0172AD"/>
<path d="M336 -112L224 -48L336 16M336 -112L448 -48L336 16M336 -112V16" stroke="#009FE3"/>
</g>
<g clip-path="url(#clip10_951_505419)">
<path d="M364 0L336 16L364 32M364 0L392 16L364 32M364 0V32" stroke="#D4EDFC" stroke-opacity="0.1"/>
<path d="M392 16L364 32L392 48M392 16L420 32L392 48M392 16V48" stroke="#D4EDFC" stroke-opacity="0.1"/>
<path d="M420 0L392 16L420 32M420 0L448 16L420 32M420 0V32" stroke="#D4EDFC" stroke-opacity="0.1"/>
<path d="M252 64L224 80L252 96M252 64L280 80L252 96M252 64V96" stroke="#D4EDFC" stroke-opacity="0.1"/>
<path d="M364 64L336 80L364 96M364 64L392 80L364 96M364 64V96" stroke="#D4EDFC" stroke-opacity="0.1"/>
<path d="M308 32L280 48L308 64M308 32L336 48L308 64M308 32V64" stroke="#D4EDFC" stroke-opacity="0.1"/>
<path d="M280 80L252 96L280 112M280 80L308 96L280 112M280 80V112" stroke="#D4EDFC" stroke-opacity="0.1"/>
<path d="M392 80L364 96L392 112M392 80L420 96L392 112M392 80V112" stroke="#D4EDFC" stroke-opacity="0.1"/>
<path d="M336 48L308 64L336 80M336 48L364 64L336 80M336 48V80" stroke="#D4EDFC" stroke-opacity="0.1"/>
<path d="M280 48L252 64L280 80M280 48L308 64L280 80M280 48V80" stroke="#D4EDFC" stroke-opacity="0.1"/>
<path d="M392 48L364 64L392 80M392 48L420 64L392 80M392 48V80" stroke="#D4EDFC" stroke-opacity="0.1"/>
<path d="M336 16L308 32L336 48M336 16L364 32L336 48M336 16V48" stroke="#D4EDFC" stroke-opacity="0.1"/>
<path d="M308 64L280 80L308 96M308 64L336 80L308 96M308 64V96" stroke="#D4EDFC" stroke-opacity="0.1"/>
<path d="M420 64L392 80L420 96M420 64L448 80L420 96M420 64V96" stroke="#D4EDFC" stroke-opacity="0.1"/>
<path d="M364 32L336 48L364 64M364 32L392 48L364 64M364 32V64" stroke="#D4EDFC" stroke-opacity="0.1"/>
<path d="M420 32L392 48L420 64M420 32L448 48L420 64M420 32V64" stroke="#D4EDFC" stroke-opacity="0.1"/>
<path d="M420 96L392 112L420 128M420 96L448 112L420 128M420 96V128" stroke="#D4EDFC" stroke-opacity="0.1"/>
<path d="M392 112L364 128L392 144M392 112L420 128L392 144M392 112V144" stroke="#D4EDFC" stroke-opacity="0.1"/>
<path d="M280 112L252 128L280 144M280 112L308 128L280 144M280 112V144" stroke="#D4EDFC" stroke-opacity="0.1"/>
<path d="M252 96L224 112L252 128M252 96L280 112L252 128M252 96V128" stroke="#D4EDFC" stroke-opacity="0.1"/>
<path d="M252 32L224 48L252 64M252 32L280 48L252 64M252 32V64" stroke="#D4EDFC" stroke-opacity="0.1"/>
<path d="M252 0L224 16L252 32M252 0L280 16L252 32M252 0V32" stroke="#D4EDFC" stroke-opacity="0.1"/>
<path d="M308 0L280 16L308 32M308 0L336 16L308 32M308 0V32" stroke="#D4EDFC" stroke-opacity="0.1"/>
<path d="M280 16L252 32L280 48M280 16L308 32L280 48M280 16V48" stroke="#D4EDFC" stroke-opacity="0.1"/>
<path d="M336 80L308 96L336 112M336 80L364 96L336 112M336 80V112" stroke="#D4EDFC" stroke-opacity="0.1"/>
<path d="M308 96L280 112L308 128M308 96L336 112L308 128M308 96V128" stroke="#D4EDFC" stroke-opacity="0.1"/>
<path d="M336 112L308 128L336 144M336 112L364 128L336 144M336 112V144" stroke="#D4EDFC" stroke-opacity="0.1"/>
<path d="M364 96L336 112L364 128M364 96L392 112L364 128M364 96V128" stroke="#D4EDFC" stroke-opacity="0.1"/>
<path d="M364 128L336 144L364 160M364 128L392 144L364 160M364 128V160" stroke="#D4EDFC" stroke-opacity="0.1"/>
<path d="M420 128L392 144L420 160M420 128L448 144L420 160M420 128V160" stroke="#D4EDFC" stroke-opacity="0.1"/>
<path d="M308 128L280 144L308 160M308 128L336 144L308 160M308 128V160" stroke="#D4EDFC" stroke-opacity="0.1"/>
<path d="M252 128L224 144L252 160M252 128L280 144L252 160M252 128V160" stroke="#D4EDFC" stroke-opacity="0.1"/>
<path d="M280 48L224 80L280 112M280 48L336 80L280 112M280 48V112" stroke="#0172AD"/>
<path d="M336 16L280 48L336 80M336 16L392 48L336 80M336 16V80" stroke="#0172AD"/>
<path d="M392 48L336 80L392 112M392 48L448 80L392 112M392 48V112" stroke="#0172AD"/>
<path d="M336 80L280 112L336 144M336 80L392 112L336 144M336 80V144" stroke="#0172AD"/>
<path d="M280 112L224 144L280 176M280 112L336 144L280 176M280 112V176" stroke="#0172AD"/>
<path d="M224 80L168 112L224 144M224 80L280 112L224 144M224 80V144" stroke="#0172AD"/>
<path d="M224 16L168 48L224 80M224 16L280 48L224 80M224 16V80" stroke="#0172AD"/>
<path d="M280 -16L224 16L280 48M280 -16L336 16L280 48M280 -16V48" stroke="#0172AD"/>
<path d="M392 -16L336 16L392 48M392 -16L448 16L392 48M392 -16V48" stroke="#0172AD"/>
<path d="M448 16L392 48L448 80M448 16L504 48L448 80M448 16V80" stroke="#0172AD"/>
<path d="M448 80L392 112L448 144M448 80L504 112L448 144M448 80V144" stroke="#0172AD"/>
<path d="M392 112L336 144L392 176M392 112L448 144L392 176M392 112V176" stroke="#0172AD"/>
<path d="M336 16L224 80L336 144M336 16L448 80L336 144M336 16V144" stroke="#009FE3"/>
</g>
<g clip-path="url(#clip11_951_505419)">
<path d="M364 128L336 144L364 160M364 128L392 144L364 160M364 128V160" stroke="#D4EDFC" stroke-opacity="0.1"/>
<path d="M392 144L364 160L392 176M392 144L420 160L392 176M392 144V176" stroke="#D4EDFC" stroke-opacity="0.1"/>
<path d="M420 128L392 144L420 160M420 128L448 144L420 160M420 128V160" stroke="#D4EDFC" stroke-opacity="0.1"/>
<path d="M252 192L224 208L252 224M252 192L280 208L252 224M252 192V224" stroke="#D4EDFC" stroke-opacity="0.1"/>
<path d="M364 192L336 208L364 224M364 192L392 208L364 224M364 192V224" stroke="#D4EDFC" stroke-opacity="0.1"/>
<path d="M308 160L280 176L308 192M308 160L336 176L308 192M308 160V192" stroke="#D4EDFC" stroke-opacity="0.1"/>
<path d="M280 208L252 224L280 240M280 208L308 224L280 240M280 208V240" stroke="#D4EDFC" stroke-opacity="0.1"/>
<path d="M392 208L364 224L392 240M392 208L420 224L392 240M392 208V240" stroke="#D4EDFC" stroke-opacity="0.1"/>
<path d="M336 176L308 192L336 208M336 176L364 192L336 208M336 176V208" stroke="#D4EDFC" stroke-opacity="0.1"/>
<path d="M280 176L252 192L280 208M280 176L308 192L280 208M280 176V208" stroke="#D4EDFC" stroke-opacity="0.1"/>
<path d="M392 176L364 192L392 208M392 176L420 192L392 208M392 176V208" stroke="#D4EDFC" stroke-opacity="0.1"/>
<path d="M336 144L308 160L336 176M336 144L364 160L336 176M336 144V176" stroke="#D4EDFC" stroke-opacity="0.1"/>
<path d="M308 192L280 208L308 224M308 192L336 208L308 224M308 192V224" stroke="#D4EDFC" stroke-opacity="0.1"/>
<path d="M420 192L392 208L420 224M420 192L448 208L420 224M420 192V224" stroke="#D4EDFC" stroke-opacity="0.1"/>
<path d="M364 160L336 176L364 192M364 160L392 176L364 192M364 160V192" stroke="#D4EDFC" stroke-opacity="0.1"/>
<path d="M420 160L392 176L420 192M420 160L448 176L420 192M420 160V192" stroke="#D4EDFC" stroke-opacity="0.1"/>
<path d="M420 224L392 240L420 256M420 224L448 240L420 256M420 224V256" stroke="#D4EDFC" stroke-opacity="0.1"/>
<path d="M252 224L224 240L252 256M252 224L280 240L252 256M252 224V256" stroke="#D4EDFC" stroke-opacity="0.1"/>
<path d="M252 160L224 176L252 192M252 160L280 176L252 192M252 160V192" stroke="#D4EDFC" stroke-opacity="0.1"/>
<path d="M252 128L224 144L252 160M252 128L280 144L252 160M252 128V160" stroke="#D4EDFC" stroke-opacity="0.1"/>
<path d="M308 128L280 144L308 160M308 128L336 144L308 160M308 128V160" stroke="#D4EDFC" stroke-opacity="0.1"/>
<path d="M280 144L252 160L280 176M280 144L308 160L280 176M280 144V176" stroke="#D4EDFC" stroke-opacity="0.1"/>
<path d="M336 208L308 224L336 240M336 208L364 224L336 240M336 208V240" stroke="#D4EDFC" stroke-opacity="0.1"/>
<path d="M308 224L280 240L308 256M308 224L336 240L308 256M308 224V256" stroke="#D4EDFC" stroke-opacity="0.1"/>
<path d="M364 224L336 240L364 256M364 224L392 240L364 256M364 224V256" stroke="#D4EDFC" stroke-opacity="0.1"/>
<path d="M280 176L224 208L280 240M280 176L336 208L280 240M280 176V240" stroke="#0172AD"/>
<path d="M336 144L280 176L336 208M336 144L392 176L336 208M336 144V208" stroke="#0172AD"/>
<path d="M392 176L336 208L392 240M392 176L448 208L392 240M392 176V240" stroke="#0172AD"/>
<path d="M336 208L280 240L336 272M336 208L392 240L336 272M336 208V272" stroke="#0172AD"/>
<path d="M224 208L168 240L224 272M224 208L280 240L224 272M224 208V272" stroke="#0172AD"/>
<path d="M224 144L168 176L224 208M224 144L280 176L224 208M224 144V208" stroke="#0172AD"/>
<path d="M280 112L224 144L280 176M280 112L336 144L280 176M280 112V176" stroke="#0172AD"/>
<path d="M392 112L336 144L392 176M392 112L448 144L392 176M392 112V176" stroke="#0172AD"/>
<path d="M448 144L392 176L448 208M448 144L504 176L448 208M448 144V208" stroke="#0172AD"/>
<path d="M448 208L392 240L448 272M448 208L504 240L448 272M448 208V272" stroke="#0172AD"/>
<path d="M336 144L224 208L336 272M336 144L448 208L336 272M336 144V272" stroke="#009FE3"/>
</g>
</g>
</g>
</g>
</g>
<path d="M240.48 191L236.386 186.875L244.429 178.786C244.887 178.325 245.474 178.033 246.118 177.953L304.992 170.551C307.887 170.187 310.614 168.853 312.664 166.782L361.742 117.416C365.048 114.099 365.048 108.688 361.742 105.355C358.436 102.031 353.048 102.039 349.758 105.363L299.836 146.18C296.41 149.447 291.785 151.453 286.694 151.453H246.48V145.621H286.694C289.887 145.621 292.831 144.481 295.123 142.596L295.091 142.548L296.024 141.779C298.453 139.377 299.949 136.044 299.949 132.372C299.949 129.508 297.608 127.179 294.737 127.179H232.477V121.347H294.737C300.809 121.347 305.747 126.281 305.747 132.348C305.747 132.857 305.723 133.375 305.683 133.868L345.881 101.019C351.214 95.6323 360.278 95.6242 365.828 101.214C371.393 106.811 371.385 115.919 365.836 121.517L316.758 170.875C313.798 173.852 309.874 175.785 305.699 176.311L247.815 183.583L240.48 191ZM168.102 190.992L164 186.883L187.357 163.344C189.07 139.684 208.678 121.314 232.477 121.314V127.147C211.389 127.147 194.08 143.672 193.067 164.768C193.035 165.488 192.729 166.175 192.23 166.677L168.102 190.992Z" fill="#009FE3"/>
<path opacity="0.5" d="M252 32L280 16L308 32V64L280 80L252 64V32Z" fill="#009FE3"/>
</g>
<defs>
<radialGradient id="paint0_diamond_951_505419" cx="0" cy="0" r="1" gradientUnits="userSpaceOnUse" gradientTransform="translate(245.5 104.5) rotate(71.4838) scale(167.153 184.959)">
<stop stop-color="#D9D9D9"/>
<stop offset="1" stop-color="#D9D9D9" stop-opacity="0"/>
</radialGradient>
<clipPath id="clip0_951_505419">
<rect width="534" height="224" fill="white"/>
</clipPath>
<clipPath id="clip1_951_505419">
<rect width="1120" height="1152" fill="white" transform="translate(0 -112)"/>
</clipPath>
<clipPath id="clip2_951_505419">
<rect width="224" height="1152" fill="white" transform="translate(0 -112)"/>
</clipPath>
<clipPath id="clip3_951_505419">
<rect width="224" height="1152" fill="white" transform="translate(0 -112)"/>
</clipPath>
<clipPath id="clip4_951_505419">
<rect width="224" height="128" fill="white" transform="translate(0 -112)"/>
</clipPath>
<clipPath id="clip5_951_505419">
<rect width="224" height="128" fill="white" transform="translate(0 16)"/>
</clipPath>
<clipPath id="clip6_951_505419">
<rect width="224" height="128" fill="white" transform="translate(0 144)"/>
</clipPath>
<clipPath id="clip7_951_505419">
<rect width="224" height="1152" fill="white" transform="translate(224 -112)"/>
</clipPath>
<clipPath id="clip8_951_505419">
<rect width="224" height="1152" fill="white" transform="translate(224 -112)"/>
</clipPath>
<clipPath id="clip9_951_505419">
<rect width="224" height="128" fill="white" transform="translate(224 -112)"/>
</clipPath>
<clipPath id="clip10_951_505419">
<rect width="224" height="128" fill="white" transform="translate(224 16)"/>
</clipPath>
<clipPath id="clip11_951_505419">
<rect width="224" height="128" fill="white" transform="translate(224 144)"/>
</clipPath>
</defs>
</svg>
