<svg xmlns="http://www.w3.org/2000/svg" fill="none" viewBox="0 0 711 948"><g clip-path="url(#a)" opacity=".3"><mask id="c" width="694" height="863" x="0" y="-21" maskUnits="userSpaceOnUse" style="mask-type:alpha"><ellipse cx="346.613" cy="410.611" fill="url(#b)" rx="346.613" ry="430.667"/></mask><g clip-path="url(#d)" mask="url(#c)"><g clip-path="url(#e)"><g stroke-width="2" clip-path="url(#f)"><g clip-path="url(#g)"><path stroke="#D4EDFC" stroke-opacity=".1" d="m140-28-28 16 28 16m0-32 28 16-28 16m0-32V4M168-12 140 4l28 16m0-32 28 16-28 16m0-32v32"/><path stroke="#D4EDFC" stroke-opacity=".1" d="m196-28-28 16 28 16m0-32 28 16-28 16m0-32V4M28 36 0 52l28 16m0-32 28 16-28 16m0-32v32M140 36l-28 16 28 16m0-32 28 16-28 16m0-32v32M84 4 56 20l28 16m0-32 28 16-28 16m0-32v32M56 52 28 68l28 16m0-32 28 16-28 16m0-32v32M168 52l-28 16 28 16m0-32 28 16-28 16m0-32v32"/><path stroke="#D4EDFC" stroke-opacity=".1" d="M112 20 84 36l28 16m0-32 28 16-28 16m0-32v32M56 20 28 36l28 16m0-32 28 16-28 16m0-32v32M168 20l-28 16 28 16m0-32 28 16-28 16m0-32v32M112-12 84 4l28 16m0-32 28 16-28 16m0-32v32"/><path stroke="#D4EDFC" stroke-opacity=".1" d="M84 36 56 52l28 16m0-32 28 16-28 16m0-32v32M196 36l-28 16 28 16m0-32 28 16-28 16m0-32v32M140 4l-28 16 28 16m0-32 28 16-28 16m0-32v32M196 4l-28 16 28 16m0-32 28 16-28 16m0-32v32M196 68l-28 16 28 16m0-32 28 16-28 16m0-32v32"/><path stroke="#D4EDFC" stroke-opacity=".1" d="m168 84-28 16 28 16m0-32 28 16-28 16m0-32v32M56 84l-28 16 28 16m0-32 28 16-28 16m0-32v32"/><path stroke="#D4EDFC" stroke-opacity=".1" d="M28 68 0 84l28 16m0-32 28 16-28 16m0-32v32M28 4 0 20l28 16m0-32 28 16-28 16m0-32v32M28-28 0-12 28 4m0-32 28 16L28 4m0-32V4M84-28 56-12 84 4m0-32 28 16L84 4m0-32V4"/><path stroke="#D4EDFC" stroke-opacity=".1" d="M56-12 28 4l28 16m0-32L84 4 56 20m0-32v32M112 52 84 68l28 16m0-32 28 16-28 16m0-32v32"/><path stroke="#D4EDFC" stroke-opacity=".1" d="M84 68 56 84l28 16m0-32 28 16-28 16m0-32v32M112 84l-28 16 28 16m0-32 28 16-28 16m0-32v32"/><path stroke="#D4EDFC" stroke-opacity=".1" d="m140 68-28 16 28 16m0-32 28 16-28 16m0-32v32M140 100l-28 16 28 16m0-32 28 16-28 16m0-32v32M196 100l-28 16 28 16m0-32 28 16-28 16m0-32v32M84 100l-28 16 28 16m0-32 28 16-28 16m0-32v32M28 100 0 116l28 16m0-32 28 16-28 16m0-32v32"/><path stroke="#0172AD" d="M56 20 0 52l56 32m0-64 56 32-56 32m0-64v64"/><path stroke="#0172AD" d="M112-12 56 20l56 32m0-64 56 32-56 32m0-64v64M168 20l-56 32 56 32m0-64 56 32-56 32m0-64v64"/><path stroke="#0172AD" d="M112 52 56 84l56 32m0-64 56 32-56 32m0-64v64"/><path stroke="#0172AD" d="M56 84 0 116l56 32m0-64 56 32-56 32m0-64v64"/><path stroke="#0172AD" d="m0 52-56 32 56 32m0-64 56 32-56 32m0-64v64M0-12l-56 32L0 52m0-64 56 32L0 52m0-64v64"/><path stroke="#0172AD" d="M56-44 0-12l56 32m0-64 56 32-56 32m0-64v64M168-44l-56 32 56 32m0-64 56 32-56 32m0-64v64M224-12l-56 32 56 32m0-64 56 32-56 32m0-64v64M224 52l-56 32 56 32m0-64 56 32-56 32m0-64v64"/><path stroke="#0172AD" d="m168 84-56 32 56 32m0-64 56 32-56 32m0-64v64"/><path stroke="#009FE3" d="M112-12 0 52l112 64m0-128 112 64-112 64m0-128v128"/></g><g clip-path="url(#h)"><path stroke="#D4EDFC" stroke-opacity=".1" d="m140 100-28 16 28 16m0-32 28 16-28 16m0-32v32M168 116l-28 16 28 16m0-32 28 16-28 16m0-32v32"/><path stroke="#D4EDFC" stroke-opacity=".1" d="m196 100-28 16 28 16m0-32 28 16-28 16m0-32v32M28 164 0 180l28 16m0-32 28 16-28 16m0-32v32M140 164l-28 16 28 16m0-32 28 16-28 16m0-32v32M84 132l-28 16 28 16m0-32 28 16-28 16m0-32v32M56 180l-28 16 28 16m0-32 28 16-28 16m0-32v32M168 180l-28 16 28 16m0-32 28 16-28 16m0-32v32"/><path stroke="#D4EDFC" stroke-opacity=".1" d="m112 148-28 16 28 16m0-32 28 16-28 16m0-32v32M56 148l-28 16 28 16m0-32 28 16-28 16m0-32v32M168 148l-28 16 28 16m0-32 28 16-28 16m0-32v32M112 116l-28 16 28 16m0-32 28 16-28 16m0-32v32"/><path stroke="#D4EDFC" stroke-opacity=".1" d="m84 164-28 16 28 16m0-32 28 16-28 16m0-32v32M196 164l-28 16 28 16m0-32 28 16-28 16m0-32v32M140 132l-28 16 28 16m0-32 28 16-28 16m0-32v32M196 132l-28 16 28 16m0-32 28 16-28 16m0-32v32M196 196l-28 16 28 16m0-32 28 16-28 16m0-32v32"/><path stroke="#D4EDFC" stroke-opacity=".1" d="m168 212-28 16 28 16m0-32 28 16-28 16m0-32v32M56 212l-28 16 28 16m0-32 28 16-28 16m0-32v32"/><path stroke="#D4EDFC" stroke-opacity=".1" d="M28 196 0 212l28 16m0-32 28 16-28 16m0-32v32M28 132 0 148l28 16m0-32 28 16-28 16m0-32v32M28 100 0 116l28 16m0-32 28 16-28 16m0-32v32M84 100l-28 16 28 16m0-32 28 16-28 16m0-32v32"/><path stroke="#D4EDFC" stroke-opacity=".1" d="m56 116-28 16 28 16m0-32 28 16-28 16m0-32v32M112 180l-28 16 28 16m0-32 28 16-28 16m0-32v32"/><path stroke="#D4EDFC" stroke-opacity=".1" d="m84 196-28 16 28 16m0-32 28 16-28 16m0-32v32M112 212l-28 16 28 16m0-32 28 16-28 16m0-32v32"/><path stroke="#D4EDFC" stroke-opacity=".1" d="m140 196-28 16 28 16m0-32 28 16-28 16m0-32v32M140 228l-28 16 28 16m0-32 28 16-28 16m0-32v32M196 228l-28 16 28 16m0-32 28 16-28 16m0-32v32M84 228l-28 16 28 16m0-32 28 16-28 16m0-32v32M28 228 0 244l28 16m0-32 28 16-28 16m0-32v32"/><path stroke="#0172AD" d="M56 148 0 180l56 32m0-64 56 32-56 32m0-64v64"/><path stroke="#0172AD" d="m112 116-56 32 56 32m0-64 56 32-56 32m0-64v64M168 148l-56 32 56 32m0-64 56 32-56 32m0-64v64"/><path stroke="#0172AD" d="m112 180-56 32 56 32m0-64 56 32-56 32m0-64v64"/><path stroke="#0172AD" d="M56 212 0 244l56 32m0-64 56 32-56 32m0-64v64"/><path stroke="#0172AD" d="m0 180-56 32 56 32m0-64 56 32-56 32m0-64v64M0 116l-56 32 56 32m0-64 56 32-56 32m0-64v64"/><path stroke="#0172AD" d="M56 84 0 116l56 32m0-64 56 32-56 32m0-64v64M168 84l-56 32 56 32m0-64 56 32-56 32m0-64v64M224 116l-56 32 56 32m0-64 56 32-56 32m0-64v64M224 180l-56 32 56 32m0-64 56 32-56 32m0-64v64"/><path stroke="#0172AD" d="m168 212-56 32 56 32m0-64 56 32-56 32m0-64v64"/><path stroke="#009FE3" d="M112 116 0 180l112 64m0-128 112 64-112 64m0-128v128"/></g><g clip-path="url(#i)"><path stroke="#D4EDFC" stroke-opacity=".1" d="m140 228-28 16 28 16m0-32 28 16-28 16m0-32v32M168 244l-28 16 28 16m0-32 28 16-28 16m0-32v32"/><path stroke="#D4EDFC" stroke-opacity=".1" d="m196 228-28 16 28 16m0-32 28 16-28 16m0-32v32M28 292 0 308l28 16m0-32 28 16-28 16m0-32v32M140 292l-28 16 28 16m0-32 28 16-28 16m0-32v32M84 260l-28 16 28 16m0-32 28 16-28 16m0-32v32M56 308l-28 16 28 16m0-32 28 16-28 16m0-32v32M168 308l-28 16 28 16m0-32 28 16-28 16m0-32v32"/><path stroke="#D4EDFC" stroke-opacity=".1" d="m112 276-28 16 28 16m0-32 28 16-28 16m0-32v32M56 276l-28 16 28 16m0-32 28 16-28 16m0-32v32M168 276l-28 16 28 16m0-32 28 16-28 16m0-32v32M112 244l-28 16 28 16m0-32 28 16-28 16m0-32v32"/><path stroke="#D4EDFC" stroke-opacity=".1" d="m84 292-28 16 28 16m0-32 28 16-28 16m0-32v32M196 292l-28 16 28 16m0-32 28 16-28 16m0-32v32M140 260l-28 16 28 16m0-32 28 16-28 16m0-32v32M196 260l-28 16 28 16m0-32 28 16-28 16m0-32v32M196 324l-28 16 28 16m0-32 28 16-28 16m0-32v32"/><path stroke="#D4EDFC" stroke-opacity=".1" d="m168 340-28 16 28 16m0-32 28 16-28 16m0-32v32M56 340l-28 16 28 16m0-32 28 16-28 16m0-32v32"/><path stroke="#D4EDFC" stroke-opacity=".1" d="M28 324 0 340l28 16m0-32 28 16-28 16m0-32v32M28 260 0 276l28 16m0-32 28 16-28 16m0-32v32M28 228 0 244l28 16m0-32 28 16-28 16m0-32v32M84 228l-28 16 28 16m0-32 28 16-28 16m0-32v32"/><path stroke="#D4EDFC" stroke-opacity=".1" d="m56 244-28 16 28 16m0-32 28 16-28 16m0-32v32M112 308l-28 16 28 16m0-32 28 16-28 16m0-32v32"/><path stroke="#D4EDFC" stroke-opacity=".1" d="m84 324-28 16 28 16m0-32 28 16-28 16m0-32v32M112 340l-28 16 28 16m0-32 28 16-28 16m0-32v32"/><path stroke="#D4EDFC" stroke-opacity=".1" d="m140 324-28 16 28 16m0-32 28 16-28 16m0-32v32M140 356l-28 16 28 16m0-32 28 16-28 16m0-32v32M196 356l-28 16 28 16m0-32 28 16-28 16m0-32v32M84 356l-28 16 28 16m0-32 28 16-28 16m0-32v32M28 356 0 372l28 16m0-32 28 16-28 16m0-32v32"/><path stroke="#0172AD" d="M56 276 0 308l56 32m0-64 56 32-56 32m0-64v64"/><path stroke="#0172AD" d="m112 244-56 32 56 32m0-64 56 32-56 32m0-64v64M168 276l-56 32 56 32m0-64 56 32-56 32m0-64v64"/><path stroke="#0172AD" d="m112 308-56 32 56 32m0-64 56 32-56 32m0-64v64"/><path stroke="#0172AD" d="M56 340 0 372l56 32m0-64 56 32-56 32m0-64v64"/><path stroke="#0172AD" d="m0 308-56 32 56 32m0-64 56 32-56 32m0-64v64M0 244l-56 32 56 32m0-64 56 32-56 32m0-64v64"/><path stroke="#0172AD" d="M56 212 0 244l56 32m0-64 56 32-56 32m0-64v64M168 212l-56 32 56 32m0-64 56 32-56 32m0-64v64M224 244l-56 32 56 32m0-64 56 32-56 32m0-64v64M224 308l-56 32 56 32m0-64 56 32-56 32m0-64v64"/><path stroke="#0172AD" d="m168 340-56 32 56 32m0-64 56 32-56 32m0-64v64"/><path stroke="#009FE3" d="M112 244 0 308l112 64m0-128 112 64-112 64m0-128v128"/></g><g clip-path="url(#j)"><path stroke="#D4EDFC" stroke-opacity=".1" d="m140 356-28 16 28 16m0-32 28 16-28 16m0-32v32M168 372l-28 16 28 16m0-32 28 16-28 16m0-32v32"/><path stroke="#D4EDFC" stroke-opacity=".1" d="m196 356-28 16 28 16m0-32 28 16-28 16m0-32v32M28 420 0 436l28 16m0-32 28 16-28 16m0-32v32M140 420l-28 16 28 16m0-32 28 16-28 16m0-32v32M84 388l-28 16 28 16m0-32 28 16-28 16m0-32v32M56 436l-28 16 28 16m0-32 28 16-28 16m0-32v32M168 436l-28 16 28 16m0-32 28 16-28 16m0-32v32"/><path stroke="#D4EDFC" stroke-opacity=".1" d="m112 404-28 16 28 16m0-32 28 16-28 16m0-32v32M56 404l-28 16 28 16m0-32 28 16-28 16m0-32v32M168 404l-28 16 28 16m0-32 28 16-28 16m0-32v32M112 372l-28 16 28 16m0-32 28 16-28 16m0-32v32"/><path stroke="#D4EDFC" stroke-opacity=".1" d="m84 420-28 16 28 16m0-32 28 16-28 16m0-32v32M196 420l-28 16 28 16m0-32 28 16-28 16m0-32v32M140 388l-28 16 28 16m0-32 28 16-28 16m0-32v32M196 388l-28 16 28 16m0-32 28 16-28 16m0-32v32M196 452l-28 16 28 16m0-32 28 16-28 16m0-32v32"/><path stroke="#D4EDFC" stroke-opacity=".1" d="m168 468-28 16 28 16m0-32 28 16-28 16m0-32v32M56 468l-28 16 28 16m0-32 28 16-28 16m0-32v32"/><path stroke="#D4EDFC" stroke-opacity=".1" d="M28 452 0 468l28 16m0-32 28 16-28 16m0-32v32M28 388 0 404l28 16m0-32 28 16-28 16m0-32v32M28 356 0 372l28 16m0-32 28 16-28 16m0-32v32M84 356l-28 16 28 16m0-32 28 16-28 16m0-32v32"/><path stroke="#D4EDFC" stroke-opacity=".1" d="m56 372-28 16 28 16m0-32 28 16-28 16m0-32v32M112 436l-28 16 28 16m0-32 28 16-28 16m0-32v32"/><path stroke="#D4EDFC" stroke-opacity=".1" d="m84 452-28 16 28 16m0-32 28 16-28 16m0-32v32M112 468l-28 16 28 16m0-32 28 16-28 16m0-32v32"/><path stroke="#D4EDFC" stroke-opacity=".1" d="m140 452-28 16 28 16m0-32 28 16-28 16m0-32v32M140 484l-28 16 28 16m0-32 28 16-28 16m0-32v32M196 484l-28 16 28 16m0-32 28 16-28 16m0-32v32M84 484l-28 16 28 16m0-32 28 16-28 16m0-32v32M28 484 0 500l28 16m0-32 28 16-28 16m0-32v32"/><path stroke="#0172AD" d="M56 404 0 436l56 32m0-64 56 32-56 32m0-64v64"/><path stroke="#0172AD" d="m112 372-56 32 56 32m0-64 56 32-56 32m0-64v64M168 404l-56 32 56 32m0-64 56 32-56 32m0-64v64"/><path stroke="#0172AD" d="m112 436-56 32 56 32m0-64 56 32-56 32m0-64v64"/><path stroke="#0172AD" d="M56 468 0 500l56 32m0-64 56 32-56 32m0-64v64"/><path stroke="#0172AD" d="m0 436-56 32 56 32m0-64 56 32-56 32m0-64v64M0 372l-56 32 56 32m0-64 56 32-56 32m0-64v64"/><path stroke="#0172AD" d="M56 340 0 372l56 32m0-64 56 32-56 32m0-64v64M168 340l-56 32 56 32m0-64 56 32-56 32m0-64v64M224 372l-56 32 56 32m0-64 56 32-56 32m0-64v64M224 436l-56 32 56 32m0-64 56 32-56 32m0-64v64"/><path stroke="#0172AD" d="m168 468-56 32 56 32m0-64 56 32-56 32m0-64v64"/><path stroke="#009FE3" d="M112 372 0 436l112 64m0-128 112 64-112 64m0-128v128"/></g><g clip-path="url(#k)"><path stroke="#D4EDFC" stroke-opacity=".1" d="m140 484-28 16 28 16m0-32 28 16-28 16m0-32v32M168 500l-28 16 28 16m0-32 28 16-28 16m0-32v32"/><path stroke="#D4EDFC" stroke-opacity=".1" d="m196 484-28 16 28 16m0-32 28 16-28 16m0-32v32M28 548 0 564l28 16m0-32 28 16-28 16m0-32v32M140 548l-28 16 28 16m0-32 28 16-28 16m0-32v32M84 516l-28 16 28 16m0-32 28 16-28 16m0-32v32M56 564l-28 16 28 16m0-32 28 16-28 16m0-32v32M168 564l-28 16 28 16m0-32 28 16-28 16m0-32v32"/><path stroke="#D4EDFC" stroke-opacity=".1" d="m112 532-28 16 28 16m0-32 28 16-28 16m0-32v32M56 532l-28 16 28 16m0-32 28 16-28 16m0-32v32M168 532l-28 16 28 16m0-32 28 16-28 16m0-32v32M112 500l-28 16 28 16m0-32 28 16-28 16m0-32v32"/><path stroke="#D4EDFC" stroke-opacity=".1" d="m84 548-28 16 28 16m0-32 28 16-28 16m0-32v32M196 548l-28 16 28 16m0-32 28 16-28 16m0-32v32M140 516l-28 16 28 16m0-32 28 16-28 16m0-32v32M196 516l-28 16 28 16m0-32 28 16-28 16m0-32v32M196 580l-28 16 28 16m0-32 28 16-28 16m0-32v32"/><path stroke="#D4EDFC" stroke-opacity=".1" d="m168 596-28 16 28 16m0-32 28 16-28 16m0-32v32M56 596l-28 16 28 16m0-32 28 16-28 16m0-32v32"/><path stroke="#D4EDFC" stroke-opacity=".1" d="M28 580 0 596l28 16m0-32 28 16-28 16m0-32v32M28 516 0 532l28 16m0-32 28 16-28 16m0-32v32M28 484 0 500l28 16m0-32 28 16-28 16m0-32v32M84 484l-28 16 28 16m0-32 28 16-28 16m0-32v32"/><path stroke="#D4EDFC" stroke-opacity=".1" d="m56 500-28 16 28 16m0-32 28 16-28 16m0-32v32M112 564l-28 16 28 16m0-32 28 16-28 16m0-32v32"/><path stroke="#D4EDFC" stroke-opacity=".1" d="m84 580-28 16 28 16m0-32 28 16-28 16m0-32v32M112 596l-28 16 28 16m0-32 28 16-28 16m0-32v32"/><path stroke="#D4EDFC" stroke-opacity=".1" d="m140 580-28 16 28 16m0-32 28 16-28 16m0-32v32M140 612l-28 16 28 16m0-32 28 16-28 16m0-32v32M196 612l-28 16 28 16m0-32 28 16-28 16m0-32v32M84 612l-28 16 28 16m0-32 28 16-28 16m0-32v32M28 612 0 628l28 16m0-32 28 16-28 16m0-32v32"/><path stroke="#0172AD" d="M56 532 0 564l56 32m0-64 56 32-56 32m0-64v64"/><path stroke="#0172AD" d="m112 500-56 32 56 32m0-64 56 32-56 32m0-64v64M168 532l-56 32 56 32m0-64 56 32-56 32m0-64v64"/><path stroke="#0172AD" d="m112 564-56 32 56 32m0-64 56 32-56 32m0-64v64"/><path stroke="#0172AD" d="M56 596 0 628l56 32m0-64 56 32-56 32m0-64v64"/><path stroke="#0172AD" d="m0 564-56 32 56 32m0-64 56 32-56 32m0-64v64M0 500l-56 32 56 32m0-64 56 32-56 32m0-64v64"/><path stroke="#0172AD" d="M56 468 0 500l56 32m0-64 56 32-56 32m0-64v64M168 468l-56 32 56 32m0-64 56 32-56 32m0-64v64M224 500l-56 32 56 32m0-64 56 32-56 32m0-64v64M224 564l-56 32 56 32m0-64 56 32-56 32m0-64v64"/><path stroke="#0172AD" d="m168 596-56 32 56 32m0-64 56 32-56 32m0-64v64"/><path stroke="#009FE3" d="M112 500 0 564l112 64m0-128 112 64-112 64m0-128v128"/></g><g clip-path="url(#l)"><path stroke="#D4EDFC" stroke-opacity=".1" d="m140 612-28 16 28 16m0-32 28 16-28 16m0-32v32M168 628l-28 16 28 16m0-32 28 16-28 16m0-32v32"/><path stroke="#D4EDFC" stroke-opacity=".1" d="m196 612-28 16 28 16m0-32 28 16-28 16m0-32v32M28 676 0 692l28 16m0-32 28 16-28 16m0-32v32M140 676l-28 16 28 16m0-32 28 16-28 16m0-32v32M84 644l-28 16 28 16m0-32 28 16-28 16m0-32v32M56 692l-28 16 28 16m0-32 28 16-28 16m0-32v32M168 692l-28 16 28 16m0-32 28 16-28 16m0-32v32"/><path stroke="#D4EDFC" stroke-opacity=".1" d="m112 660-28 16 28 16m0-32 28 16-28 16m0-32v32M56 660l-28 16 28 16m0-32 28 16-28 16m0-32v32M168 660l-28 16 28 16m0-32 28 16-28 16m0-32v32M112 628l-28 16 28 16m0-32 28 16-28 16m0-32v32"/><path stroke="#D4EDFC" stroke-opacity=".1" d="m84 676-28 16 28 16m0-32 28 16-28 16m0-32v32M196 676l-28 16 28 16m0-32 28 16-28 16m0-32v32M140 644l-28 16 28 16m0-32 28 16-28 16m0-32v32M196 644l-28 16 28 16m0-32 28 16-28 16m0-32v32M196 708l-28 16 28 16m0-32 28 16-28 16m0-32v32"/><path stroke="#D4EDFC" stroke-opacity=".1" d="m168 724-28 16 28 16m0-32 28 16-28 16m0-32v32M56 724l-28 16 28 16m0-32 28 16-28 16m0-32v32"/><path stroke="#D4EDFC" stroke-opacity=".1" d="M28 708 0 724l28 16m0-32 28 16-28 16m0-32v32M28 644 0 660l28 16m0-32 28 16-28 16m0-32v32M28 612 0 628l28 16m0-32 28 16-28 16m0-32v32M84 612l-28 16 28 16m0-32 28 16-28 16m0-32v32"/><path stroke="#D4EDFC" stroke-opacity=".1" d="m56 628-28 16 28 16m0-32 28 16-28 16m0-32v32M112 692l-28 16 28 16m0-32 28 16-28 16m0-32v32"/><path stroke="#D4EDFC" stroke-opacity=".1" d="m84 708-28 16 28 16m0-32 28 16-28 16m0-32v32M112 724l-28 16 28 16m0-32 28 16-28 16m0-32v32"/><path stroke="#D4EDFC" stroke-opacity=".1" d="m140 708-28 16 28 16m0-32 28 16-28 16m0-32v32M140 740l-28 16 28 16m0-32 28 16-28 16m0-32v32M196 740l-28 16 28 16m0-32 28 16-28 16m0-32v32M84 740l-28 16 28 16m0-32 28 16-28 16m0-32v32M28 740 0 756l28 16m0-32 28 16-28 16m0-32v32"/><path stroke="#0172AD" d="M56 660 0 692l56 32m0-64 56 32-56 32m0-64v64"/><path stroke="#0172AD" d="m112 628-56 32 56 32m0-64 56 32-56 32m0-64v64M168 660l-56 32 56 32m0-64 56 32-56 32m0-64v64"/><path stroke="#0172AD" d="m112 692-56 32 56 32m0-64 56 32-56 32m0-64v64"/><path stroke="#0172AD" d="M56 724 0 756l56 32m0-64 56 32-56 32m0-64v64"/><path stroke="#0172AD" d="m0 692-56 32 56 32m0-64 56 32-56 32m0-64v64M0 628l-56 32 56 32m0-64 56 32-56 32m0-64v64"/><path stroke="#0172AD" d="M56 596 0 628l56 32m0-64 56 32-56 32m0-64v64M168 596l-56 32 56 32m0-64 56 32-56 32m0-64v64M224 628l-56 32 56 32m0-64 56 32-56 32m0-64v64M224 692l-56 32 56 32m0-64 56 32-56 32m0-64v64"/><path stroke="#0172AD" d="m168 724-56 32 56 32m0-64 56 32-56 32m0-64v64"/><path stroke="#009FE3" d="M112 628 0 692l112 64m0-128 112 64-112 64m0-128v128"/></g><g clip-path="url(#m)"><path stroke="#D4EDFC" stroke-opacity=".1" d="m140 740-28 16 28 16m0-32 28 16-28 16m0-32v32M168 756l-28 16 28 16m0-32 28 16-28 16m0-32v32"/><path stroke="#D4EDFC" stroke-opacity=".1" d="m196 740-28 16 28 16m0-32 28 16-28 16m0-32v32M28 804 0 820l28 16m0-32 28 16-28 16m0-32v32M140 804l-28 16 28 16m0-32 28 16-28 16m0-32v32M84 772l-28 16 28 16m0-32 28 16-28 16m0-32v32M56 820l-28 16 28 16m0-32 28 16-28 16m0-32v32M168 820l-28 16 28 16m0-32 28 16-28 16m0-32v32"/><path stroke="#D4EDFC" stroke-opacity=".1" d="m112 788-28 16 28 16m0-32 28 16-28 16m0-32v32M56 788l-28 16 28 16m0-32 28 16-28 16m0-32v32M168 788l-28 16 28 16m0-32 28 16-28 16m0-32v32M112 756l-28 16 28 16m0-32 28 16-28 16m0-32v32"/><path stroke="#D4EDFC" stroke-opacity=".1" d="m84 804-28 16 28 16m0-32 28 16-28 16m0-32v32M196 804l-28 16 28 16m0-32 28 16-28 16m0-32v32M140 772l-28 16 28 16m0-32 28 16-28 16m0-32v32M196 772l-28 16 28 16m0-32 28 16-28 16m0-32v32M196 836l-28 16 28 16m0-32 28 16-28 16m0-32v32M28 836 0 852l28 16m0-32 28 16-28 16m0-32v32M28 772 0 788l28 16m0-32 28 16-28 16m0-32v32M28 740 0 756l28 16m0-32 28 16-28 16m0-32v32M84 740l-28 16 28 16m0-32 28 16-28 16m0-32v32"/><path stroke="#D4EDFC" stroke-opacity=".1" d="m56 756-28 16 28 16m0-32 28 16-28 16m0-32v32M112 820l-28 16 28 16m0-32 28 16-28 16m0-32v32"/><path stroke="#D4EDFC" stroke-opacity=".1" d="m84 836-28 16 28 16m0-32 28 16-28 16m0-32v32M140 836l-28 16 28 16m0-32 28 16-28 16m0-32v32"/><path stroke="#0172AD" d="M56 788 0 820l56 32m0-64 56 32-56 32m0-64v64"/><path stroke="#0172AD" d="m112 756-56 32 56 32m0-64 56 32-56 32m0-64v64M168 788l-56 32 56 32m0-64 56 32-56 32m0-64v64"/><path stroke="#0172AD" d="m112 820-56 32 56 32m0-64 56 32-56 32m0-64v64M0 820l-56 32 56 32m0-64 56 32-56 32m0-64v64M0 756l-56 32 56 32m0-64 56 32-56 32m0-64v64"/><path stroke="#0172AD" d="M56 724 0 756l56 32m0-64 56 32-56 32m0-64v64M168 724l-56 32 56 32m0-64 56 32-56 32m0-64v64M224 756l-56 32 56 32m0-64 56 32-56 32m0-64v64M224 820l-56 32 56 32m0-64 56 32-56 32m0-64v64"/><path stroke="#009FE3" d="M112 756 0 820l112 64m0-128 112 64-112 64m0-128v128"/></g></g></g><g clip-path="url(#n)"><g stroke-width="2" clip-path="url(#o)"><g clip-path="url(#p)"><path stroke="#D4EDFC" stroke-opacity=".1" d="m364-28-28 16 28 16m0-32 28 16-28 16m0-32V4M392-12 364 4l28 16m0-32 28 16-28 16m0-32v32"/><path stroke="#D4EDFC" stroke-opacity=".1" d="m420-28-28 16 28 16m0-32 28 16-28 16m0-32V4M252 36l-28 16 28 16m0-32 28 16-28 16m0-32v32M364 36l-28 16 28 16m0-32 28 16-28 16m0-32v32M308 4l-28 16 28 16m0-32 28 16-28 16m0-32v32M280 52l-28 16 28 16m0-32 28 16-28 16m0-32v32M392 52l-28 16 28 16m0-32 28 16-28 16m0-32v32"/><path stroke="#D4EDFC" stroke-opacity=".1" d="m336 20-28 16 28 16m0-32 28 16-28 16m0-32v32M280 20l-28 16 28 16m0-32 28 16-28 16m0-32v32M392 20l-28 16 28 16m0-32 28 16-28 16m0-32v32M336-12 308 4l28 16m0-32 28 16-28 16m0-32v32"/><path stroke="#D4EDFC" stroke-opacity=".1" d="m308 36-28 16 28 16m0-32 28 16-28 16m0-32v32M420 36l-28 16 28 16m0-32 28 16-28 16m0-32v32M364 4l-28 16 28 16m0-32 28 16-28 16m0-32v32M420 4l-28 16 28 16m0-32 28 16-28 16m0-32v32M420 68l-28 16 28 16m0-32 28 16-28 16m0-32v32"/><path stroke="#D4EDFC" stroke-opacity=".1" d="m392 84-28 16 28 16m0-32 28 16-28 16m0-32v32M280 84l-28 16 28 16m0-32 28 16-28 16m0-32v32"/><path stroke="#D4EDFC" stroke-opacity=".1" d="m252 68-28 16 28 16m0-32 28 16-28 16m0-32v32M252 4l-28 16 28 16m0-32 28 16-28 16m0-32v32M252-28l-28 16 28 16m0-32 28 16-28 16m0-32V4M308-28l-28 16 28 16m0-32 28 16-28 16m0-32V4"/><path stroke="#D4EDFC" stroke-opacity=".1" d="M280-12 252 4l28 16m0-32 28 16-28 16m0-32v32M336 52l-28 16 28 16m0-32 28 16-28 16m0-32v32"/><path stroke="#D4EDFC" stroke-opacity=".1" d="m308 68-28 16 28 16m0-32 28 16-28 16m0-32v32M336 84l-28 16 28 16m0-32 28 16-28 16m0-32v32"/><path stroke="#D4EDFC" stroke-opacity=".1" d="m364 68-28 16 28 16m0-32 28 16-28 16m0-32v32M364 100l-28 16 28 16m0-32 28 16-28 16m0-32v32M420 100l-28 16 28 16m0-32 28 16-28 16m0-32v32M308 100l-28 16 28 16m0-32 28 16-28 16m0-32v32M252 100l-28 16 28 16m0-32 28 16-28 16m0-32v32"/><path stroke="#0172AD" d="m280 20-56 32 56 32m0-64 56 32-56 32m0-64v64"/><path stroke="#0172AD" d="m336-12-56 32 56 32m0-64 56 32-56 32m0-64v64M392 20l-56 32 56 32m0-64 56 32-56 32m0-64v64"/><path stroke="#0172AD" d="m336 52-56 32 56 32m0-64 56 32-56 32m0-64v64"/><path stroke="#0172AD" d="m280 84-56 32 56 32m0-64 56 32-56 32m0-64v64"/><path stroke="#0172AD" d="m224 52-56 32 56 32m0-64 56 32-56 32m0-64v64M224-12l-56 32 56 32m0-64 56 32-56 32m0-64v64"/><path stroke="#0172AD" d="m280-44-56 32 56 32m0-64 56 32-56 32m0-64v64M392-44l-56 32 56 32m0-64 56 32-56 32m0-64v64M448-12l-56 32 56 32m0-64 56 32-56 32m0-64v64M448 52l-56 32 56 32m0-64 56 32-56 32m0-64v64"/><path stroke="#0172AD" d="m392 84-56 32 56 32m0-64 56 32-56 32m0-64v64"/><path stroke="#009FE3" d="M336-12 224 52l112 64m0-128 112 64-112 64m0-128v128"/></g><g clip-path="url(#q)"><path stroke="#D4EDFC" stroke-opacity=".1" d="m364 100-28 16 28 16m0-32 28 16-28 16m0-32v32M392 116l-28 16 28 16m0-32 28 16-28 16m0-32v32"/><path stroke="#D4EDFC" stroke-opacity=".1" d="m420 100-28 16 28 16m0-32 28 16-28 16m0-32v32M252 164l-28 16 28 16m0-32 28 16-28 16m0-32v32M364 164l-28 16 28 16m0-32 28 16-28 16m0-32v32M308 132l-28 16 28 16m0-32 28 16-28 16m0-32v32M280 180l-28 16 28 16m0-32 28 16-28 16m0-32v32M392 180l-28 16 28 16m0-32 28 16-28 16m0-32v32"/><path stroke="#D4EDFC" stroke-opacity=".1" d="m336 148-28 16 28 16m0-32 28 16-28 16m0-32v32M280 148l-28 16 28 16m0-32 28 16-28 16m0-32v32M392 148l-28 16 28 16m0-32 28 16-28 16m0-32v32M336 116l-28 16 28 16m0-32 28 16-28 16m0-32v32"/><path stroke="#D4EDFC" stroke-opacity=".1" d="m308 164-28 16 28 16m0-32 28 16-28 16m0-32v32M420 164l-28 16 28 16m0-32 28 16-28 16m0-32v32M364 132l-28 16 28 16m0-32 28 16-28 16m0-32v32M420 132l-28 16 28 16m0-32 28 16-28 16m0-32v32M420 196l-28 16 28 16m0-32 28 16-28 16m0-32v32"/><path stroke="#D4EDFC" stroke-opacity=".1" d="m392 212-28 16 28 16m0-32 28 16-28 16m0-32v32M280 212l-28 16 28 16m0-32 28 16-28 16m0-32v32"/><path stroke="#D4EDFC" stroke-opacity=".1" d="m252 196-28 16 28 16m0-32 28 16-28 16m0-32v32M252 132l-28 16 28 16m0-32 28 16-28 16m0-32v32M252 100l-28 16 28 16m0-32 28 16-28 16m0-32v32M308 100l-28 16 28 16m0-32 28 16-28 16m0-32v32"/><path stroke="#D4EDFC" stroke-opacity=".1" d="m280 116-28 16 28 16m0-32 28 16-28 16m0-32v32M336 180l-28 16 28 16m0-32 28 16-28 16m0-32v32"/><path stroke="#D4EDFC" stroke-opacity=".1" d="m308 196-28 16 28 16m0-32 28 16-28 16m0-32v32M336 212l-28 16 28 16m0-32 28 16-28 16m0-32v32"/><path stroke="#D4EDFC" stroke-opacity=".1" d="m364 196-28 16 28 16m0-32 28 16-28 16m0-32v32M364 228l-28 16 28 16m0-32 28 16-28 16m0-32v32M420 228l-28 16 28 16m0-32 28 16-28 16m0-32v32M308 228l-28 16 28 16m0-32 28 16-28 16m0-32v32M252 228l-28 16 28 16m0-32 28 16-28 16m0-32v32"/><path stroke="#0172AD" d="m280 148-56 32 56 32m0-64 56 32-56 32m0-64v64"/><path stroke="#0172AD" d="m336 116-56 32 56 32m0-64 56 32-56 32m0-64v64M392 148l-56 32 56 32m0-64 56 32-56 32m0-64v64"/><path stroke="#0172AD" d="m336 180-56 32 56 32m0-64 56 32-56 32m0-64v64"/><path stroke="#0172AD" d="m280 212-56 32 56 32m0-64 56 32-56 32m0-64v64"/><path stroke="#0172AD" d="m224 180-56 32 56 32m0-64 56 32-56 32m0-64v64M224 116l-56 32 56 32m0-64 56 32-56 32m0-64v64"/><path stroke="#0172AD" d="m280 84-56 32 56 32m0-64 56 32-56 32m0-64v64M392 84l-56 32 56 32m0-64 56 32-56 32m0-64v64M448 116l-56 32 56 32m0-64 56 32-56 32m0-64v64M448 180l-56 32 56 32m0-64 56 32-56 32m0-64v64"/><path stroke="#0172AD" d="m392 212-56 32 56 32m0-64 56 32-56 32m0-64v64"/><path stroke="#009FE3" d="m336 116-112 64 112 64m0-128 112 64-112 64m0-128v128"/></g><g clip-path="url(#r)"><path stroke="#D4EDFC" stroke-opacity=".1" d="m364 228-28 16 28 16m0-32 28 16-28 16m0-32v32M392 244l-28 16 28 16m0-32 28 16-28 16m0-32v32"/><path stroke="#D4EDFC" stroke-opacity=".1" d="m420 228-28 16 28 16m0-32 28 16-28 16m0-32v32M252 292l-28 16 28 16m0-32 28 16-28 16m0-32v32M364 292l-28 16 28 16m0-32 28 16-28 16m0-32v32M308 260l-28 16 28 16m0-32 28 16-28 16m0-32v32M280 308l-28 16 28 16m0-32 28 16-28 16m0-32v32M392 308l-28 16 28 16m0-32 28 16-28 16m0-32v32"/><path stroke="#D4EDFC" stroke-opacity=".1" d="m336 276-28 16 28 16m0-32 28 16-28 16m0-32v32M280 276l-28 16 28 16m0-32 28 16-28 16m0-32v32M392 276l-28 16 28 16m0-32 28 16-28 16m0-32v32M336 244l-28 16 28 16m0-32 28 16-28 16m0-32v32"/><path stroke="#D4EDFC" stroke-opacity=".1" d="m308 292-28 16 28 16m0-32 28 16-28 16m0-32v32M420 292l-28 16 28 16m0-32 28 16-28 16m0-32v32M364 260l-28 16 28 16m0-32 28 16-28 16m0-32v32M420 260l-28 16 28 16m0-32 28 16-28 16m0-32v32M420 324l-28 16 28 16m0-32 28 16-28 16m0-32v32"/><path stroke="#D4EDFC" stroke-opacity=".1" d="m392 340-28 16 28 16m0-32 28 16-28 16m0-32v32M280 340l-28 16 28 16m0-32 28 16-28 16m0-32v32"/><path stroke="#D4EDFC" stroke-opacity=".1" d="m252 324-28 16 28 16m0-32 28 16-28 16m0-32v32M252 260l-28 16 28 16m0-32 28 16-28 16m0-32v32M252 228l-28 16 28 16m0-32 28 16-28 16m0-32v32M308 228l-28 16 28 16m0-32 28 16-28 16m0-32v32"/><path stroke="#D4EDFC" stroke-opacity=".1" d="m280 244-28 16 28 16m0-32 28 16-28 16m0-32v32M336 308l-28 16 28 16m0-32 28 16-28 16m0-32v32"/><path stroke="#D4EDFC" stroke-opacity=".1" d="m308 324-28 16 28 16m0-32 28 16-28 16m0-32v32M336 340l-28 16 28 16m0-32 28 16-28 16m0-32v32"/><path stroke="#D4EDFC" stroke-opacity=".1" d="m364 324-28 16 28 16m0-32 28 16-28 16m0-32v32M364 356l-28 16 28 16m0-32 28 16-28 16m0-32v32M420 356l-28 16 28 16m0-32 28 16-28 16m0-32v32M308 356l-28 16 28 16m0-32 28 16-28 16m0-32v32M252 356l-28 16 28 16m0-32 28 16-28 16m0-32v32"/><path stroke="#0172AD" d="m280 276-56 32 56 32m0-64 56 32-56 32m0-64v64"/><path stroke="#0172AD" d="m336 244-56 32 56 32m0-64 56 32-56 32m0-64v64M392 276l-56 32 56 32m0-64 56 32-56 32m0-64v64"/><path stroke="#0172AD" d="m336 308-56 32 56 32m0-64 56 32-56 32m0-64v64"/><path stroke="#0172AD" d="m280 340-56 32 56 32m0-64 56 32-56 32m0-64v64"/><path stroke="#0172AD" d="m224 308-56 32 56 32m0-64 56 32-56 32m0-64v64M224 244l-56 32 56 32m0-64 56 32-56 32m0-64v64"/><path stroke="#0172AD" d="m280 212-56 32 56 32m0-64 56 32-56 32m0-64v64M392 212l-56 32 56 32m0-64 56 32-56 32m0-64v64M448 244l-56 32 56 32m0-64 56 32-56 32m0-64v64M448 308l-56 32 56 32m0-64 56 32-56 32m0-64v64"/><path stroke="#0172AD" d="m392 340-56 32 56 32m0-64 56 32-56 32m0-64v64"/><path stroke="#009FE3" d="m336 244-112 64 112 64m0-128 112 64-112 64m0-128v128"/></g><g clip-path="url(#s)"><path stroke="#D4EDFC" stroke-opacity=".1" d="m364 356-28 16 28 16m0-32 28 16-28 16m0-32v32M392 372l-28 16 28 16m0-32 28 16-28 16m0-32v32"/><path stroke="#D4EDFC" stroke-opacity=".1" d="m420 356-28 16 28 16m0-32 28 16-28 16m0-32v32M252 420l-28 16 28 16m0-32 28 16-28 16m0-32v32M364 420l-28 16 28 16m0-32 28 16-28 16m0-32v32M308 388l-28 16 28 16m0-32 28 16-28 16m0-32v32M280 436l-28 16 28 16m0-32 28 16-28 16m0-32v32M392 436l-28 16 28 16m0-32 28 16-28 16m0-32v32"/><path stroke="#D4EDFC" stroke-opacity=".1" d="m336 404-28 16 28 16m0-32 28 16-28 16m0-32v32M280 404l-28 16 28 16m0-32 28 16-28 16m0-32v32M392 404l-28 16 28 16m0-32 28 16-28 16m0-32v32M336 372l-28 16 28 16m0-32 28 16-28 16m0-32v32"/><path stroke="#D4EDFC" stroke-opacity=".1" d="m308 420-28 16 28 16m0-32 28 16-28 16m0-32v32M420 420l-28 16 28 16m0-32 28 16-28 16m0-32v32M364 388l-28 16 28 16m0-32 28 16-28 16m0-32v32M420 388l-28 16 28 16m0-32 28 16-28 16m0-32v32M420 452l-28 16 28 16m0-32 28 16-28 16m0-32v32"/><path stroke="#D4EDFC" stroke-opacity=".1" d="m392 468-28 16 28 16m0-32 28 16-28 16m0-32v32M280 468l-28 16 28 16m0-32 28 16-28 16m0-32v32"/><path stroke="#D4EDFC" stroke-opacity=".1" d="m252 452-28 16 28 16m0-32 28 16-28 16m0-32v32M252 388l-28 16 28 16m0-32 28 16-28 16m0-32v32M252 356l-28 16 28 16m0-32 28 16-28 16m0-32v32M308 356l-28 16 28 16m0-32 28 16-28 16m0-32v32"/><path stroke="#D4EDFC" stroke-opacity=".1" d="m280 372-28 16 28 16m0-32 28 16-28 16m0-32v32M336 436l-28 16 28 16m0-32 28 16-28 16m0-32v32"/><path stroke="#D4EDFC" stroke-opacity=".1" d="m308 452-28 16 28 16m0-32 28 16-28 16m0-32v32M336 468l-28 16 28 16m0-32 28 16-28 16m0-32v32"/><path stroke="#D4EDFC" stroke-opacity=".1" d="m364 452-28 16 28 16m0-32 28 16-28 16m0-32v32M364 484l-28 16 28 16m0-32 28 16-28 16m0-32v32M420 484l-28 16 28 16m0-32 28 16-28 16m0-32v32M308 484l-28 16 28 16m0-32 28 16-28 16m0-32v32M252 484l-28 16 28 16m0-32 28 16-28 16m0-32v32"/><path stroke="#0172AD" d="m280 404-56 32 56 32m0-64 56 32-56 32m0-64v64"/><path stroke="#0172AD" d="m336 372-56 32 56 32m0-64 56 32-56 32m0-64v64M392 404l-56 32 56 32m0-64 56 32-56 32m0-64v64"/><path stroke="#0172AD" d="m336 436-56 32 56 32m0-64 56 32-56 32m0-64v64"/><path stroke="#0172AD" d="m280 468-56 32 56 32m0-64 56 32-56 32m0-64v64"/><path stroke="#0172AD" d="m224 436-56 32 56 32m0-64 56 32-56 32m0-64v64M224 372l-56 32 56 32m0-64 56 32-56 32m0-64v64"/><path stroke="#0172AD" d="m280 340-56 32 56 32m0-64 56 32-56 32m0-64v64M392 340l-56 32 56 32m0-64 56 32-56 32m0-64v64M448 372l-56 32 56 32m0-64 56 32-56 32m0-64v64M448 436l-56 32 56 32m0-64 56 32-56 32m0-64v64"/><path stroke="#0172AD" d="m392 468-56 32 56 32m0-64 56 32-56 32m0-64v64"/><path stroke="#009FE3" d="m336 372-112 64 112 64m0-128 112 64-112 64m0-128v128"/></g><g clip-path="url(#t)"><path stroke="#D4EDFC" stroke-opacity=".1" d="m364 484-28 16 28 16m0-32 28 16-28 16m0-32v32M392 500l-28 16 28 16m0-32 28 16-28 16m0-32v32"/><path stroke="#D4EDFC" stroke-opacity=".1" d="m420 484-28 16 28 16m0-32 28 16-28 16m0-32v32M252 548l-28 16 28 16m0-32 28 16-28 16m0-32v32M364 548l-28 16 28 16m0-32 28 16-28 16m0-32v32M308 516l-28 16 28 16m0-32 28 16-28 16m0-32v32M280 564l-28 16 28 16m0-32 28 16-28 16m0-32v32M392 564l-28 16 28 16m0-32 28 16-28 16m0-32v32"/><path stroke="#D4EDFC" stroke-opacity=".1" d="m336 532-28 16 28 16m0-32 28 16-28 16m0-32v32M280 532l-28 16 28 16m0-32 28 16-28 16m0-32v32M392 532l-28 16 28 16m0-32 28 16-28 16m0-32v32M336 500l-28 16 28 16m0-32 28 16-28 16m0-32v32"/><path stroke="#D4EDFC" stroke-opacity=".1" d="m308 548-28 16 28 16m0-32 28 16-28 16m0-32v32M420 548l-28 16 28 16m0-32 28 16-28 16m0-32v32M364 516l-28 16 28 16m0-32 28 16-28 16m0-32v32M420 516l-28 16 28 16m0-32 28 16-28 16m0-32v32M420 580l-28 16 28 16m0-32 28 16-28 16m0-32v32"/><path stroke="#D4EDFC" stroke-opacity=".1" d="m392 596-28 16 28 16m0-32 28 16-28 16m0-32v32M280 596l-28 16 28 16m0-32 28 16-28 16m0-32v32"/><path stroke="#D4EDFC" stroke-opacity=".1" d="m252 580-28 16 28 16m0-32 28 16-28 16m0-32v32M252 516l-28 16 28 16m0-32 28 16-28 16m0-32v32M252 484l-28 16 28 16m0-32 28 16-28 16m0-32v32M308 484l-28 16 28 16m0-32 28 16-28 16m0-32v32"/><path stroke="#D4EDFC" stroke-opacity=".1" d="m280 500-28 16 28 16m0-32 28 16-28 16m0-32v32M336 564l-28 16 28 16m0-32 28 16-28 16m0-32v32"/><path stroke="#D4EDFC" stroke-opacity=".1" d="m308 580-28 16 28 16m0-32 28 16-28 16m0-32v32M336 596l-28 16 28 16m0-32 28 16-28 16m0-32v32"/><path stroke="#D4EDFC" stroke-opacity=".1" d="m364 580-28 16 28 16m0-32 28 16-28 16m0-32v32M364 612l-28 16 28 16m0-32 28 16-28 16m0-32v32M420 612l-28 16 28 16m0-32 28 16-28 16m0-32v32M308 612l-28 16 28 16m0-32 28 16-28 16m0-32v32M252 612l-28 16 28 16m0-32 28 16-28 16m0-32v32"/><path stroke="#0172AD" d="m280 532-56 32 56 32m0-64 56 32-56 32m0-64v64"/><path stroke="#0172AD" d="m336 500-56 32 56 32m0-64 56 32-56 32m0-64v64M392 532l-56 32 56 32m0-64 56 32-56 32m0-64v64"/><path stroke="#0172AD" d="m336 564-56 32 56 32m0-64 56 32-56 32m0-64v64"/><path stroke="#0172AD" d="m280 596-56 32 56 32m0-64 56 32-56 32m0-64v64"/><path stroke="#0172AD" d="m224 564-56 32 56 32m0-64 56 32-56 32m0-64v64M224 500l-56 32 56 32m0-64 56 32-56 32m0-64v64"/><path stroke="#0172AD" d="m280 468-56 32 56 32m0-64 56 32-56 32m0-64v64M392 468l-56 32 56 32m0-64 56 32-56 32m0-64v64M448 500l-56 32 56 32m0-64 56 32-56 32m0-64v64M448 564l-56 32 56 32m0-64 56 32-56 32m0-64v64"/><path stroke="#0172AD" d="m392 596-56 32 56 32m0-64 56 32-56 32m0-64v64"/><path stroke="#009FE3" d="m336 500-112 64 112 64m0-128 112 64-112 64m0-128v128"/></g><g clip-path="url(#u)"><path stroke="#D4EDFC" stroke-opacity=".1" d="m364 612-28 16 28 16m0-32 28 16-28 16m0-32v32M392 628l-28 16 28 16m0-32 28 16-28 16m0-32v32"/><path stroke="#D4EDFC" stroke-opacity=".1" d="m420 612-28 16 28 16m0-32 28 16-28 16m0-32v32M252 676l-28 16 28 16m0-32 28 16-28 16m0-32v32M364 676l-28 16 28 16m0-32 28 16-28 16m0-32v32M308 644l-28 16 28 16m0-32 28 16-28 16m0-32v32M280 692l-28 16 28 16m0-32 28 16-28 16m0-32v32M392 692l-28 16 28 16m0-32 28 16-28 16m0-32v32"/><path stroke="#D4EDFC" stroke-opacity=".1" d="m336 660-28 16 28 16m0-32 28 16-28 16m0-32v32M280 660l-28 16 28 16m0-32 28 16-28 16m0-32v32M392 660l-28 16 28 16m0-32 28 16-28 16m0-32v32M336 628l-28 16 28 16m0-32 28 16-28 16m0-32v32"/><path stroke="#D4EDFC" stroke-opacity=".1" d="m308 676-28 16 28 16m0-32 28 16-28 16m0-32v32M420 676l-28 16 28 16m0-32 28 16-28 16m0-32v32M364 644l-28 16 28 16m0-32 28 16-28 16m0-32v32M420 644l-28 16 28 16m0-32 28 16-28 16m0-32v32M420 708l-28 16 28 16m0-32 28 16-28 16m0-32v32"/><path stroke="#D4EDFC" stroke-opacity=".1" d="m392 724-28 16 28 16m0-32 28 16-28 16m0-32v32M280 724l-28 16 28 16m0-32 28 16-28 16m0-32v32"/><path stroke="#D4EDFC" stroke-opacity=".1" d="m252 708-28 16 28 16m0-32 28 16-28 16m0-32v32M252 644l-28 16 28 16m0-32 28 16-28 16m0-32v32M252 612l-28 16 28 16m0-32 28 16-28 16m0-32v32M308 612l-28 16 28 16m0-32 28 16-28 16m0-32v32"/><path stroke="#D4EDFC" stroke-opacity=".1" d="m280 628-28 16 28 16m0-32 28 16-28 16m0-32v32M336 692l-28 16 28 16m0-32 28 16-28 16m0-32v32"/><path stroke="#D4EDFC" stroke-opacity=".1" d="m308 708-28 16 28 16m0-32 28 16-28 16m0-32v32M336 724l-28 16 28 16m0-32 28 16-28 16m0-32v32"/><path stroke="#D4EDFC" stroke-opacity=".1" d="m364 708-28 16 28 16m0-32 28 16-28 16m0-32v32M364 740l-28 16 28 16m0-32 28 16-28 16m0-32v32M420 740l-28 16 28 16m0-32 28 16-28 16m0-32v32M308 740l-28 16 28 16m0-32 28 16-28 16m0-32v32M252 740l-28 16 28 16m0-32 28 16-28 16m0-32v32"/><path stroke="#0172AD" d="m280 660-56 32 56 32m0-64 56 32-56 32m0-64v64"/><path stroke="#0172AD" d="m336 628-56 32 56 32m0-64 56 32-56 32m0-64v64M392 660l-56 32 56 32m0-64 56 32-56 32m0-64v64"/><path stroke="#0172AD" d="m336 692-56 32 56 32m0-64 56 32-56 32m0-64v64"/><path stroke="#0172AD" d="m280 724-56 32 56 32m0-64 56 32-56 32m0-64v64"/><path stroke="#0172AD" d="m224 692-56 32 56 32m0-64 56 32-56 32m0-64v64M224 628l-56 32 56 32m0-64 56 32-56 32m0-64v64"/><path stroke="#0172AD" d="m280 596-56 32 56 32m0-64 56 32-56 32m0-64v64M392 596l-56 32 56 32m0-64 56 32-56 32m0-64v64M448 628l-56 32 56 32m0-64 56 32-56 32m0-64v64M448 692l-56 32 56 32m0-64 56 32-56 32m0-64v64"/><path stroke="#0172AD" d="m392 724-56 32 56 32m0-64 56 32-56 32m0-64v64"/><path stroke="#009FE3" d="m336 628-112 64 112 64m0-128 112 64-112 64m0-128v128"/></g><g clip-path="url(#v)"><path stroke="#D4EDFC" stroke-opacity=".1" d="m364 740-28 16 28 16m0-32 28 16-28 16m0-32v32M392 756l-28 16 28 16m0-32 28 16-28 16m0-32v32"/><path stroke="#D4EDFC" stroke-opacity=".1" d="m420 740-28 16 28 16m0-32 28 16-28 16m0-32v32M252 804l-28 16 28 16m0-32 28 16-28 16m0-32v32M364 804l-28 16 28 16m0-32 28 16-28 16m0-32v32M308 772l-28 16 28 16m0-32 28 16-28 16m0-32v32M280 820l-28 16 28 16m0-32 28 16-28 16m0-32v32M392 820l-28 16 28 16m0-32 28 16-28 16m0-32v32"/><path stroke="#D4EDFC" stroke-opacity=".1" d="m336 788-28 16 28 16m0-32 28 16-28 16m0-32v32M280 788l-28 16 28 16m0-32 28 16-28 16m0-32v32M392 788l-28 16 28 16m0-32 28 16-28 16m0-32v32M336 756l-28 16 28 16m0-32 28 16-28 16m0-32v32"/><path stroke="#D4EDFC" stroke-opacity=".1" d="m308 804-28 16 28 16m0-32 28 16-28 16m0-32v32M420 804l-28 16 28 16m0-32 28 16-28 16m0-32v32M364 772l-28 16 28 16m0-32 28 16-28 16m0-32v32M420 772l-28 16 28 16m0-32 28 16-28 16m0-32v32M420 836l-28 16 28 16m0-32 28 16-28 16m0-32v32M252 836l-28 16 28 16m0-32 28 16-28 16m0-32v32M252 772l-28 16 28 16m0-32 28 16-28 16m0-32v32M252 740l-28 16 28 16m0-32 28 16-28 16m0-32v32M308 740l-28 16 28 16m0-32 28 16-28 16m0-32v32"/><path stroke="#D4EDFC" stroke-opacity=".1" d="m280 756-28 16 28 16m0-32 28 16-28 16m0-32v32M336 820l-28 16 28 16m0-32 28 16-28 16m0-32v32"/><path stroke="#D4EDFC" stroke-opacity=".1" d="m308 836-28 16 28 16m0-32 28 16-28 16m0-32v32M364 836l-28 16 28 16m0-32 28 16-28 16m0-32v32"/><path stroke="#0172AD" d="m280 788-56 32 56 32m0-64 56 32-56 32m0-64v64"/><path stroke="#0172AD" d="m336 756-56 32 56 32m0-64 56 32-56 32m0-64v64M392 788l-56 32 56 32m0-64 56 32-56 32m0-64v64"/><path stroke="#0172AD" d="m336 820-56 32 56 32m0-64 56 32-56 32m0-64v64M224 820l-56 32 56 32m0-64 56 32-56 32m0-64v64M224 756l-56 32 56 32m0-64 56 32-56 32m0-64v64"/><path stroke="#0172AD" d="m280 724-56 32 56 32m0-64 56 32-56 32m0-64v64M392 724l-56 32 56 32m0-64 56 32-56 32m0-64v64M448 756l-56 32 56 32m0-64 56 32-56 32m0-64v64M448 820l-56 32 56 32m0-64 56 32-56 32m0-64v64"/><path stroke="#009FE3" d="m336 756-112 64 112 64m0-128 112 64-112 64m0-128v128"/></g></g></g><g clip-path="url(#w)"><g stroke-width="2" clip-path="url(#x)"><g clip-path="url(#y)"><path stroke="#D4EDFC" stroke-opacity=".1" d="m588-28-28 16 28 16m0-32 28 16-28 16m0-32V4M616-12 588 4l28 16m0-32 28 16-28 16m0-32v32"/><path stroke="#D4EDFC" stroke-opacity=".1" d="m644-28-28 16 28 16m0-32 28 16-28 16m0-32V4M476 36l-28 16 28 16m0-32 28 16-28 16m0-32v32M588 36l-28 16 28 16m0-32 28 16-28 16m0-32v32M532 4l-28 16 28 16m0-32 28 16-28 16m0-32v32M504 52l-28 16 28 16m0-32 28 16-28 16m0-32v32M616 52l-28 16 28 16m0-32 28 16-28 16m0-32v32"/><path stroke="#D4EDFC" stroke-opacity=".1" d="m560 20-28 16 28 16m0-32 28 16-28 16m0-32v32M504 20l-28 16 28 16m0-32 28 16-28 16m0-32v32M616 20l-28 16 28 16m0-32 28 16-28 16m0-32v32M560-12 532 4l28 16m0-32 28 16-28 16m0-32v32"/><path stroke="#D4EDFC" stroke-opacity=".1" d="m532 36-28 16 28 16m0-32 28 16-28 16m0-32v32M644 36l-28 16 28 16m0-32 28 16-28 16m0-32v32M588 4l-28 16 28 16m0-32 28 16-28 16m0-32v32M644 4l-28 16 28 16m0-32 28 16-28 16m0-32v32M644 68l-28 16 28 16m0-32 28 16-28 16m0-32v32"/><path stroke="#D4EDFC" stroke-opacity=".1" d="m616 84-28 16 28 16m0-32 28 16-28 16m0-32v32M504 84l-28 16 28 16m0-32 28 16-28 16m0-32v32"/><path stroke="#D4EDFC" stroke-opacity=".1" d="m476 68-28 16 28 16m0-32 28 16-28 16m0-32v32M476 4l-28 16 28 16m0-32 28 16-28 16m0-32v32M476-28l-28 16 28 16m0-32 28 16-28 16m0-32V4M532-28l-28 16 28 16m0-32 28 16-28 16m0-32V4"/><path stroke="#D4EDFC" stroke-opacity=".1" d="M504-12 476 4l28 16m0-32 28 16-28 16m0-32v32M560 52l-28 16 28 16m0-32 28 16-28 16m0-32v32"/><path stroke="#D4EDFC" stroke-opacity=".1" d="m532 68-28 16 28 16m0-32 28 16-28 16m0-32v32M560 84l-28 16 28 16m0-32 28 16-28 16m0-32v32"/><path stroke="#D4EDFC" stroke-opacity=".1" d="m588 68-28 16 28 16m0-32 28 16-28 16m0-32v32M588 100l-28 16 28 16m0-32 28 16-28 16m0-32v32M644 100l-28 16 28 16m0-32 28 16-28 16m0-32v32M532 100l-28 16 28 16m0-32 28 16-28 16m0-32v32M476 100l-28 16 28 16m0-32 28 16-28 16m0-32v32"/><path stroke="#0172AD" d="m504 20-56 32 56 32m0-64 56 32-56 32m0-64v64"/><path stroke="#0172AD" d="m560-12-56 32 56 32m0-64 56 32-56 32m0-64v64M616 20l-56 32 56 32m0-64 56 32-56 32m0-64v64"/><path stroke="#0172AD" d="m560 52-56 32 56 32m0-64 56 32-56 32m0-64v64"/><path stroke="#0172AD" d="m504 84-56 32 56 32m0-64 56 32-56 32m0-64v64"/><path stroke="#0172AD" d="m448 52-56 32 56 32m0-64 56 32-56 32m0-64v64M448-12l-56 32 56 32m0-64 56 32-56 32m0-64v64"/><path stroke="#0172AD" d="m504-44-56 32 56 32m0-64 56 32-56 32m0-64v64M616-44l-56 32 56 32m0-64 56 32-56 32m0-64v64M672-12l-56 32 56 32m0-64 56 32-56 32m0-64v64M672 52l-56 32 56 32m0-64 56 32-56 32m0-64v64"/><path stroke="#0172AD" d="m616 84-56 32 56 32m0-64 56 32-56 32m0-64v64"/><path stroke="#009FE3" d="M560-12 448 52l112 64m0-128 112 64-112 64m0-128v128"/></g><g clip-path="url(#z)"><path stroke="#D4EDFC" stroke-opacity=".1" d="m588 100-28 16 28 16m0-32 28 16-28 16m0-32v32M616 116l-28 16 28 16m0-32 28 16-28 16m0-32v32"/><path stroke="#D4EDFC" stroke-opacity=".1" d="m644 100-28 16 28 16m0-32 28 16-28 16m0-32v32M476 164l-28 16 28 16m0-32 28 16-28 16m0-32v32M588 164l-28 16 28 16m0-32 28 16-28 16m0-32v32M532 132l-28 16 28 16m0-32 28 16-28 16m0-32v32M504 180l-28 16 28 16m0-32 28 16-28 16m0-32v32M616 180l-28 16 28 16m0-32 28 16-28 16m0-32v32"/><path stroke="#D4EDFC" stroke-opacity=".1" d="m560 148-28 16 28 16m0-32 28 16-28 16m0-32v32M504 148l-28 16 28 16m0-32 28 16-28 16m0-32v32M616 148l-28 16 28 16m0-32 28 16-28 16m0-32v32M560 116l-28 16 28 16m0-32 28 16-28 16m0-32v32"/><path stroke="#D4EDFC" stroke-opacity=".1" d="m532 164-28 16 28 16m0-32 28 16-28 16m0-32v32M644 164l-28 16 28 16m0-32 28 16-28 16m0-32v32M588 132l-28 16 28 16m0-32 28 16-28 16m0-32v32M644 132l-28 16 28 16m0-32 28 16-28 16m0-32v32M644 196l-28 16 28 16m0-32 28 16-28 16m0-32v32"/><path stroke="#D4EDFC" stroke-opacity=".1" d="m616 212-28 16 28 16m0-32 28 16-28 16m0-32v32M504 212l-28 16 28 16m0-32 28 16-28 16m0-32v32"/><path stroke="#D4EDFC" stroke-opacity=".1" d="m476 196-28 16 28 16m0-32 28 16-28 16m0-32v32M476 132l-28 16 28 16m0-32 28 16-28 16m0-32v32M476 100l-28 16 28 16m0-32 28 16-28 16m0-32v32M532 100l-28 16 28 16m0-32 28 16-28 16m0-32v32"/><path stroke="#D4EDFC" stroke-opacity=".1" d="m504 116-28 16 28 16m0-32 28 16-28 16m0-32v32M560 180l-28 16 28 16m0-32 28 16-28 16m0-32v32"/><path stroke="#D4EDFC" stroke-opacity=".1" d="m532 196-28 16 28 16m0-32 28 16-28 16m0-32v32M560 212l-28 16 28 16m0-32 28 16-28 16m0-32v32"/><path stroke="#D4EDFC" stroke-opacity=".1" d="m588 196-28 16 28 16m0-32 28 16-28 16m0-32v32M588 228l-28 16 28 16m0-32 28 16-28 16m0-32v32M644 228l-28 16 28 16m0-32 28 16-28 16m0-32v32M532 228l-28 16 28 16m0-32 28 16-28 16m0-32v32M476 228l-28 16 28 16m0-32 28 16-28 16m0-32v32"/><path stroke="#0172AD" d="m504 148-56 32 56 32m0-64 56 32-56 32m0-64v64"/><path stroke="#0172AD" d="m560 116-56 32 56 32m0-64 56 32-56 32m0-64v64M616 148l-56 32 56 32m0-64 56 32-56 32m0-64v64"/><path stroke="#0172AD" d="m560 180-56 32 56 32m0-64 56 32-56 32m0-64v64"/><path stroke="#0172AD" d="m504 212-56 32 56 32m0-64 56 32-56 32m0-64v64"/><path stroke="#0172AD" d="m448 180-56 32 56 32m0-64 56 32-56 32m0-64v64M448 116l-56 32 56 32m0-64 56 32-56 32m0-64v64"/><path stroke="#0172AD" d="m504 84-56 32 56 32m0-64 56 32-56 32m0-64v64M616 84l-56 32 56 32m0-64 56 32-56 32m0-64v64M672 116l-56 32 56 32m0-64 56 32-56 32m0-64v64M672 180l-56 32 56 32m0-64 56 32-56 32m0-64v64"/><path stroke="#0172AD" d="m616 212-56 32 56 32m0-64 56 32-56 32m0-64v64"/><path stroke="#009FE3" d="m560 116-112 64 112 64m0-128 112 64-112 64m0-128v128"/></g><g clip-path="url(#A)"><path stroke="#D4EDFC" stroke-opacity=".1" d="m588 228-28 16 28 16m0-32 28 16-28 16m0-32v32M616 244l-28 16 28 16m0-32 28 16-28 16m0-32v32"/><path stroke="#D4EDFC" stroke-opacity=".1" d="m644 228-28 16 28 16m0-32 28 16-28 16m0-32v32M476 292l-28 16 28 16m0-32 28 16-28 16m0-32v32M588 292l-28 16 28 16m0-32 28 16-28 16m0-32v32M532 260l-28 16 28 16m0-32 28 16-28 16m0-32v32M504 308l-28 16 28 16m0-32 28 16-28 16m0-32v32M616 308l-28 16 28 16m0-32 28 16-28 16m0-32v32"/><path stroke="#D4EDFC" stroke-opacity=".1" d="m560 276-28 16 28 16m0-32 28 16-28 16m0-32v32M504 276l-28 16 28 16m0-32 28 16-28 16m0-32v32M616 276l-28 16 28 16m0-32 28 16-28 16m0-32v32M560 244l-28 16 28 16m0-32 28 16-28 16m0-32v32"/><path stroke="#D4EDFC" stroke-opacity=".1" d="m532 292-28 16 28 16m0-32 28 16-28 16m0-32v32M644 292l-28 16 28 16m0-32 28 16-28 16m0-32v32M588 260l-28 16 28 16m0-32 28 16-28 16m0-32v32M644 260l-28 16 28 16m0-32 28 16-28 16m0-32v32M644 324l-28 16 28 16m0-32 28 16-28 16m0-32v32"/><path stroke="#D4EDFC" stroke-opacity=".1" d="m616 340-28 16 28 16m0-32 28 16-28 16m0-32v32M504 340l-28 16 28 16m0-32 28 16-28 16m0-32v32"/><path stroke="#D4EDFC" stroke-opacity=".1" d="m476 324-28 16 28 16m0-32 28 16-28 16m0-32v32M476 260l-28 16 28 16m0-32 28 16-28 16m0-32v32M476 228l-28 16 28 16m0-32 28 16-28 16m0-32v32M532 228l-28 16 28 16m0-32 28 16-28 16m0-32v32"/><path stroke="#D4EDFC" stroke-opacity=".1" d="m504 244-28 16 28 16m0-32 28 16-28 16m0-32v32M560 308l-28 16 28 16m0-32 28 16-28 16m0-32v32"/><path stroke="#D4EDFC" stroke-opacity=".1" d="m532 324-28 16 28 16m0-32 28 16-28 16m0-32v32M560 340l-28 16 28 16m0-32 28 16-28 16m0-32v32"/><path stroke="#D4EDFC" stroke-opacity=".1" d="m588 324-28 16 28 16m0-32 28 16-28 16m0-32v32M588 356l-28 16 28 16m0-32 28 16-28 16m0-32v32M644 356l-28 16 28 16m0-32 28 16-28 16m0-32v32M532 356l-28 16 28 16m0-32 28 16-28 16m0-32v32M476 356l-28 16 28 16m0-32 28 16-28 16m0-32v32"/><path stroke="#0172AD" d="m504 276-56 32 56 32m0-64 56 32-56 32m0-64v64"/><path stroke="#0172AD" d="m560 244-56 32 56 32m0-64 56 32-56 32m0-64v64M616 276l-56 32 56 32m0-64 56 32-56 32m0-64v64"/><path stroke="#0172AD" d="m560 308-56 32 56 32m0-64 56 32-56 32m0-64v64"/><path stroke="#0172AD" d="m504 340-56 32 56 32m0-64 56 32-56 32m0-64v64"/><path stroke="#0172AD" d="m448 308-56 32 56 32m0-64 56 32-56 32m0-64v64M448 244l-56 32 56 32m0-64 56 32-56 32m0-64v64"/><path stroke="#0172AD" d="m504 212-56 32 56 32m0-64 56 32-56 32m0-64v64M616 212l-56 32 56 32m0-64 56 32-56 32m0-64v64M672 244l-56 32 56 32m0-64 56 32-56 32m0-64v64M672 308l-56 32 56 32m0-64 56 32-56 32m0-64v64"/><path stroke="#0172AD" d="m616 340-56 32 56 32m0-64 56 32-56 32m0-64v64"/><path stroke="#009FE3" d="m560 244-112 64 112 64m0-128 112 64-112 64m0-128v128"/></g><g clip-path="url(#B)"><path stroke="#D4EDFC" stroke-opacity=".1" d="m588 356-28 16 28 16m0-32 28 16-28 16m0-32v32M616 372l-28 16 28 16m0-32 28 16-28 16m0-32v32"/><path stroke="#D4EDFC" stroke-opacity=".1" d="m644 356-28 16 28 16m0-32 28 16-28 16m0-32v32M476 420l-28 16 28 16m0-32 28 16-28 16m0-32v32M588 420l-28 16 28 16m0-32 28 16-28 16m0-32v32M532 388l-28 16 28 16m0-32 28 16-28 16m0-32v32M504 436l-28 16 28 16m0-32 28 16-28 16m0-32v32M616 436l-28 16 28 16m0-32 28 16-28 16m0-32v32"/><path stroke="#D4EDFC" stroke-opacity=".1" d="m560 404-28 16 28 16m0-32 28 16-28 16m0-32v32M504 404l-28 16 28 16m0-32 28 16-28 16m0-32v32M616 404l-28 16 28 16m0-32 28 16-28 16m0-32v32M560 372l-28 16 28 16m0-32 28 16-28 16m0-32v32"/><path stroke="#D4EDFC" stroke-opacity=".1" d="m532 420-28 16 28 16m0-32 28 16-28 16m0-32v32M644 420l-28 16 28 16m0-32 28 16-28 16m0-32v32M588 388l-28 16 28 16m0-32 28 16-28 16m0-32v32M644 388l-28 16 28 16m0-32 28 16-28 16m0-32v32M644 452l-28 16 28 16m0-32 28 16-28 16m0-32v32"/><path stroke="#D4EDFC" stroke-opacity=".1" d="m616 468-28 16 28 16m0-32 28 16-28 16m0-32v32M504 468l-28 16 28 16m0-32 28 16-28 16m0-32v32"/><path stroke="#D4EDFC" stroke-opacity=".1" d="m476 452-28 16 28 16m0-32 28 16-28 16m0-32v32M476 388l-28 16 28 16m0-32 28 16-28 16m0-32v32M476 356l-28 16 28 16m0-32 28 16-28 16m0-32v32M532 356l-28 16 28 16m0-32 28 16-28 16m0-32v32"/><path stroke="#D4EDFC" stroke-opacity=".1" d="m504 372-28 16 28 16m0-32 28 16-28 16m0-32v32M560 436l-28 16 28 16m0-32 28 16-28 16m0-32v32"/><path stroke="#D4EDFC" stroke-opacity=".1" d="m532 452-28 16 28 16m0-32 28 16-28 16m0-32v32M560 468l-28 16 28 16m0-32 28 16-28 16m0-32v32"/><path stroke="#D4EDFC" stroke-opacity=".1" d="m588 452-28 16 28 16m0-32 28 16-28 16m0-32v32M588 484l-28 16 28 16m0-32 28 16-28 16m0-32v32M644 484l-28 16 28 16m0-32 28 16-28 16m0-32v32M532 484l-28 16 28 16m0-32 28 16-28 16m0-32v32M476 484l-28 16 28 16m0-32 28 16-28 16m0-32v32"/><path stroke="#0172AD" d="m504 404-56 32 56 32m0-64 56 32-56 32m0-64v64"/><path stroke="#0172AD" d="m560 372-56 32 56 32m0-64 56 32-56 32m0-64v64M616 404l-56 32 56 32m0-64 56 32-56 32m0-64v64"/><path stroke="#0172AD" d="m560 436-56 32 56 32m0-64 56 32-56 32m0-64v64"/><path stroke="#0172AD" d="m504 468-56 32 56 32m0-64 56 32-56 32m0-64v64"/><path stroke="#0172AD" d="m448 436-56 32 56 32m0-64 56 32-56 32m0-64v64M448 372l-56 32 56 32m0-64 56 32-56 32m0-64v64"/><path stroke="#0172AD" d="m504 340-56 32 56 32m0-64 56 32-56 32m0-64v64M616 340l-56 32 56 32m0-64 56 32-56 32m0-64v64M672 372l-56 32 56 32m0-64 56 32-56 32m0-64v64M672 436l-56 32 56 32m0-64 56 32-56 32m0-64v64"/><path stroke="#0172AD" d="m616 468-56 32 56 32m0-64 56 32-56 32m0-64v64"/><path stroke="#009FE3" d="m560 372-112 64 112 64m0-128 112 64-112 64m0-128v128"/></g><g clip-path="url(#C)"><path stroke="#D4EDFC" stroke-opacity=".1" d="m588 484-28 16 28 16m0-32 28 16-28 16m0-32v32M616 500l-28 16 28 16m0-32 28 16-28 16m0-32v32"/><path stroke="#D4EDFC" stroke-opacity=".1" d="m644 484-28 16 28 16m0-32 28 16-28 16m0-32v32M476 548l-28 16 28 16m0-32 28 16-28 16m0-32v32M588 548l-28 16 28 16m0-32 28 16-28 16m0-32v32M532 516l-28 16 28 16m0-32 28 16-28 16m0-32v32M504 564l-28 16 28 16m0-32 28 16-28 16m0-32v32M616 564l-28 16 28 16m0-32 28 16-28 16m0-32v32"/><path stroke="#D4EDFC" stroke-opacity=".1" d="m560 532-28 16 28 16m0-32 28 16-28 16m0-32v32M504 532l-28 16 28 16m0-32 28 16-28 16m0-32v32M616 532l-28 16 28 16m0-32 28 16-28 16m0-32v32M560 500l-28 16 28 16m0-32 28 16-28 16m0-32v32"/><path stroke="#D4EDFC" stroke-opacity=".1" d="m532 548-28 16 28 16m0-32 28 16-28 16m0-32v32M644 548l-28 16 28 16m0-32 28 16-28 16m0-32v32M588 516l-28 16 28 16m0-32 28 16-28 16m0-32v32M644 516l-28 16 28 16m0-32 28 16-28 16m0-32v32M644 580l-28 16 28 16m0-32 28 16-28 16m0-32v32"/><path stroke="#D4EDFC" stroke-opacity=".1" d="m616 596-28 16 28 16m0-32 28 16-28 16m0-32v32M504 596l-28 16 28 16m0-32 28 16-28 16m0-32v32"/><path stroke="#D4EDFC" stroke-opacity=".1" d="m476 580-28 16 28 16m0-32 28 16-28 16m0-32v32M476 516l-28 16 28 16m0-32 28 16-28 16m0-32v32M476 484l-28 16 28 16m0-32 28 16-28 16m0-32v32M532 484l-28 16 28 16m0-32 28 16-28 16m0-32v32"/><path stroke="#D4EDFC" stroke-opacity=".1" d="m504 500-28 16 28 16m0-32 28 16-28 16m0-32v32M560 564l-28 16 28 16m0-32 28 16-28 16m0-32v32"/><path stroke="#D4EDFC" stroke-opacity=".1" d="m532 580-28 16 28 16m0-32 28 16-28 16m0-32v32M560 596l-28 16 28 16m0-32 28 16-28 16m0-32v32"/><path stroke="#D4EDFC" stroke-opacity=".1" d="m588 580-28 16 28 16m0-32 28 16-28 16m0-32v32M588 612l-28 16 28 16m0-32 28 16-28 16m0-32v32M644 612l-28 16 28 16m0-32 28 16-28 16m0-32v32M532 612l-28 16 28 16m0-32 28 16-28 16m0-32v32M476 612l-28 16 28 16m0-32 28 16-28 16m0-32v32"/><path stroke="#0172AD" d="m504 532-56 32 56 32m0-64 56 32-56 32m0-64v64"/><path stroke="#0172AD" d="m560 500-56 32 56 32m0-64 56 32-56 32m0-64v64M616 532l-56 32 56 32m0-64 56 32-56 32m0-64v64"/><path stroke="#0172AD" d="m560 564-56 32 56 32m0-64 56 32-56 32m0-64v64"/><path stroke="#0172AD" d="m504 596-56 32 56 32m0-64 56 32-56 32m0-64v64"/><path stroke="#0172AD" d="m448 564-56 32 56 32m0-64 56 32-56 32m0-64v64M448 500l-56 32 56 32m0-64 56 32-56 32m0-64v64"/><path stroke="#0172AD" d="m504 468-56 32 56 32m0-64 56 32-56 32m0-64v64M616 468l-56 32 56 32m0-64 56 32-56 32m0-64v64M672 500l-56 32 56 32m0-64 56 32-56 32m0-64v64M672 564l-56 32 56 32m0-64 56 32-56 32m0-64v64"/><path stroke="#0172AD" d="m616 596-56 32 56 32m0-64 56 32-56 32m0-64v64"/><path stroke="#009FE3" d="m560 500-112 64 112 64m0-128 112 64-112 64m0-128v128"/></g><g clip-path="url(#D)"><path stroke="#D4EDFC" stroke-opacity=".1" d="m588 612-28 16 28 16m0-32 28 16-28 16m0-32v32M616 628l-28 16 28 16m0-32 28 16-28 16m0-32v32"/><path stroke="#D4EDFC" stroke-opacity=".1" d="m644 612-28 16 28 16m0-32 28 16-28 16m0-32v32M476 676l-28 16 28 16m0-32 28 16-28 16m0-32v32M588 676l-28 16 28 16m0-32 28 16-28 16m0-32v32M532 644l-28 16 28 16m0-32 28 16-28 16m0-32v32M504 692l-28 16 28 16m0-32 28 16-28 16m0-32v32M616 692l-28 16 28 16m0-32 28 16-28 16m0-32v32"/><path stroke="#D4EDFC" stroke-opacity=".1" d="m560 660-28 16 28 16m0-32 28 16-28 16m0-32v32M504 660l-28 16 28 16m0-32 28 16-28 16m0-32v32M616 660l-28 16 28 16m0-32 28 16-28 16m0-32v32M560 628l-28 16 28 16m0-32 28 16-28 16m0-32v32"/><path stroke="#D4EDFC" stroke-opacity=".1" d="m532 676-28 16 28 16m0-32 28 16-28 16m0-32v32M644 676l-28 16 28 16m0-32 28 16-28 16m0-32v32M588 644l-28 16 28 16m0-32 28 16-28 16m0-32v32M644 644l-28 16 28 16m0-32 28 16-28 16m0-32v32M644 708l-28 16 28 16m0-32 28 16-28 16m0-32v32"/><path stroke="#D4EDFC" stroke-opacity=".1" d="m616 724-28 16 28 16m0-32 28 16-28 16m0-32v32M504 724l-28 16 28 16m0-32 28 16-28 16m0-32v32"/><path stroke="#D4EDFC" stroke-opacity=".1" d="m476 708-28 16 28 16m0-32 28 16-28 16m0-32v32M476 644l-28 16 28 16m0-32 28 16-28 16m0-32v32M476 612l-28 16 28 16m0-32 28 16-28 16m0-32v32M532 612l-28 16 28 16m0-32 28 16-28 16m0-32v32"/><path stroke="#D4EDFC" stroke-opacity=".1" d="m504 628-28 16 28 16m0-32 28 16-28 16m0-32v32M560 692l-28 16 28 16m0-32 28 16-28 16m0-32v32"/><path stroke="#D4EDFC" stroke-opacity=".1" d="m532 708-28 16 28 16m0-32 28 16-28 16m0-32v32M560 724l-28 16 28 16m0-32 28 16-28 16m0-32v32"/><path stroke="#D4EDFC" stroke-opacity=".1" d="m588 708-28 16 28 16m0-32 28 16-28 16m0-32v32M588 740l-28 16 28 16m0-32 28 16-28 16m0-32v32M644 740l-28 16 28 16m0-32 28 16-28 16m0-32v32M532 740l-28 16 28 16m0-32 28 16-28 16m0-32v32M476 740l-28 16 28 16m0-32 28 16-28 16m0-32v32"/><path stroke="#0172AD" d="m504 660-56 32 56 32m0-64 56 32-56 32m0-64v64"/><path stroke="#0172AD" d="m560 628-56 32 56 32m0-64 56 32-56 32m0-64v64M616 660l-56 32 56 32m0-64 56 32-56 32m0-64v64"/><path stroke="#0172AD" d="m560 692-56 32 56 32m0-64 56 32-56 32m0-64v64"/><path stroke="#0172AD" d="m504 724-56 32 56 32m0-64 56 32-56 32m0-64v64"/><path stroke="#0172AD" d="m448 692-56 32 56 32m0-64 56 32-56 32m0-64v64M448 628l-56 32 56 32m0-64 56 32-56 32m0-64v64"/><path stroke="#0172AD" d="m504 596-56 32 56 32m0-64 56 32-56 32m0-64v64M616 596l-56 32 56 32m0-64 56 32-56 32m0-64v64M672 628l-56 32 56 32m0-64 56 32-56 32m0-64v64M672 692l-56 32 56 32m0-64 56 32-56 32m0-64v64"/><path stroke="#0172AD" d="m616 724-56 32 56 32m0-64 56 32-56 32m0-64v64"/><path stroke="#009FE3" d="m560 628-112 64 112 64m0-128 112 64-112 64m0-128v128"/></g><g clip-path="url(#E)"><path stroke="#D4EDFC" stroke-opacity=".1" d="m588 740-28 16 28 16m0-32 28 16-28 16m0-32v32M616 756l-28 16 28 16m0-32 28 16-28 16m0-32v32"/><path stroke="#D4EDFC" stroke-opacity=".1" d="m644 740-28 16 28 16m0-32 28 16-28 16m0-32v32M476 804l-28 16 28 16m0-32 28 16-28 16m0-32v32M588 804l-28 16 28 16m0-32 28 16-28 16m0-32v32M532 772l-28 16 28 16m0-32 28 16-28 16m0-32v32M504 820l-28 16 28 16m0-32 28 16-28 16m0-32v32M616 820l-28 16 28 16m0-32 28 16-28 16m0-32v32"/><path stroke="#D4EDFC" stroke-opacity=".1" d="m560 788-28 16 28 16m0-32 28 16-28 16m0-32v32M504 788l-28 16 28 16m0-32 28 16-28 16m0-32v32M616 788l-28 16 28 16m0-32 28 16-28 16m0-32v32M560 756l-28 16 28 16m0-32 28 16-28 16m0-32v32"/><path stroke="#D4EDFC" stroke-opacity=".1" d="m532 804-28 16 28 16m0-32 28 16-28 16m0-32v32M644 804l-28 16 28 16m0-32 28 16-28 16m0-32v32M588 772l-28 16 28 16m0-32 28 16-28 16m0-32v32M644 772l-28 16 28 16m0-32 28 16-28 16m0-32v32M644 836l-28 16 28 16m0-32 28 16-28 16m0-32v32M476 836l-28 16 28 16m0-32 28 16-28 16m0-32v32M476 772l-28 16 28 16m0-32 28 16-28 16m0-32v32M476 740l-28 16 28 16m0-32 28 16-28 16m0-32v32M532 740l-28 16 28 16m0-32 28 16-28 16m0-32v32"/><path stroke="#D4EDFC" stroke-opacity=".1" d="m504 756-28 16 28 16m0-32 28 16-28 16m0-32v32M560 820l-28 16 28 16m0-32 28 16-28 16m0-32v32"/><path stroke="#D4EDFC" stroke-opacity=".1" d="m532 836-28 16 28 16m0-32 28 16-28 16m0-32v32M588 836l-28 16 28 16m0-32 28 16-28 16m0-32v32"/><path stroke="#0172AD" d="m504 788-56 32 56 32m0-64 56 32-56 32m0-64v64"/><path stroke="#0172AD" d="m560 756-56 32 56 32m0-64 56 32-56 32m0-64v64M616 788l-56 32 56 32m0-64 56 32-56 32m0-64v64"/><path stroke="#0172AD" d="m560 820-56 32 56 32m0-64 56 32-56 32m0-64v64M448 820l-56 32 56 32m0-64 56 32-56 32m0-64v64M448 756l-56 32 56 32m0-64 56 32-56 32m0-64v64"/><path stroke="#0172AD" d="m504 724-56 32 56 32m0-64 56 32-56 32m0-64v64M616 724l-56 32 56 32m0-64 56 32-56 32m0-64v64M672 756l-56 32 56 32m0-64 56 32-56 32m0-64v64M672 820l-56 32 56 32m0-64 56 32-56 32m0-64v64"/><path stroke="#009FE3" d="m560 756-112 64 112 64m0-128 112 64-112 64m0-128v128"/></g></g></g><g clip-path="url(#F)"><g stroke-width="2" clip-path="url(#G)"><g clip-path="url(#H)"><path stroke="#D4EDFC" stroke-opacity=".1" d="m700 36-28 16 28 16m0-32 28 16-28 16m0-32v32M700 68l-28 16 28 16m0-32 28 16-28 16m0-32v32M700 4l-28 16 28 16m0-32 28 16-28 16m0-32v32M700-28l-28 16 28 16m0-32 28 16-28 16m0-32V4M700 100l-28 16 28 16m0-32 28 16-28 16m0-32v32"/><path stroke="#0172AD" d="m728 20-56 32 56 32m0-64 56 32-56 32m0-64v64M728 84l-56 32 56 32m0-64 56 32-56 32m0-64v64"/><path stroke="#0172AD" d="m672 52-56 32 56 32m0-64 56 32-56 32m0-64v64M672-12l-56 32 56 32m0-64 56 32-56 32m0-64v64"/><path stroke="#0172AD" d="m728-44-56 32 56 32m0-64 56 32-56 32m0-64v64"/><path stroke="#009FE3" d="M784-12 672 52l112 64m0-128 112 64-112 64m0-128v128"/></g><g clip-path="url(#I)"><path stroke="#D4EDFC" stroke-opacity=".1" d="m700 164-28 16 28 16m0-32 28 16-28 16m0-32v32M700 196l-28 16 28 16m0-32 28 16-28 16m0-32v32M700 132l-28 16 28 16m0-32 28 16-28 16m0-32v32M700 100l-28 16 28 16m0-32 28 16-28 16m0-32v32M700 228l-28 16 28 16m0-32 28 16-28 16m0-32v32"/><path stroke="#0172AD" d="m728 148-56 32 56 32m0-64 56 32-56 32m0-64v64M728 212l-56 32 56 32m0-64 56 32-56 32m0-64v64"/><path stroke="#0172AD" d="m672 180-56 32 56 32m0-64 56 32-56 32m0-64v64M672 116l-56 32 56 32m0-64 56 32-56 32m0-64v64"/><path stroke="#0172AD" d="m728 84-56 32 56 32m0-64 56 32-56 32m0-64v64"/><path stroke="#009FE3" d="m784 116-112 64 112 64m0-128 112 64-112 64m0-128v128"/></g><g clip-path="url(#J)"><path stroke="#D4EDFC" stroke-opacity=".1" d="m700 292-28 16 28 16m0-32 28 16-28 16m0-32v32M700 324l-28 16 28 16m0-32 28 16-28 16m0-32v32M700 260l-28 16 28 16m0-32 28 16-28 16m0-32v32M700 228l-28 16 28 16m0-32 28 16-28 16m0-32v32M700 356l-28 16 28 16m0-32 28 16-28 16m0-32v32"/><path stroke="#0172AD" d="m728 276-56 32 56 32m0-64 56 32-56 32m0-64v64M728 340l-56 32 56 32m0-64 56 32-56 32m0-64v64"/><path stroke="#0172AD" d="m672 308-56 32 56 32m0-64 56 32-56 32m0-64v64M672 244l-56 32 56 32m0-64 56 32-56 32m0-64v64"/><path stroke="#0172AD" d="m728 212-56 32 56 32m0-64 56 32-56 32m0-64v64"/><path stroke="#009FE3" d="m784 244-112 64 112 64m0-128 112 64-112 64m0-128v128"/></g><g clip-path="url(#K)"><path stroke="#D4EDFC" stroke-opacity=".1" d="m700 420-28 16 28 16m0-32 28 16-28 16m0-32v32M700 452l-28 16 28 16m0-32 28 16-28 16m0-32v32M700 388l-28 16 28 16m0-32 28 16-28 16m0-32v32M700 356l-28 16 28 16m0-32 28 16-28 16m0-32v32M700 484l-28 16 28 16m0-32 28 16-28 16m0-32v32"/><path stroke="#0172AD" d="m728 404-56 32 56 32m0-64 56 32-56 32m0-64v64M728 468l-56 32 56 32m0-64 56 32-56 32m0-64v64"/><path stroke="#0172AD" d="m672 436-56 32 56 32m0-64 56 32-56 32m0-64v64M672 372l-56 32 56 32m0-64 56 32-56 32m0-64v64"/><path stroke="#0172AD" d="m728 340-56 32 56 32m0-64 56 32-56 32m0-64v64"/><path stroke="#009FE3" d="m784 372-112 64 112 64m0-128 112 64-112 64m0-128v128"/></g><g clip-path="url(#L)"><path stroke="#D4EDFC" stroke-opacity=".1" d="m700 548-28 16 28 16m0-32 28 16-28 16m0-32v32M700 580l-28 16 28 16m0-32 28 16-28 16m0-32v32M700 516l-28 16 28 16m0-32 28 16-28 16m0-32v32M700 484l-28 16 28 16m0-32 28 16-28 16m0-32v32M700 612l-28 16 28 16m0-32 28 16-28 16m0-32v32"/><path stroke="#0172AD" d="m728 532-56 32 56 32m0-64 56 32-56 32m0-64v64M728 596l-56 32 56 32m0-64 56 32-56 32m0-64v64"/><path stroke="#0172AD" d="m672 564-56 32 56 32m0-64 56 32-56 32m0-64v64M672 500l-56 32 56 32m0-64 56 32-56 32m0-64v64"/><path stroke="#0172AD" d="m728 468-56 32 56 32m0-64 56 32-56 32m0-64v64"/><path stroke="#009FE3" d="m784 500-112 64 112 64m0-128 112 64-112 64m0-128v128"/></g><g clip-path="url(#M)"><path stroke="#D4EDFC" stroke-opacity=".1" d="m700 676-28 16 28 16m0-32 28 16-28 16m0-32v32M700 708l-28 16 28 16m0-32 28 16-28 16m0-32v32M700 644l-28 16 28 16m0-32 28 16-28 16m0-32v32M700 612l-28 16 28 16m0-32 28 16-28 16m0-32v32M700 740l-28 16 28 16m0-32 28 16-28 16m0-32v32"/><path stroke="#0172AD" d="m728 660-56 32 56 32m0-64 56 32-56 32m0-64v64M728 724l-56 32 56 32m0-64 56 32-56 32m0-64v64"/><path stroke="#0172AD" d="m672 692-56 32 56 32m0-64 56 32-56 32m0-64v64M672 628l-56 32 56 32m0-64 56 32-56 32m0-64v64"/><path stroke="#0172AD" d="m728 596-56 32 56 32m0-64 56 32-56 32m0-64v64"/><path stroke="#009FE3" d="m784 628-112 64 112 64m0-128 112 64-112 64m0-128v128"/></g><g clip-path="url(#N)"><path stroke="#D4EDFC" stroke-opacity=".1" d="m700 804-28 16 28 16m0-32 28 16-28 16m0-32v32M700 836l-28 16 28 16m0-32 28 16-28 16m0-32v32M700 772l-28 16 28 16m0-32 28 16-28 16m0-32v32M700 740l-28 16 28 16m0-32 28 16-28 16m0-32v32"/><path stroke="#0172AD" d="m728 788-56 32 56 32m0-64 56 32-56 32m0-64v64"/><path stroke="#0172AD" d="m672 820-56 32 56 32m0-64 56 32-56 32m0-64v64M672 756l-56 32 56 32m0-64 56 32-56 32m0-64v64"/><path stroke="#0172AD" d="m728 724-56 32 56 32m0-64 56 32-56 32m0-64v64"/><path stroke="#009FE3" d="m784 756-112 64 112 64m0-128 112 64-112 64m0-128v128"/></g></g></g></g></g><path fill="#015184" d="m168 596.002 28-16 28 16-28 16-28-16Z"/><path fill="#009FE3" d="m420 548.002 28-16 28 16-28 16-28-16Z" opacity=".3"/><path fill="#015184" d="m364 484.002 28-16v32l-28-16Z"/><path fill="#0172AD" d="M336 308v32l-28 16v-32l28-16Z"/><path fill="#015184" d="m448 692.002-28 16v-32l28 16Z" opacity=".2"/><defs><clipPath id="a"><path fill="#fff" d="M0 0h711v948H0z"/></clipPath><clipPath id="d"><path fill="#fff" d="M0-140h1120v1152H0z"/></clipPath><clipPath id="e"><path fill="#fff" d="M0-140h224v1152H0z"/></clipPath><clipPath id="f"><path fill="#fff" d="M0-140h224v1152H0z"/></clipPath><clipPath id="g"><path fill="#fff" d="M0-12h224v128H0z"/></clipPath><clipPath id="h"><path fill="#fff" d="M0 116h224v128H0z"/></clipPath><clipPath id="i"><path fill="#fff" d="M0 244h224v128H0z"/></clipPath><clipPath id="j"><path fill="#fff" d="M0 372h224v128H0z"/></clipPath><clipPath id="k"><path fill="#fff" d="M0 500h224v128H0z"/></clipPath><clipPath id="l"><path fill="#fff" d="M0 628h224v128H0z"/></clipPath><clipPath id="m"><path fill="#fff" d="M0 756h224v128H0z"/></clipPath><clipPath id="n"><path fill="#fff" d="M224-140h224v1152H224z"/></clipPath><clipPath id="o"><path fill="#fff" d="M224-140h224v1152H224z"/></clipPath><clipPath id="p"><path fill="#fff" d="M224-12h224v128H224z"/></clipPath><clipPath id="q"><path fill="#fff" d="M224 116h224v128H224z"/></clipPath><clipPath id="r"><path fill="#fff" d="M224 244h224v128H224z"/></clipPath><clipPath id="s"><path fill="#fff" d="M224 372h224v128H224z"/></clipPath><clipPath id="t"><path fill="#fff" d="M224 500h224v128H224z"/></clipPath><clipPath id="u"><path fill="#fff" d="M224 628h224v128H224z"/></clipPath><clipPath id="v"><path fill="#fff" d="M224 756h224v128H224z"/></clipPath><clipPath id="w"><path fill="#fff" d="M448-140h224v1152H448z"/></clipPath><clipPath id="x"><path fill="#fff" d="M448-140h224v1152H448z"/></clipPath><clipPath id="y"><path fill="#fff" d="M448-12h224v128H448z"/></clipPath><clipPath id="z"><path fill="#fff" d="M448 116h224v128H448z"/></clipPath><clipPath id="A"><path fill="#fff" d="M448 244h224v128H448z"/></clipPath><clipPath id="B"><path fill="#fff" d="M448 372h224v128H448z"/></clipPath><clipPath id="C"><path fill="#fff" d="M448 500h224v128H448z"/></clipPath><clipPath id="D"><path fill="#fff" d="M448 628h224v128H448z"/></clipPath><clipPath id="E"><path fill="#fff" d="M448 756h224v128H448z"/></clipPath><clipPath id="F"><path fill="#fff" d="M672-140h224v1152H672z"/></clipPath><clipPath id="G"><path fill="#fff" d="M672-140h224v1152H672z"/></clipPath><clipPath id="H"><path fill="#fff" d="M672-12h224v128H672z"/></clipPath><clipPath id="I"><path fill="#fff" d="M672 116h224v128H672z"/></clipPath><clipPath id="J"><path fill="#fff" d="M672 244h224v128H672z"/></clipPath><clipPath id="K"><path fill="#fff" d="M672 372h224v128H672z"/></clipPath><clipPath id="L"><path fill="#fff" d="M672 500h224v128H672z"/></clipPath><clipPath id="M"><path fill="#fff" d="M672 628h224v128H672z"/></clipPath><clipPath id="N"><path fill="#fff" d="M672 756h224v128H672z"/></clipPath><radialGradient id="b" cx="0" cy="0" r="1" gradientTransform="rotate(76.012 -89.418 427.081) scale(443.829 382.531)" gradientUnits="userSpaceOnUse"><stop stop-color="#D9D9D9"/><stop offset="1" stop-color="#D9D9D9" stop-opacity="0"/></radialGradient></defs></svg>